<svg class="icon" id="Layer_1" xmlns="http://www.w3.org/2000/svg" viewBox="0 0 470 500"><style>.st0{fill:none;stroke:#3f3434;stroke-width:2;stroke-linecap:round;stroke-linejoin:round;stroke-miterlimit:10}</style><g class="phase-1"><g class="phase-1__house"><path d="M178.6 311.2v107.1l20.1-7.4V303.5zM24 406.7l24.8 9.9v-18.1L24 388.6zm50.9-11.8l-7.6 2.8v22.1l11.4-4.2v-19.1l-3.8-1.6zm16.5 1.5v34.9l11.4 4.3v-37.8l-7.5-2.9zm-49.6-69.9l-3.1-11.8-8.4-3.4v21.8L45 339zm30.9 12.2l-3-11.8-8.4-3.3v21.8l14.6 5.8z" class="phase-1__house-highlights" fill="#FFF3DF"/><path class="phase-1__house-outlines" fill="#3F3434" d="M223.5 415.4c0-.1 0-.2-.1-.3v-.1c0-.1-.1-.1-.1-.2l-.1-.1c-.1-.1-.1-.1-.2-.1l-23-9.2c-.1 0-.2-.1-.4-.1V304.1l1.5-.6c.3-.1.6-.4.6-.8v-6.3l12.6-4.7c.3-.1.6-.4.6-.8v-5.8c0-.1-.1-.2-.1-.2l-51.2-64.1c0-.1-.1-.1-.2-.1l-.3-.3c-.1-.1-.2-.1-.3-.1h-.5L42.4 265.9s-.1 0-.1.1c0 0-.1 0-.1.1l-35.5 37c-.2.2-.2.4-.2.6v4.3c0 .1 0 .2.1.3v.1c0 .1.1.2.2.2l.1.1c.1 0 .1.1.2.1s.2 0 .3.1h.4l13.6-5.1V388c0 .4.2.7.5.8l1.2.5v15.5l-1.3.5s-.1 0-.1.1l-.1.1c-.1.1-.1.2-.2.2v.1c0 .1-.1.2-.1.3v23.4L7 434.8h-.1c-.1 0-.1.1-.2.1l-.1.1c0 .1-.1.1-.1.2v.1c0 .1-.1.2-.1.3v6.9c0 .4.2.7.5.8l77.4 31c.1 0 .2.1.3.1.1 0 .2 0 .3-.1l137.9-51c.3-.1.6-.4.6-.8l.1-7.1c0 .1 0 0 0 0zM23.1 434.3v-2.4l37.1 14.9 23.6 9.5v2.4l-60.7-24.4zM77.8 397v18l-9.6 3.6v-20.3l6.7-2.5 2.9 1.2zm-10.8-.1c-.3.1-.6.4-.6.8v22.1c0 .3.1.5.4.7.1.1.3.2.5.2.1 0 .2 0 .3-.1l11.3-4.2c.3-.1.6-.4.6-.8v-17.9l4.2 1.7V436l-22.3 8.7v-54.3l11.1 4.5-5.5 2zm28.3-1.1l6.6 2.6v35.9l-9.6-3.6V397l3-1.2zm-4.2 36.3l11.3 4.3c.1 0 .2.1.3.1.2 0 .3-.1.5-.2.2-.2.4-.4.4-.7v-37.8c0-.4-.2-.7-.5-.8l-5.3-2.1 11.4-4.2v54.4L85.4 436v-36.5l5.2-1.9v33.7c0 .4.2.7.5.8zm-6.4 22.6L62.9 446l21.7-8.5 23 8.8-22.9 8.4zm.9 1.6l24.6-9.1h.2l67.4-24.8v2.5l-92.2 34v-2.6zm-62.5-92v-33.1l13.8 5.5 7.2 2.9v33.1l-21-8.4zm60.7-10.9l-7-2.8v-25.3l-.1-.1-.1-.1c-.1-.1-.1-.1-.2-.1l-14.6-5.9h-.5l-6.2 1.1c-.1 0-.2.1-.3.1l-.1.1c-.1 0-.1.1-.2.2 0 .1-.1.1-.1.2v.4l5.8 22.7-14.3-5.7v-60.4l38 46.5v29.1zm-22.6-32.6l5.8 2.3 5.8 2.3-.8.1-2.2.4-8.1-3.3-3.4-1.4 2.9-.4zm1 4l6.8 2.7 2.5 9.8-9.3-3.7v-8.8zm8.6 2.8l4-.7.3-.1v17.5l-4.3-16.7zm-10.3-3.5v14.4l-4.1-16 4.1 1.6zm1.7 20.7v-9.3l9.8 3.9 2.7 10.4-.3-.1-12.2-4.9zm-31.9-36.2l5.2 2.1 6.3 2.5-.8.1-2.2.4-8.1-3.3-3.4-1.4 3-.4zm.9 4l6.8 2.7 2.5 9.8-9.3-3.7v-8.8zm8.6 2.7l4-.7.3-.1V332l-4.3-16.7zm-10.3-3.4v14.4l-4.1-16 4.1 1.6zm1.7 20.6v-9.3l9.8 3.9 2.7 10.4-6.3-2.5-6.2-2.5zm12.9-20.2l-13.4-5.4h-.5L24 308c-.1 0-.2.1-.3.1l-.1.1c-.1 0-.1.1-.2.2 0 .1-.1.1-.1.2v.4l5.8 22.7-6-2.4v-30.5l21-21.8v35.3zm1.7 27.9l28.1 11.1 1.7.7h.1l8.1 3.2v33.1l-38-15.1v-33zm39.7 14.5v-28.1l8.6 10.6.1.1c.2.1.3.2.5.2.1 0 .2 0 .3-.1l71.4-27.4v48.9l-81 29.5v-33.7zm-37-89.2l50.8 62.7-4.2 1.6-51-62.6 4.4-1.7zm6.3-2.4l50.8 62.7-4.6 1.8-50.8-62.7 4.6-1.8zm6.3-2.5l50.8 62.7-4.6 1.8-50.8-62.7 4.6-1.8zm6.4-2.4l50.8 62.7-4.6 1.8L62.8 260l4.7-1.8zm6.3-2.4l50.7 62.7-4.6 1.8-50.8-62.7 4.7-1.8zm6.3-2.4l50.7 62.7-4.6 1.8-50.8-62.7 4.7-1.8zm6.4-2.4l50.7 62.8-4.6 1.8-50.7-62.7 4.6-1.9zm6.3-2.4l50.7 62.8-4.6 1.8-50.7-62.8 4.6-1.8zm6.3-2.4l50.7 62.8-4.6 1.8L94.5 248l4.6-1.8zm6.3-2.5l50.7 62.8-4.6 1.8-50.7-62.8 4.6-1.8zm6.4-2.4l50.7 62.8-4.6 1.8-50.7-62.8 4.6-1.8zm6.3-2.4l50.7 62.8-4.6 1.8-50.7-62.8 4.6-1.8zm6.3-2.4l50.6 62.8-4.6 1.8-50.7-62.8 4.7-1.8zm6.4-2.4l50.6 62.9-4.6 1.8-50.7-62.8 4.7-1.9zm6.3-2.4l50.6 62.9-4.6 1.8-50.6-62.9 4.6-1.8zm6.3-2.5l50.6 62.9-4.6 1.8-50.6-62.9 4.6-1.8zm6.3-2.4l50.6 62.9-4.6 1.8-50.6-62.9 4.6-1.8zm6.4-2.4l50.6 62.9-4.6 1.8-50.6-62.9 4.6-1.8zm6-2.3l50.5 63-4.2 1.6-50.6-62.9 4.3-1.7zm17.4 199v-2.2l18.4-6.8v2.5l-18.4 6.8v-.3zm18.4-10.8l-18.4 6.8V311.9l18.4-7v105.4zm.6-107.6s-.1 0-.1.1l-20 7.6c-.3.1-.6.4-.6.8v109.3l-9.5 3.5V309.3l31.7-12.2v5l-1.5.6zm2-7.6L95.7 335.3v-4l5.3-2 112.1-42.6v3.6l-12.6 4.8zm-157.8-27l51.3 63v3.1l-8.4-10.3v-.1c0-.4-.3-.8-.8-.8l-42-51.4c-.2-.2-.4-.3-.6-.3-.2 0-.5.1-.7.3L8.2 305.9V304l34.5-35.9zm-32.1 37.7L42 273.3l1.5 1.8-21.9 22.7c-.2.2-.2.4-.2.6v3.3l-10.8 4.1zm12.5 60.3l61.3 24.3c.1 0 .2.1.3.1h.3l81.6-29.7v63.9l-55.7 20.5v-55.6c0-.3-.1-.5-.4-.7-.2-.2-.5-.2-.8-.1l-25 9.3-23.8-9.6c-.3-.1-.6-.1-.8.1-.2.2-.4.4-.4.7v55.6L23.1 430v-22.8l25.3 10.1c.3.1.6.1.8-.1.2-.2.4-.4.4-.7v-18.1c0-.4-.2-.7-.5-.8l-26-10.4v-21.1zm24.8 33v16.2l-23-9.2v-16.2l23 9.2zm-26.5 32.1v3.7c0 .4.2.7.5.8l62.5 25c.1 0 .2.1.3.1.1 0 .2 0 .3-.1l93.9-34.6c.3-.1.6-.4.6-.8v-2.2L199 416c.3-.1.6-.4.6-.8v-8l20.6 8.3-135.5 50-75-30.1 11.7-4.2zm63.3 41.2L8.2 441.7v-5l76.2 30.5c.1 0 .2.1.3.1.1 0 .2 0 .3-.1l136.7-50.6v5.1l-137 50.7z"/></g><g class="phase-1__tooltip"><path d="M73.4 145.2c-.2-.2-.5-.3-.8-.5s-.6-.2-.9-.3c-.2-.1-.5-.2-.7-.3l-.6-.3c-.2-.1-.3-.2-.4-.4-.1-.1-.1-.3-.1-.5s0-.4.1-.6c.1-.2.2-.3.3-.4.1-.1.3-.2.5-.2s.4-.1.6-.1c.2 0 .5 0 .7.1l.6.3c.2.1.3.3.4.5.1.2.1.4.1.7h.7V141h-.7v.8c-.2-.3-.4-.5-.7-.7-.3-.2-.7-.2-1-.2-.3 0-.6 0-.9.1-.3.1-.5.2-.8.4-.2.2-.4.4-.5.6-.1.2-.2.5-.2.8 0 .4.1.6.2.9.1.2.3.4.5.6.2.2.5.3.7.4.3.1.6.2.8.3.2.1.5.2.7.3l.6.3c.2.1.3.3.4.5.1.2.2.4.2.6 0 .2 0 .4-.1.6-.1.2-.2.3-.3.4-.1.1-.3.2-.5.3-.2.1-.4.1-.6.1-.3 0-.5 0-.8-.1-.2-.1-.5-.2-.6-.4-.2-.2-.3-.3-.5-.6-.1-.2-.2-.5-.2-.7H69v2.3h.7v-.6c.2.3.5.6.9.7.4.2.8.2 1.2.2.3 0 .6-.1.9-.2.3-.1.5-.2.8-.4.2-.2.4-.4.5-.7.1-.3.2-.6.2-.9 0-.4-.1-.7-.2-.9l-.6-.6zm2-1.5h.7v-1.9h1.7v6.3h-1.3v.7h3.3v-.7h-1.2v-6.3h1.6v1.9h.7v-2.6h-5.5zm8.8-2.6l-2.6 7.7h.9l.7-2.2h3l.7 2.2h.9l-2.6-7.7h-1zm-.7 4.8l1.3-4 1.3 4h-2.6zm9.2-.6c.3-.1.5-.3.7-.4.2-.2.4-.4.5-.7.1-.3.2-.5.2-.9 0-.7-.2-1.3-.7-1.6-.5-.4-1.1-.6-2-.6h-2.5v7.7h.8v-3.3h1.2l2.2 3.3h1l-2.3-3.3c.4 0 .6-.1.9-.2zm-3-.5v-3h1.7c.6 0 1 .1 1.3.4.3.2.5.6.5 1.1 0 .5-.2.9-.5 1.1-.3.2-.8.4-1.3.4h-1.7zm5.5-3.7v2.6h.7v-1.9h1.6v6.3h-1.2v.7h3.3v-.7h-1.3v-6.3h1.7v1.9h.6v-2.6zM73.4 159c-.2-.2-.5-.3-.8-.5s-.6-.2-.9-.3c-.2-.1-.5-.2-.7-.3l-.6-.3c-.2-.1-.3-.2-.4-.4-.1-.1-.1-.3-.1-.5s0-.4.1-.6c.1-.2.2-.3.3-.4.1-.1.3-.2.5-.2s.4-.1.6-.1c.2 0 .5 0 .7.1l.6.3c.2.1.3.3.4.5.1.2.1.4.1.7h.7v-2.2h-.7v.8c-.2-.3-.4-.5-.7-.7-.3-.2-.7-.2-1-.2-.3 0-.6 0-.9.1-.3.1-.5.2-.8.4-.2.2-.4.4-.5.6-.1.2-.2.5-.2.8 0 .4.1.6.2.9.1.2.3.4.5.6.2.2.5.3.7.4.3.1.6.2.8.3.2.1.5.2.7.3l.6.3c.2.1.3.3.4.5.1.2.2.4.2.6 0 .2 0 .4-.1.6-.1.2-.2.3-.3.4-.1.1-.3.2-.5.3-.2.1-.4.1-.6.1-.3 0-.5 0-.8-.1-.2-.1-.5-.2-.6-.4s-.3-.3-.5-.6c-.1-.2-.2-.5-.2-.7H69v2.3h.7v-.8c.2.3.5.6.9.7.4.2.8.2 1.2.2.3 0 .6-.1.9-.2.3-.1.5-.2.8-.4.2-.2.4-.4.5-.7.1-.3.2-.6.2-.9 0-.4-.1-.7-.2-.9-.2 0-.4-.2-.6-.4zm4.8-.1l-1.4-4h-1.1v7.7h.8v-6.4l1.4 3.9h.6l1.3-3.9v6.4h.8v-7.7h-1zm6-4l-2.6 7.7h.9l.7-2.2h3l.7 2.2h.9l-2.6-7.7h-1zm-.7 4.8l1.3-4 1.3 4h-2.6zm6.2-4.8h-.8v7.7h4.9v-.7h-4.1zm6.6 0h-.8v7.7h4.9v-.7h-4.1z" class="phase-1__tooltip-text"/><g class="phase-1__tooltip-bg"><path fill="#ECC05F" d="M106 182.3c11.4 11.4 11.4 29.9 0 41.3l-20.7 20.7-20.7-20.7c-11.4-11.4-11.4-29.9 0-41.3 11.4-11.4 30-11.4 41.4 0z"/><path d="M81.7 193.3c.1 1.1 1.1 2 2.2 2h2.9c1.1 0 2.1-.8 2.2-1.9l.8-5c.1-1.2-.3-2.5-1.1-3.4-.8-.9-2-1.5-3.3-1.5-1.3 0-2.5.5-3.3 1.5-.8.9-1.2 2.2-1.1 3.5l.7 4.8zm.9-7.9c.7-.8 1.6-1.2 2.7-1.2 1 0 2 .4 2.7 1.2.7.8 1 1.8.9 2.8l-.8 5c-.1.7-.7 1.2-1.3 1.2h-2.9c-.7 0-1.3-.5-1.3-1.2l-.8-4.9c-.2-1.1.2-2.1.8-2.9zm20.8 23.4l-9.8-12.2c-.1-.1-.2-.2-.3-.2h-16c-.1 0-.3.1-.3.2l-9.8 12.2c-.1.2-.1.4 0 .6l10.3 10.9c.1.1.3.2.5.1s.3-.3.2-.4l-.5-5c0-.1 0-.1-.1-.2l-4-5.6 4.4-3.9 1.8 16.1c0 .2.2.4.4.4H90c.2 0 .4-.2.4-.4l1.8-16.1 4.4 3.9-4 5.6c0 .1-.1.1-.1.2l-.5 5c0 .2.1.4.2.4.2.1.4 0 .5-.1l10.3-10.9c.5-.2.5-.4.4-.6zm-10.2 10l.4-3.6 4.2-5.8c.1-.2.1-.4-.1-.6l-5.3-4.7c-.1-.1-.3-.1-.4-.1-.1.1-.3.2-.3.4l-1.8 16.5h-9.1L79 204.4c0-.2-.1-.3-.3-.4-.1-.1-.3 0-.4.1l-5.3 4.7c-.2.1-.2.4-.1.6l4.2 5.8.4 3.6-9.2-9.7 9.4-11.8h15.5l9.4 11.8-9.4 9.7z" class="phase-1__tooltip-bg-icon" fill="#3F3434"/></g></g></g><g class="phase-2"><g class="phase-2__tooltip"><path d="M428.8 264.1c0 .3 0 .6-.1.8 0 .3-.1.5-.2.8-.1.2-.3.4-.5.6-.2.1-.5.2-.9.2-.5 0-.9-.1-1.2-.4-.3-.3-.6-.7-.8-1.3l-.7.3c.2.7.5 1.3 1 1.6.5.4 1 .5 1.7.5.9 0 1.5-.3 1.9-.8.4-.5.6-1.3.6-2.3v-4.7h-.8v4.7zm7.2-3.6c-.2-.4-.5-.7-.9-.9-.4-.2-.8-.3-1.4-.3-.5 0-1 .1-1.4.3-.4.2-.7.5-.9.9-.2.4-.4.8-.5 1.3-.1.5-.2 1-.2 1.5s.1 1 .2 1.5.3.9.5 1.3.5.7.9.9c.4.2.8.3 1.4.3.5 0 1-.1 1.4-.3.4-.2.7-.5.9-.9.2-.4.4-.8.5-1.3.1-.5.2-1 .2-1.5s-.1-1-.2-1.5-.3-1-.5-1.3zm-.2 3.9c-.1.4-.2.7-.3 1.1-.2.3-.4.6-.7.8-.3.2-.6.3-1 .3s-.8-.1-1-.3c-.3-.2-.5-.5-.7-.8-.2-.3-.3-.7-.3-1.1-.1-.4-.1-.8-.1-1.2 0-.4 0-.8.1-1.2s.2-.7.3-1.1c.2-.3.4-.6.7-.8s.6-.3 1-.3c.3 0 .6.1.9.2.3.2.5.4.7.7.2.3.3.6.4 1 .1.4.1.9.1 1.4-.1.5-.1.9-.1 1.3zm6.5 2.1c.5-.4.7-.9.7-1.6 0-.9-.5-1.6-1.5-1.9.8-.3 1.2-.8 1.2-1.6 0-.4-.1-.8-.2-1-.2-.3-.4-.5-.6-.6-.2-.1-.5-.2-.8-.3-.3-.1-.6-.1-.9-.1h-2.3v7.7h2.4c.9 0 1.5-.2 2-.6zm-3.7-6.4h1.5c.2 0 .4 0 .6.1.2 0 .4.1.6.2.2.1.3.2.4.4.1.2.2.4.2.7 0 .3-.1.5-.2.7s-.2.3-.4.4c-.2.1-.4.2-.6.2h-2.1v-2.7zm0 3.2h1.6c.6 0 1.1.1 1.4.4.3.2.5.6.5 1.2 0 .5-.2.9-.5 1.1-.3.3-.8.4-1.4.4h-1.6v-3.1zm-31.1 9.8H405v7.7h.8v-3.3h1.7c.8 0 1.5-.2 1.9-.5.5-.4.7-.9.7-1.7 0-.7-.2-1.3-.7-1.6-.4-.4-1.1-.6-1.9-.6zm1.3 3.4c-.3.2-.8.4-1.3.4h-1.7v-3h1.7c.6 0 1 .1 1.3.4.3.2.5.6.5 1.1s-.1.9-.5 1.1zm6.6.8c.3-.1.5-.3.7-.4s.4-.4.5-.7c.1-.3.2-.5.2-.9 0-.7-.2-1.3-.7-1.6-.5-.4-1.1-.6-2-.6h-2.5v7.7h.8v-3.3h1.2l2.2 3.3h1l-2.3-3.3c.3 0 .6-.1.9-.2zm-3.1-.5v-3h1.7c.6 0 1 .1 1.3.4.3.2.5.6.5 1.1 0 .5-.2.9-.5 1.1-.3.2-.8.4-1.3.4h-1.7zm10.5-2.6c-.2-.4-.5-.7-.9-.9-.4-.2-.8-.3-1.4-.3-.5 0-1 .1-1.4.3-.4.2-.7.5-.9.9-.2.4-.4.8-.5 1.3-.1.5-.2 1-.2 1.5s.1 1 .2 1.5.3.9.5 1.3.5.7.9.9c.4.2.8.3 1.4.3.5 0 1-.1 1.4-.3.4-.2.7-.5.9-.9.2-.4.4-.8.5-1.3.1-.5.2-1 .2-1.5s-.1-1-.2-1.5-.2-.9-.5-1.3zm-.2 4c-.1.4-.2.7-.3 1.1-.2.3-.4.6-.7.8-.3.2-.6.3-1 .3s-.8-.1-1-.3c-.3-.2-.5-.5-.7-.8-.2-.3-.3-.7-.3-1.1-.1-.4-.1-.8-.1-1.2 0-.4 0-.8.1-1.2.1-.4.2-.7.3-1.1.2-.3.4-.6.7-.8.3-.2.6-.3 1-.3.3 0 .6.1.9.2.3.2.5.4.7.7.2.3.3.6.4 1 .1.4.1.9.1 1.4 0 .5 0 .9-.1 1.3zm4.5-1l-1.4-4.1h-1v7.7h.8v-6.4l1.3 4h.6l1.4-4v6.4h.8v-7.7h-1.1zm8.9-3c-.2-.4-.5-.7-.9-.9-.4-.2-.8-.3-1.4-.3-.5 0-1 .1-1.4.3-.4.2-.7.5-.9.9-.2.4-.4.8-.5 1.3-.1.5-.2 1-.2 1.5s.1 1 .2 1.5.3.9.5 1.3.5.7.9.9c.4.2.8.3 1.4.3.5 0 1-.1 1.4-.3.4-.2.7-.5.9-.9.2-.4.4-.8.5-1.3.1-.5.2-1 .2-1.5s-.1-1-.2-1.5-.3-.9-.5-1.3zm-.2 4c-.1.4-.2.7-.3 1.1-.2.3-.4.6-.7.8-.3.2-.6.3-1 .3s-.8-.1-1-.3c-.3-.2-.5-.5-.7-.8-.2-.3-.3-.7-.3-1.1-.1-.4-.1-.8-.1-1.2 0-.4 0-.8.1-1.2s.2-.7.3-1.1c.2-.3.4-.6.7-.8.3-.2.6-.3 1-.3.3 0 .6.1.9.2.3.2.5.4.7.7.2.3.3.6.4 1 .1.4.1.9.1 1.4-.1.5-.1.9-.1 1.3zm1.8-2.5h.6v-1.9h1.7v6.3h-1.3v.7h3.3v-.7h-1.2v-6.3h1.6v1.9h.7v-2.6h-5.4zm7.6-1.9h1.3v6.3h-1.3v.7h3.3v-.7h-1.2v-6.3h1.2v-.7h-3.3zm10.5.4c-.2-.4-.5-.7-.9-.9-.4-.2-.8-.3-1.4-.3s-1 .1-1.4.3c-.4.2-.7.5-.9.9-.2.4-.4.8-.5 1.3-.1.5-.2 1-.2 1.5s.1 1 .2 1.5.3.9.5 1.3.5.7.9.9c.4.2.8.3 1.4.3s1-.1 1.4-.3c.4-.2.7-.5.9-.9.2-.4.4-.8.5-1.3.1-.5.2-1 .2-1.5s-.1-1-.2-1.5-.2-.9-.5-1.3zm-.2 4c-.1.4-.2.7-.3 1.1-.2.3-.4.6-.7.8-.3.2-.6.3-1 .3s-.8-.1-1-.3c-.3-.2-.5-.5-.7-.8-.2-.3-.3-.7-.3-1.1-.1-.4-.1-.8-.1-1.2 0-.4 0-.8.1-1.2s.2-.7.3-1.1c.2-.3.4-.6.7-.8.3-.2.6-.3 1-.3.3 0 .6.1.9.2.3.2.5.4.7.7.2.3.3.6.4 1 .1.4.1.9.1 1.4 0 .5-.1.9-.1 1.3zm6.2-5.1v6.2l-3-6.2h-1.1v7.7h.8v-6.5l3.1 6.5h1v-7.7z" class="phase-2__tooltip-text"/><g class="phase-2__tooltip-bg"><path fill="#ECC05F" d="M454.9 341.6c-11.4 11.4-29.9 11.4-41.3 0l-20.7-20.7 20.7-20.7c11.4-11.4 29.9-11.4 41.3 0 11.5 11.4 11.5 30 0 41.4z" class="phase-2__tooltip-bg"/><g class="phase-2__tooltip-bg-icon" fill="#3F3434"><path d="M439.3 332.8c.1.1.2.1.3.1s.2 0 .3-.1l10.1-10.1c.2-.2.2-.4 0-.6l-21.4-21.4c-.2-.2-.4-.2-.6 0l-10.1 10.1c-.2.2-.2.4 0 .6l21.4 21.4zm-10.9-31.2l20.8 20.8-9.5 9.5-20.8-20.8 9.5-9.5z"/><path d="M430.8 313.6c-2.1 2.1-2.3 5.3-.5 7.1.8.8 1.9 1.2 3.1 1.2 1.4 0 2.9-.6 4-1.7 2.1-2.1 2.3-5.3.5-7.1-1.8-1.9-5-1.6-7.1.5zm5.9 5.9c-1.8 1.8-4.4 2-5.9.5s-1.2-4.1.5-5.9c1-1 2.2-1.5 3.4-1.5.9 0 1.8.3 2.5 1 1.5 1.5 1.3 4.2-.5 5.9z"/><path d="M449.5 325.1l-9.8 9.8-21.1-21.1c-.2-.2-.4-.2-.6 0s-.2.4 0 .6l21.4 21.4c.1.1.2.1.3.1s.2 0 .3-.1l10.1-10.1c.2-.2.2-.4 0-.6-.2-.2-.5-.2-.6 0z"/><path d="M449.5 328.2l-9.8 9.8-21.1-21c-.2-.2-.4-.2-.6 0-.2.2-.2.4 0 .6l21.4 21.4c.1.1.2.1.3.1s.2 0 .3-.1l10.1-10.1c.2-.2.2-.4 0-.6-.2-.2-.5-.2-.6-.1z"/><path d="M449.5 331.3l-9.8 9.8-21.1-21.1c-.2-.2-.4-.2-.6 0-.2.2-.2.4 0 .6l21.4 21.4c.1.1.2.1.3.1s.2 0 .3-.1l10.1-10.1c.2-.2.2-.4 0-.6-.2-.1-.5-.1-.6 0z"/></g></g></g><g class="phase-2__house"><path d="M359.8 315.6l-3 11.7-3.3 12.3 14.7-5.3v-21.9zm-33.2 23.2l-3.2 12.3 14.7-5.4v-21.8l-8.4 3.1z" class="phase-2__house-highlights" fill="#FFF3DF"/><g class="phase-2__house-outlines" fill="#3F3434"><path d="M352.8 340c0 .1.1.2.1.2l.1.1s.1 0 .1.1c.1 0 .1 0 .2.1h.2c.1 0 .2 0 .3-.1l14.7-5.4c.1 0 .1-.1.2-.1l.2-.2v-.1c0-.1.1-.1.1-.2l6.1-24.2v-.4c0-.1 0-.1-.1-.2 0-.1-.1-.1-.2-.2l-.1-.1c-.1-.1-.2-.1-.3-.1l-6.1-1.2h-.5l-14.7 5.5c-.1 0-.2.1-.2.1l-.1.1-.1.1v25.8c0 .1 0 .2.1.4 0-.1 0 0 0 0zm15.5-30.2l3 .6-11.5 4.3-3-.6h-.1l1.9-.7 9.7-3.6zm-7.7 6.4l6.8-2.6v8.6l-9.3 3.6 2.5-9.6zm8.5-3.2l4-1.5-4 15.9V313zm-11.7 3l1.4.3-4.4 16.7v-17.6l3 .6zm-2.6 22.3l2.7-10.3 9.9-3.8v9.5l-12.6 4.6zm-32.1-13s-.1.1 0 0l-.1.1V351c0 .1 0 .2.1.3v.1c0 .1.1.2.1.2l.1.1s.1 0 .1.1c.1 0 .1 0 .2.1h.2c.1 0 .2 0 .3-.1l14.7-5.4c.1 0 .1-.1.2-.1l.2-.2v-.1c0-.1.1-.1.1-.2l6.1-24.2v-.4c0-.1 0-.1-.1-.2 0-.1-.1-.1-.2-.2l-.1-.1c-.1-.1-.2-.1-.3-.1l-6.1-1.2h-.5l-14.7 5.5c-.1 0-.2.1-.2.1l-.1.1v.2zm15.4-4.1l3 .6-11.5 4.3-3-.6h-.1l3.6-1.3 8-3zm-7.7 6.5l6.8-2.6v8.6l-9.3 3.6 2.5-9.6zm8.5-3.2l4-1.5-4 15.9v-14.4zm-11.7 2.9l1.4.3-4.4 16.7v-17.6l3 .6zm-2.6 22.3l2.7-10.3 9.9-3.8v9.5l-12.6 4.6z"/><path d="M384.4 289.2c0-.1 0-.2-.1-.3v-.1c0-.1-.1-.1-.1-.2 0 0 0-.1-.1-.1-.1-.1-.1-.1-.2-.1h-.1l-66.2-25.2c-.4-.2-.9.1-1.1.5-.2.4.1.9.5 1.1l64.1 24.3-77 27.9-61.9-24.8 64.5-24.5c.4-.2.7-.7.5-1.1-.2-.4-.7-.7-1.1-.5l-66.5 25.2c-.2.1-.4.3-.5.5 0 .1-.1.2-.1.3v66.2c0 .4.2.7.5.8l7.3 2.9c.1 0 .2.1.3.1.3 0 .7-.2.8-.5.2-.4 0-.9-.5-1.1l-6.8-2.7v-4.1l12.8 5.2c.1 0 .2.1.3.1.3 0 .7-.2.8-.5.2-.4 0-.9-.5-1.1l-13.5-5.4v-58.4l62.4 25V377l-37-14.8c-.4-.2-.9 0-1.1.5-.2.4 0 .9.5 1.1l37.6 15.1v4.2l-44.6-17.9c-.4-.2-.9 0-1.1.5-.2.4 0 .9.5 1.1l45.8 18.4c.1 0 .2.1.3.1.1 0 .2 0 .3-.1l79.4-28.8c.3-.1.6-.4.6-.8v-6l.3-60.4zm-1.7 1.3v58.4L305 377.1v-58.4l77.7-28.2zM305 383.1v-4.2l77.7-28.2v4.2L305 383.1z"/><path d="M271.4 361.4l28.1 11.3c.1 0 .2.1.3.1.2 0 .3-.1.5-.1.2-.2.4-.4.4-.7v-51c0-.4-.2-.7-.5-.8l-55.5-22.3h-.3c-.1 0-.2 0-.3.1-.1 0-.1.1-.2.1 0 0-.1 0-.1.1l-.2.2v51.3c0 .1 0 .2.1.3v.1s0 .1.1.1l.1.1.1.1s.1 0 .1.1h.1l15.9 6.4c.1 0 .2.1.3.1.3 0 .7-.2.8-.5.2-.4 0-.9-.5-1.1l-13.9-5.6 52.3-20.1v41.1l-27-10.8c-.4-.2-.9 0-1.1.5-.3.3-.1.8.4.9zm-26.3-13V300l53.8 21.6v6.2l-53.8 20.6zM221 373.9l-1.7.6v-5.3l-5.9 7.9 5.9 3.9v-4.7l2.3-.8c.4-.2.7-.7.5-1.1-.2-.4-.7-.7-1.1-.5zm18.3-6.7l-4.6 1.7c-.4.2-.7.7-.5 1.1.1.3.5.6.8.6.1 0 .2 0 .3-.1l4.6-1.7c.4-.2.7-.7.5-1.1-.2-.4-.7-.6-1.1-.5zm-9.2 3.4l-4.6 1.7c-.4.2-.7.7-.5 1.1.1.3.5.6.8.6.1 0 .2 0 .3-.1l4.6-1.7c.4-.2.7-.7.5-1.1-.1-.5-.6-.7-1.1-.5zm18.3-6.7l-4.6 1.7c-.4.2-.7.7-.5 1.1.1.3.5.6.8.6.1 0 .2 0 .3-.1l4.6-1.7c.4-.2.7-.7.5-1.1-.1-.4-.6-.7-1.1-.5z"/><path d="M266.7 357.2l-4.6 1.7c-.4.2-.7.7-.5 1.1.1.3.5.6.8.6.1 0 .2 0 .3-.1l4.6-1.7c.4-.2.7-.7.5-1.1-.1-.4-.6-.6-1.1-.5zm4.9 0c.1 0 .2 0 .3-.1l4.6-1.7c.4-.2.7-.7.5-1.1-.2-.4-.7-.7-1.1-.5l-4.6 1.7c-.4.2-.7.7-.5 1.1.1.4.4.6.8.6zm-12.9 3.9c-.2-.4-.7-.7-1.1-.5l-4.6 1.7c-.4.2-.7.7-.5 1.1.1.3.5.6.8.6.1 0 .2 0 .3-.1l4.6-1.7c.4-.2.6-.7.5-1.1zm22-7.2c.1 0 .2 0 .3-.1l2.4-.9c.4-.2.7-.7.5-1.1-.2-.4-.7-.7-1.1-.5l-2.4.9c-.4.2-.7.7-.5 1.1.2.4.5.6.8.6z"/></g></g></g><g class="phase-3"><g class="phase-3__tooltip"><path d="M274.8 13.6h4.9v-.7h-4.1v-2.8h3v-.7h-3V6.6h4.1v-.7h-4.9zm9.7 0h2.2v-.7h-.7l-1.7-3.2 1.6-3.1h.7v-.7h-2.2v.7h.6l-1.1 2.5-1.2-2.5h.6v-.7h-2.2v.7h.6l1.7 3.1-1.7 3.2h-.7v.7h2.2v-.7h-.6l1.3-2.5 1.2 2.5h-.6zm8.7-5.5c0-.7-.2-1.3-.7-1.6-.5-.4-1.1-.6-2-.6H288v7.7h.8v-3.3h1.7c.8 0 1.5-.2 1.9-.5.5-.4.8-.9.8-1.7zm-1.4 1.2c-.3.2-.8.4-1.3.4h-1.7v-3h1.7c.6 0 1 .1 1.3.4.3.2.5.6.5 1.1s-.1.8-.5 1.1zm3.7 2.1h3l.7 2.2h.9l-2.6-7.7h-1.1l-2.6 7.7h.9l.8-2.2zm1.5-4.7l1.3 4h-2.6l1.3-4zm9-.8h-.8v6.2l-2.9-6.2h-1.2v7.7h.8V7.1l3.1 6.5h1zm6.5 6.6c.2-.4.4-.8.5-1.2.1-.5.2-1 .2-1.5s-.1-1-.2-1.5-.3-.9-.5-1.2-.5-.6-.9-.8c-.4-.2-.8-.3-1.3-.3h-2.5v7.7h2.5c.5 0 1-.1 1.4-.3.2-.3.5-.6.8-.9zm-2.3.4h-1.7V6.6h1.7c.7 0 1.2.3 1.6.8.4.6.6 1.3.6 2.3s-.2 1.8-.6 2.3c-.4.7-.9.9-1.6.9zm8.2 0h-1.3V6.6h1.3v-.7h-3.3v.7h1.2v6.3h-1.2v.7h3.3zm6.6-.8l-3-6.2h-1.1v7.7h.8V7.1l3.1 6.5h1V5.9h-.8zm5.4-2.5v.7h1.7c-.1.9-.3 1.5-.6 2-.4.5-.8.7-1.5.7-.4 0-.8-.1-1-.3-.3-.2-.5-.5-.7-.8-.2-.3-.3-.7-.3-1.1-.1-.4-.1-.8-.1-1.2 0-.4 0-.8.1-1.2.1-.4.2-.7.3-1.1.2-.3.4-.6.7-.8.3-.2.6-.3 1-.3.3 0 .5.1.8.1.2.1.4.2.6.4.2.2.3.4.4.6.1.2.2.5.2.8h.7V5.9h-.7v.9c-.2-.3-.4-.6-.7-.8-.3-.2-.7-.3-1.2-.3s-1 .1-1.4.3c-.4.2-.7.5-.9.9-.2.4-.4.8-.5 1.3-.1.5-.2 1-.2 1.5s.1 1 .2 1.5.3.9.5 1.3.5.7.9.9c.4.2.8.3 1.4.3.5 0 1-.1 1.4-.3.4-.2.7-.5.9-.9.2-.4.4-.8.5-1.3.1-.5.2-1 .2-1.5v-.1h-2.7zm-45.7 17.8h.8v-3.6h3v-.7h-3v-2.7h4.1v-.7h-4.9zm8.5-7.7l-2.6 7.7h.9l.7-2.2h3l.7 2.2h.9l-2.6-7.7h-1zm-.8 4.8l1.3-4 1.3 4h-2.6zm7.9-.8l-1.4-4h-1.1v7.7h.8V21l1.4 3.9h.6l1.3-3.9v6.4h.8v-7.7h-1zm4.9-3.3h1.3v6.3h-1.3v.7h3.3v-.7h-1.2v-6.3h1.2v-.7h-3.3zm6.6-.7h-.8v7.7h4.9v-.7h-4.1zm8.9.7h.7l-1.4 2.9-1.3-2.9h.6v-.7h-2.1v.7h.6l1.8 3.7v2.6h-1.2v.7h3.3v-.7h-1.3v-2.6l1.9-3.7h.6v-.7h-2.2z" class="phase-3__tooltip-text"/><path fill="#ECC05F" d="M324.5 47.3c11.4 11.4 11.4 29.9 0 41.3l-20.7 20.7-20.7-20.7c-11.4-11.4-11.4-29.9 0-41.3 11.5-11.4 30-11.4 41.4 0z" class="phase-3__tooltip-bg"/><g class="phase-3__tooltip-bg-icon" fill="#3F3434"><path d="M316.8 74.2c-1.7-1.7-4.2-2-6.2-1l-3.9-4.9c1.9-3.4 1.3-7.7-1.4-10.5-3.4-3.4-9-3.4-12.4 0-1.7 1.7-2.6 3.8-2.6 6.2 0 2.3.9 4.5 2.6 6.2 2.8 2.8 7 3.4 10.5 1.4l4.9 3.9c-1.1 2.1-.7 4.6 1 6.2 1.1 1.1 2.4 1.6 3.8 1.6s2.8-.5 3.8-1.6c1-1 1.6-2.4 1.6-3.8-.1-1.3-.7-2.7-1.7-3.7zm-.6 7c-1.8 1.8-4.6 1.8-6.4 0-1.5-1.5-1.8-3.7-.7-5.5.1-.2.1-.4-.1-.6l-5.4-4.3c-.1-.1-.2-.1-.3-.1-.1 0-.2 0-.2.1-3.1 1.9-7.1 1.4-9.7-1.2-1.5-1.5-2.3-3.5-2.3-5.6 0-2.1.8-4.1 2.3-5.6 3.1-3.1 8.1-3.1 11.1 0 2.6 2.6 3.1 6.6 1.2 9.7-.1.2-.1.4 0 .5L310 74c.1.2.4.2.6.1 1.8-1.1 4.1-.8 5.5.7.9.9 1.3 2 1.3 3.2s-.3 2.4-1.2 3.2z"/><path d="M310.9 76c-1.1 1.1-1.1 3 0 4.1.6.6 1.3.9 2.1.9s1.5-.3 2.1-.9c.6-.6.9-1.3.9-2.1s-.3-1.5-.9-2.1c-1.2-1.1-3-1.1-4.2.1zm3.6 3.5c-.8.8-2.1.8-2.9 0-.8-.8-.8-2.1 0-2.9.4-.4.9-.6 1.5-.6.5 0 1.1.2 1.5.6.4.4.6.9.6 1.5s-.4 1-.7 1.4zm-15.1-27.4c4.3 0 8.2 2.3 10.3 6.1.1.1.2.2.4.2.1 0 .1 0 .2-.1.2-.1.3-.4.2-.6-2.2-4.1-6.4-6.6-11.1-6.6-.2 0-.4.2-.4.4s.1.6.4.6zM292.6 75c-3.8-2.1-6.1-6-6-10.3 0-.2-.2-.4-.4-.4s-.4.2-.4.4c0 4.6 2.5 8.9 6.5 11.1.1 0 .1.1.2.1.2 0 .3-.1.4-.2 0-.3-.1-.5-.3-.7zm14.2-24.5c1.4.7 2.7 1.7 3.8 2.8.1.1.2.1.3.1.1 0 .2 0 .3-.1.2-.2.2-.4 0-.6-1.2-1.2-2.5-2.2-4-3-.2-.1-.5 0-.6.2-.1.2 0 .5.2.6z"/></g></g><g class="phase-3__house"><path d="M256.2 174.6v17.8l36.2-13.3-11.6-13.7zm60.3 28.5v15.3l54-19.9V183z" class="phase-3__house-highlights" fill="#FFF3DF"/><g class="phase-3__house-outline" fill="#3F3434"><path d="M243.4 165.5v56.1c0 .1 0 .2.1.3v.1s0 .1.1.1l.1.1.1.1s.1 0 .1.1h.1l55.6 22.3c.1 0 .2.1.3.1.2 0 .3-.1.5-.1.2-.2.4-.4.4-.7v-56.1c0-.2-.1-.4-.2-.6l-7.4-8.8-28-32.9c-.2-.2-.4-.3-.6-.3-.2 0-.5.1-.6.2l-20.1 19.4c-.4.1-.5.4-.5.6zm3.2 56.1l52.3-20.1v41.1l-52.3-21zm52.4-21.9l-53.8 20.7v-53.6l26.9-10.3 7.3 8.5-.6.2-22.8 8.5c-.3.1-.6.4-.6.8v17.8c0 .3.1.5.4.7.1.1.3.2.5.2.1 0 .2 0 .3-.1l35.7-13.1 6.8 8v11.7zm-8-21l-11.1 4.1v-16.1l.6-.2 10.5 12.2zm-34 12.5v-16l21.1-7.9v16.1l-21.1 7.8zm7.3-43.8l6.6 7.7-24.2 9.3 17.6-17zm48.1 134c0-.5-.4-.9-.9-.9s-.9.4-.9.9v2.4l-4.5 1.6 5.7 4.2 5.4-8.3-5 1.8.2-1.7zm-1-18.7c-.5 0-.9.4-.9.9v4.4c0 .5.4.9.9.9s.9-.4.9-.9v-4.4c0-.5-.4-.9-.9-.9zm0-8.9c-.5 0-.9.4-.9.9v4.4c0 .5.4.9.9.9s.9-.4.9-.9v-4.4c-.1-.5-.5-.9-.9-.9zm0 17.8c-.5 0-.9.4-.9.9v4.4c0 .5.4.9.9.9s.9-.4.9-.9v-4.4c0-.5-.4-.9-.9-.9z"/><path d="M391.3 169.6v-.3c0-.1-.1-.2-.1-.2L340 105c0-.1-.1-.1-.2-.1l-.3-.3c-.1-.1-.2-.1-.3-.1h-.5l-68.3 25.8c-.1 0-.2.1-.3.1l-5.9 2.2s-.1 0-.1.1c-.1 0-.1 0-.2.1l-35.4 36.9c-.2.2-.2.4-.2.6v4.3c0 .1 0 .2.1.3 0 0 0 .1.1.1v.1c0 .1.1.1.1.1.1 0 .1.1.2.1s.1 0 .2.1h.4l9.8-3.7v52.8c0 .4.2.7.5.8l64.2 25.7c.1 0 .2.1.3.1.1 0 .2 0 .3-.1l6.1-2.2v1.4c0 .5.4.9.9.9s.9-.4.9-.9v-2l71.7-26c.1 0 .1-.1.2-.1 0 0 .1 0 .1-.1l.1-.1.1-.1v-43.5l6.3-2.4c.3-.1.6-.4.6-.8l-.2-5.5zm-47.9 24.3v13.7l-26 9.6v-13.5l26-9.8zm1.4-.6l24.8-9.4v14l-24.5 9v-13.1c0-.1-.1-.3-.3-.5zm-28 3l-51-62.6 4.4-1.6 50.8 62.7-4.2 1.5zm5.9-2.2l-50.8-62.7 4.5-1.7 50.8 62.7-4.5 1.7zm6.2-2.3l-50.8-62.7 4.5-1.7 50.8 62.7-4.5 1.7zm6.2-2.4l-50.8-62.7 4.5-1.7 50.7 62.7-4.4 1.7zm6.2-2.3l-50.7-62.7 4.5-1.7 50.7 62.8-4.5 1.6zm6.2-2.3L296.8 122l4.5-1.7 50.7 62.8-4.5 1.7zm6.2-2.4L303 119.7l4.5-1.7 50.7 62.8-4.5 1.6zm6.2-2.3l-50.7-62.8 4.5-1.7 50.6 62.8-4.4 1.7zm6.3-2.3L315.5 115l4.5-1.7 50.6 62.9-4.4 1.6zm6.2-2.3l-50.6-62.9 4.5-1.7 50.6 62.9-4.5 1.7zm6.2-2.4L328 110.2l4.5-1.7 50.6 62.9-4.5 1.7zm6.2-2.3l-50.6-62.9 4.4-1.7 50.4 63-4.2 1.6zm-154.9-.2l34.4-36 51.3 63v3.1l-51.2-62.6c-.2-.2-.4-.3-.6-.3-.2 0-.5.1-.6.3l-33.3 34.4v-1.9zm73.4 78.4l-62.4-25v-60.3l22.9-23.7 39.5 48.4V249zm-71-76.6l6.8-7v4.4l-6.8 2.6zm150.4 48.4L305 249v-58.6l10.6 13v15c0 .3.1.5.4.7.1.1.3.2.5.2.1 0 .2 0 .3-.1l54-19.9c.3-.1.6-.4.6-.8v-15.3l11.4-4.3v41.9zm-65.3-18.9v-4l72.2-27.1v3.6l-72.2 27.5z"/></g></g></g></svg>