<svg id="Layer_1" xmlns="http://www.w3.org/2000/svg" viewBox="0 0 140 125"><style>.st0{fill:#143753}</style><path class="st0" d="M37.5 122.5c-.5 0-1-.1-1.4-.4L2.8 102.9c-.9-.5-1.4-1.4-1.4-2.5V24.5c0-1 .5-1.9 1.4-2.5.9-.5 2-.5 2.8 0l65.8 38c.9.5 1.4 1.4 1.4 2.5v36.8c0 1-.5 1.9-1.4 2.5-.9.5-2 .5-2.8 0L40.3 85.5v34.2c0 1-.5 1.9-1.4 2.5-.4.2-.9.3-1.4.3zM7.1 98.8l27.6 15.9V80.6c0-1 .5-1.9 1.4-2.5.9-.5 2-.5 2.8 0l28.3 16.2V64.1L7.1 29.4v69.4z"/><path class="st0" d="M70 102.1c-.5 0-1-.1-1.4-.4-.9-.5-1.4-1.4-1.4-2.5V62.5c0-1 .5-1.9 1.4-2.4l32.5-19.2c.9-.5 2-.5 2.8 0 .9.5 1.4 1.4 1.4 2.5v37.3c0 1-.5 2-1.4 2.5l-32.5 18.7c-.4.1-.9.2-1.4.2zm2.8-38v30.3L99.7 79V48.2L72.8 64.1z"/><path class="st0" d="M70 65.3c-.5 0-1-.1-1.4-.4L2.8 27c-.9-.5-1.4-1.4-1.4-2.5s.5-1.9 1.4-2.5L36.1 2.9c.9-.5 2-.5 2.8 0l65 37.9c.9.5 1.4 1.4 1.4 2.4s-.5 1.9-1.4 2.4L71.4 64.9c-.4.3-.9.4-1.4.4zM9.9 24.5L70 59.2l26.9-15.9L37.5 8.6 9.9 24.5z"/><path class="st0" d="M102.5 46.1c-.5 0-1-.1-1.4-.4L67.7 26.2c-.9-.5-1.4-1.5-1.4-2.5s.6-2 1.4-2.4l33-18.5c.9-.5 1.9-.5 2.8 0L137.1 22c.9.5 1.4 1.4 1.4 2.5 0 1-.6 2-1.4 2.5l-33.2 18.7c-.4.3-.9.4-1.4.4zM74.8 23.9L102.5 40 130 24.5 102.1 8.6 74.8 23.9z"/><path class="st0" d="M102.5 122.5c-.5 0-1-.1-1.4-.4-.9-.5-1.4-1.4-1.4-2.5l.1-76.4c0-1 .6-2 1.4-2.5L134.4 22c.9-.5 2-.5 2.8 0 .9.5 1.4 1.4 1.4 2.4v75.9c0 1-.5 1.9-1.4 2.5L103.9 122c-.5.4-1 .5-1.4.5zm2.9-77.6l-.1 69.8 27.6-15.9V29.4l-27.5 15.5z"/><path class="st0" d="M102.5 122.5c-.5 0-1-.1-1.5-.4l-32.5-20.4c-.8-.5-1.3-1.5-1.3-2.5s.6-1.9 1.4-2.4l32.5-18.7c.9-.5 2-.5 2.8 0 .9.5 1.4 1.4 1.4 2.5l-.1 39.1c0 1-.6 2-1.5 2.5-.3.2-.8.3-1.2.3zm-27-23.1l24.1 15.2.1-29.1"/><path class="st0" d="M37.5 122.5c-.5 0-.9-.1-1.4-.4-.9-.5-1.5-1.4-1.5-2.5v-39c0-1 .5-1.9 1.4-2.5.9-.5 2-.5 2.8 0l32.5 18.7c.9.5 1.4 1.4 1.4 2.4s-.5 1.9-1.3 2.5L39 122.1c-.5.3-1 .4-1.5.4zm2.8-37v29.1l24.2-15.2-24.2-13.9z"/></svg>