<svg id="Layer_1" data-name="Layer 1" xmlns="http://www.w3.org/2000/svg" viewBox="0 0 502.93 126.22"><defs><style>.cls-1{fill:#0a2240;}</style></defs><title>Module_Logo_Website</title><path class="cls-1" d="M164.5,85.74l7.26-45.28h8.69l11.27,27.08L203,40.46h8.69l7.26,45.28H208.49l-3.6-27-11.34,27h-3.66l-11.34-27-3.6,27Z"/><path class="cls-1" d="M274.27,46a24.09,24.09,0,0,1,0,34.08c-4.21,4.08-9.91,6.66-17.51,6.66-8.49,0-14.26-3.4-17.66-6.66A23.13,23.13,0,0,1,232,63.27a25.26,25.26,0,0,1,7-17.18c3.05-3.06,8.69-6.65,17.72-6.65C263.82,39.44,269.72,41.61,274.27,46ZM246.78,53a13.85,13.85,0,0,0-4,10.25,13.51,13.51,0,0,0,4.14,10.18,13.3,13.3,0,0,0,9.71,3.74,13.73,13.73,0,0,0,10.05-3.87,13.59,13.59,0,0,0,3.94-10.12A14.29,14.29,0,0,0,266.67,53a14.49,14.49,0,0,0-10-3.87A13.86,13.86,0,0,0,246.78,53Z"/><path class="cls-1" d="M312.52,40.46c6,0,12.29.88,17.86,6.24,4,3.87,6.52,9.17,6.52,16.23s-2.45,12.29-6.18,16c-6.25,6.31-14.05,6.79-17.85,6.79H298.2V40.46Zm-3.86,36.45h2.78c2.17,0,6.92-.2,10.32-3,2.44-2,4.41-5.91,4.41-10.93a13.44,13.44,0,0,0-3.73-9.78c-3.4-3.39-7.81-3.87-11-3.87h-2.78Z"/><path class="cls-1" d="M391.5,67.27c0,4.35-.54,9.71-5,14.33s-9.37,5.16-14.12,5.16-9.78-.68-14.12-5.16-5-10-5-14.33V40.46h10.45V67c0,2,.14,5.3,2.38,7.6a9.55,9.55,0,0,0,12.62,0c2.24-2.3,2.38-5.63,2.38-7.6V40.46H391.5Z"/><path class="cls-1" d="M420.93,40.46V76.91H435v8.83H410.48V40.46Z"/><path class="cls-1" d="M475.52,49.28H460.38V58h14.39v8.82H460.38v10h15.14v8.83h-25.6V40.46h25.6Z"/><path class="cls-1" d="M127.82,32.57l-24.5-14.14a2.56,2.56,0,0,0-2.59,0L77.53,31.82,54.33,18.43a2.56,2.56,0,0,0-2.59,0L27.24,32.57A2.59,2.59,0,0,0,26,34.81V91.38a2.57,2.57,0,0,0,1.29,2.24l24.5,14.15a2.6,2.6,0,0,0,2.59,0l23.2-13.4,23.2,13.4a2.64,2.64,0,0,0,2.59,0l24.49-14.15a2.58,2.58,0,0,0,1.3-2.24V34.81A2.59,2.59,0,0,0,127.82,32.57ZM102,23.66l19.32,11.15L102,46,82.71,34.81ZM99.44,75.74,80.12,86.9V64.59L99.44,53.44Zm0,6V101L82.71,91.38ZM53,23.66,76.24,37.05,96.85,49,77.53,60.11,33.71,34.81ZM31.13,39.29l43.81,25.3V86.9L54.33,75a2.6,2.6,0,0,0-2.59,0,2.57,2.57,0,0,0-1.29,2.24V101L31.13,89.89ZM72.35,91.38,55.62,101V81.72ZM104.61,101V50.45l19.32-11.16v50.6Z"/></svg>