<svg class="icon" version="1.1" id="Layer_1" xmlns="http://www.w3.org/2000/svg" xmlns:xlink="http://www.w3.org/1999/xlink" x="0px" y="0px"
	 viewBox="0 0 470 500" style="enable-background:new 0 0 470 480;" xml:space="preserve">
<style type="text/css">
	.st0{fill:none;stroke:#3F3434;stroke-width:2;stroke-linecap:round;stroke-linejoin:round;stroke-miterlimit:10;}
</style> 

<g class="phase-1">
  	<g class="phase-1__house">
    	<!-- Phase #1: Yellow highlights-->
		<g class="phase-1__house-highlights">
			<polygon fill="#FFF3DF" points="178.6,311.2 178.6,418.3 198.7,410.9 198.7,303.5 			"/>
			<polygon fill="#FFF3DF" points="24,406.7 48.8,416.6 48.8,398.5 24,388.6 			"/>
			<polygon fill="#FFF3DF" points="74.9,394.9 67.3,397.7 67.3,419.8 78.7,415.6 78.7,396.5 78.7,396.5 74.9,394.9 			"/>
			<polygon fill="#FFF3DF" points="91.4,396.4 91.4,431.3 102.8,435.6 102.8,397.8 95.3,394.9 			"/>
			<polygon fill="#FFF3DF" points="41.8,326.5 38.7,314.7 30.3,311.3 30.3,321.9 30.3,333.1 45,339 			"/>
			<polygon fill="#FFF3DF" points="72.7,338.7 69.7,326.9 61.3,323.6 61.3,334.2 61.3,345.4 75.9,351.2 			"/>
		</g>
  		<!-- /Phase #1: Yellow highlights-->
    
		<!-- Phase #1: Black outlines -->
		<path class="phase-1__house-outlines" fill="#3F3434" d="M223.5,415.4c0-0.1,0-0.2-0.1-0.3c0,0,0-0.1,0-0.1c0-0.1-0.1-0.1-0.1-0.2c0,0,0,0-0.1-0.1
			c-0.1-0.1-0.1-0.1-0.2-0.1c0,0,0,0,0,0c0,0,0,0,0,0l-23-9.2c-0.1,0-0.2-0.1-0.4-0.1V304.1l1.5-0.6c0.3-0.1,0.6-0.4,0.6-0.8v-6.3
			l12.6-4.7c0.3-0.1,0.6-0.4,0.6-0.8v-5.5c0,0,0,0,0,0c0-0.1,0-0.1,0-0.2c0,0,0,0,0-0.1c0-0.1-0.1-0.2-0.1-0.2l-51.2-64.1
			c0-0.1-0.1-0.1-0.2-0.1l-0.3-0.3c0,0,0,0,0,0c-0.1-0.1-0.2-0.1-0.3-0.1c0,0,0,0-0.1,0c-0.1,0-0.2,0-0.2,0c0,0-0.1,0-0.1,0
			c0,0-0.1,0-0.1,0L42.4,265.9c0,0-0.1,0-0.1,0.1c0,0-0.1,0-0.1,0.1c0,0,0,0,0,0c0,0,0,0,0,0L6.7,303.1c-0.2,0.2-0.2,0.4-0.2,0.6
			v4.3c0,0,0,0,0,0c0,0,0,0,0,0c0,0.1,0,0.2,0.1,0.3c0,0,0,0,0,0.1c0,0.1,0.1,0.2,0.2,0.2c0,0,0,0,0,0c0,0,0,0,0,0c0,0,0,0,0.1,0.1
			c0.1,0,0.1,0.1,0.2,0.1c0,0,0,0,0,0c0.1,0,0.2,0,0.3,0.1c0,0,0,0,0.1,0c0.1,0,0.2,0,0.3,0l0,0c0,0,0,0,0,0l13.6-5.1l0,26.2
			c0,0.1,0,0.1,0,0.2l0,34.6c0,0.1,0,0.3,0,0.4v0.2v22.6c0,0.4,0.2,0.7,0.5,0.8l1.2,0.5v15.5l-1.3,0.5c0,0,0,0,0,0
			c0,0-0.1,0-0.1,0.1c0,0-0.1,0.1-0.1,0.1c0,0,0,0,0,0c-0.1,0.1-0.1,0.2-0.2,0.2c0,0,0,0,0,0.1c0,0.1-0.1,0.2-0.1,0.3l0,23.4
			l-14.3,5.3c0,0,0,0,0,0c0,0,0,0-0.1,0c-0.1,0-0.1,0.1-0.2,0.1c0,0,0,0-0.1,0.1c0,0.1-0.1,0.1-0.1,0.2c0,0,0,0.1,0,0.1
			c0,0.1-0.1,0.2-0.1,0.3c0,0,0,0,0,0c0,0,0,0,0,0v6.9c0,0.4,0.2,0.7,0.5,0.8l77.4,31c0.1,0,0.2,0.1,0.3,0.1c0.1,0,0.2,0,0.3-0.1
			l137.9-51c0.3-0.1,0.6-0.4,0.6-0.8L223.5,415.4C223.5,415.5,223.5,415.4,223.5,415.4z M23.1,434.3v-2.4l37.1,14.9c0,0,0,0,0,0
			l23.6,9.5v2.4L23.1,434.3z M77.8,397v18l-9.6,3.6v-20.3l6.7-2.5L77.8,397z M67,396.9c-0.3,0.1-0.6,0.4-0.6,0.8v22.1
			c0,0.3,0.1,0.5,0.4,0.7c0.1,0.1,0.3,0.2,0.5,0.2c0.1,0,0.2,0,0.3-0.1l11.3-4.2c0.3-0.1,0.6-0.4,0.6-0.8v-17.9l4.2,1.7V436
			l-22.3,8.7v-54.3l11.1,4.5L67,396.9z M95.3,395.8l6.6,2.6v35.9l-9.6-3.6V397L95.3,395.8z M91.1,432.1l11.3,4.3
			c0.1,0,0.2,0.1,0.3,0.1c0.2,0,0.3-0.1,0.5-0.2c0.2-0.2,0.4-0.4,0.4-0.7v-37.8c0-0.4-0.2-0.7-0.5-0.8l-5.3-2.1l11.4-4.2v54.4
			L85.4,436v-36.5l5.2-1.9v33.7C90.6,431.7,90.8,432,91.1,432.1z M84.7,454.7L62.9,446l21.7-8.5l23,8.8L84.7,454.7z M85.6,456.3
			l24.6-9.1c0,0,0.1,0,0.1,0c0,0,0,0,0.1,0c0,0,0,0,0,0l67.4-24.8v2.5l-92.2,34V456.3z M23.1,364.3l0-33.1l13.8,5.5l7.2,2.9v33.1
			L23.1,364.3z M83.8,353.4l-7-2.8v-24.8c0,0,0-0.1,0-0.1c0,0,0-0.1,0-0.1c0,0,0-0.1,0-0.1c0,0,0,0,0-0.1c0,0,0,0,0-0.1
			c0,0-0.1-0.1-0.1-0.1c0,0,0,0-0.1-0.1c0,0,0,0,0,0c0,0,0,0,0,0c-0.1-0.1-0.1-0.1-0.2-0.1l-14.6-5.9c0,0,0,0-0.1,0c0,0-0.1,0-0.1,0
			c0,0-0.1,0-0.1,0c0,0-0.1,0-0.1,0c0,0-0.1,0-0.1,0l-6.2,1.1c-0.1,0-0.2,0.1-0.3,0.1c0,0,0,0-0.1,0.1c-0.1,0-0.1,0.1-0.2,0.2
			c0,0,0,0,0,0c0,0,0,0,0,0c0,0.1-0.1,0.1-0.1,0.2c0,0,0,0.1,0,0.1c0,0,0,0,0,0c0,0.1,0,0.2,0,0.3c0,0,0,0,0,0l5.8,22.7l-14.3-5.7
			v-24.8v-35.6l38,46.5V353.4z M61.2,320.8l5.8,2.3l5.8,2.3l-0.8,0.1l-2.2,0.4l-8.1-3.3c0,0,0,0,0,0l-3.4-1.4L61.2,320.8z
			 M62.2,324.8l6.8,2.7l2.5,9.8l-9.3-3.7V324.8z M70.8,327.6l4-0.7l0.3-0.1v17.5L70.8,327.6z M60.5,324.1v14.4l-4.1-16L60.5,324.1z
			 M62.2,344.8v-9.3l9.8,3.9l2.7,10.4l-0.3-0.1L62.2,344.8z M30.3,308.6l5.2,2.1l6.3,2.5l-0.8,0.1l-2.2,0.4l-8.1-3.3c0,0,0,0,0,0
			l-3.4-1.4L30.3,308.6z M31.2,312.6l6.8,2.7l2.5,9.8l-9.3-3.7V312.6z M39.8,315.3l4-0.7l0.3-0.1v17.5L39.8,315.3z M29.5,311.9v14.4
			l-4.1-16L29.5,311.9z M31.2,332.5v-9.3l9.8,3.9l2.7,10.4l-6.3-2.5L31.2,332.5z M44.1,312.3l-13.4-5.4c0,0,0,0-0.1,0
			c0,0-0.1,0-0.1,0c0,0-0.1,0-0.1,0c0,0-0.1,0-0.1,0c0,0-0.1,0-0.1,0l-6.2,1.1c-0.1,0-0.2,0.1-0.3,0.1c0,0,0,0-0.1,0.1
			c-0.1,0-0.1,0.1-0.2,0.2c0,0,0,0,0,0c0,0,0,0,0,0c0,0.1-0.1,0.1-0.1,0.2c0,0,0,0.1,0,0.1c0,0,0,0,0,0c0,0.1,0,0.2,0,0.3
			c0,0,0,0,0,0l5.8,22.7l-6-2.4l0-26.8c0,0,0,0,0-0.1v-3.6l21-21.8V312.3z M45.8,340.2l28.1,11.1l1.7,0.7c0,0,0,0,0,0c0,0,0,0,0.1,0
			l8.1,3.2v33.1l-38-15.1V340.2z M85.5,354.7C85.5,354.7,85.5,354.7,85.5,354.7v-28.1l8.6,10.6c0,0,0,0,0,0c0,0,0,0,0.1,0.1
			c0.2,0.1,0.3,0.2,0.5,0.2c0.1,0,0.2,0,0.3-0.1l71.4-27.4v48.9l-81,29.5V354.7z M48.5,265.5l50.8,62.7l-4.2,1.6l-51-62.6
			L48.5,265.5z M54.8,263.1l50.8,62.7l-4.6,1.8l-50.8-62.7L54.8,263.1z M61.1,260.6l50.8,62.7l-4.6,1.8l-50.8-62.7L61.1,260.6z
			 M67.5,258.2l50.8,62.7l-4.6,1.8L62.8,260L67.5,258.2z M73.8,255.8l50.7,62.7l-4.6,1.8l-50.8-62.7L73.8,255.8z M80.1,253.4
			l50.7,62.7l-4.6,1.8l-50.8-62.7L80.1,253.4z M86.5,251l50.7,62.8l-4.6,1.8l-50.7-62.7L86.5,251z M92.8,248.6l50.7,62.8l-4.6,1.8
			l-50.7-62.8L92.8,248.6z M99.1,246.2l50.7,62.8l-4.6,1.8l-50.7-62.8L99.1,246.2z M105.4,243.7l50.7,62.8l-4.6,1.8l-50.7-62.8
			L105.4,243.7z M111.8,241.3l50.7,62.8l-4.6,1.8l-50.7-62.8L111.8,241.3z M118.1,238.9l50.7,62.8l-4.6,1.8l-50.7-62.8L118.1,238.9z
			 M124.4,236.5l50.6,62.8l-4.6,1.8l-50.7-62.8L124.4,236.5z M130.8,234.1l50.6,62.9l-4.6,1.8l-50.7-62.8L130.8,234.1z M137.1,231.7
			l50.6,62.9l-4.6,1.8l-50.6-62.9L137.1,231.7z M143.4,229.2l50.6,62.9l-4.6,1.8L138.8,231L143.4,229.2z M149.7,226.8l50.6,62.9
			l-4.6,1.8l-50.6-62.9L149.7,226.8z M156.1,224.4l50.6,62.9l-4.6,1.8l-50.6-62.9L156.1,224.4z M162.1,222.1l50.5,63l-4.2,1.6
			l-50.6-62.9L162.1,222.1z M179.5,421.1v-2.2l18.4-6.8v2.5l-18.4,6.8V421.1z M197.9,410.3l-18.4,6.8v-16.1v-86v-3.1l18.4-7V410.3z
			 M198.5,302.7c0,0-0.1,0-0.1,0.1l-20,7.6c-0.3,0.1-0.6,0.4-0.6,0.8v3.7v86v19.6l-9.5,3.5V309.3c0,0,0,0,0,0l31.7-12.2v5
			L198.5,302.7z M200.5,295.1C200.5,295.1,200.5,295.1,200.5,295.1C200.5,295.1,200.5,295.1,200.5,295.1L95.7,335.3v-4l5.3-2
			c0,0,0,0,0,0l112.1-42.6v3.6L200.5,295.1z M42.7,268.1l51.3,63v3.1l-8.4-10.3v-0.1c0-0.4-0.3-0.8-0.8-0.8l-42-51.4
			c-0.2-0.2-0.4-0.3-0.6-0.3c-0.2,0-0.5,0.1-0.7,0.3L8.2,305.9V304L42.7,268.1z M10.6,305.8l31.4-32.5l1.5,1.8l-21.9,22.7
			c-0.2,0.2-0.2,0.4-0.2,0.6v3.3L10.6,305.8z M23.1,366.1l61.3,24.3c0,0,0,0,0,0c0.1,0,0.2,0.1,0.3,0.1c0.1,0,0.2,0,0.3,0
			c0,0,0,0,0,0l81.6-29.7v63.9l-55.7,20.5v-55.6c0-0.3-0.1-0.5-0.4-0.7c-0.2-0.2-0.5-0.2-0.8-0.1l-25,9.3l-23.8-9.6
			c-0.3-0.1-0.6-0.1-0.8,0.1c-0.2,0.2-0.4,0.4-0.4,0.7v55.6L23.1,430l0-22.8l25.3,10.1c0.3,0.1,0.6,0.1,0.8-0.1
			c0.2-0.2,0.4-0.4,0.4-0.7v-18.1c0-0.4-0.2-0.7-0.5-0.8l-26-10.4V366.1z M47.9,399.1v16.2l-23-9.2v-16.2L47.9,399.1z M21.4,431.2
			v3.7c0,0.4,0.2,0.7,0.5,0.8l62.5,25c0,0,0,0,0,0l0,0c0.1,0,0.2,0.1,0.3,0.1c0.1,0,0.2,0,0.3-0.1l93.9-34.6
			c0.3-0.1,0.6-0.4,0.6-0.8v-2.2L199,416c0.3-0.1,0.6-0.4,0.6-0.8v-4.3v-3.7l20.6,8.3L84.7,465.5l-75-30.1L21.4,431.2z M84.7,472.4
			L8.2,441.7v-5l76.2,30.5c0.1,0,0.2,0.1,0.3,0.1c0.1,0,0.2,0,0.3-0.1l136.7-50.6v5.1L84.7,472.4z"/>
	 	<!-- /Phase #1: Black outlines -->
  </g><!-- /phase #1: house-->
  
  	<g class="phase-1__tooltip">
    	<!-- Phase #1: Text -->
    	<g class="phase-1__tooltip-text">
      <path d="M73.4,145.2c-0.2-0.2-0.5-0.3-0.8-0.5s-0.6-0.2-0.9-0.3c-0.2-0.1-0.5-0.2-0.7-0.3c-0.2-0.1-0.4-0.2-0.6-0.3
				c-0.2-0.1-0.3-0.2-0.4-0.4c-0.1-0.1-0.1-0.3-0.1-0.5c0-0.2,0-0.4,0.1-0.6c0.1-0.2,0.2-0.3,0.3-0.4c0.1-0.1,0.3-0.2,0.5-0.2
				c0.2,0,0.4-0.1,0.6-0.1c0.2,0,0.5,0,0.7,0.1c0.2,0.1,0.4,0.2,0.6,0.3c0.2,0.1,0.3,0.3,0.4,0.5c0.1,0.2,0.1,0.4,0.1,0.7h0.7v-2.2
				h-0.7v0.8c-0.2-0.3-0.4-0.5-0.7-0.7c-0.3-0.2-0.7-0.2-1-0.2c-0.3,0-0.6,0-0.9,0.1c-0.3,0.1-0.5,0.2-0.8,0.4
				c-0.2,0.2-0.4,0.4-0.5,0.6c-0.1,0.2-0.2,0.5-0.2,0.8c0,0.4,0.1,0.6,0.2,0.9c0.1,0.2,0.3,0.4,0.5,0.6c0.2,0.2,0.5,0.3,0.7,0.4
				c0.3,0.1,0.6,0.2,0.8,0.3c0.2,0.1,0.5,0.2,0.7,0.3c0.2,0.1,0.4,0.2,0.6,0.3c0.2,0.1,0.3,0.3,0.4,0.5c0.1,0.2,0.2,0.4,0.2,0.6
				c0,0.2,0,0.4-0.1,0.6c-0.1,0.2-0.2,0.3-0.3,0.4c-0.1,0.1-0.3,0.2-0.5,0.3c-0.2,0.1-0.4,0.1-0.6,0.1c-0.3,0-0.5,0-0.8-0.1
				c-0.2-0.1-0.5-0.2-0.6-0.4c-0.2-0.2-0.3-0.3-0.5-0.6c-0.1-0.2-0.2-0.5-0.2-0.7H69v2.3h0.7V148c0.2,0.3,0.5,0.6,0.9,0.7
				c0.4,0.2,0.8,0.2,1.2,0.2c0.3,0,0.6-0.1,0.9-0.2c0.3-0.1,0.5-0.2,0.8-0.4c0.2-0.2,0.4-0.4,0.5-0.7c0.1-0.3,0.2-0.6,0.2-0.9
				c0-0.4-0.1-0.7-0.2-0.9C73.8,145.6,73.6,145.4,73.4,145.2z"/>
			<polygon points="75.4,143.7 76.1,143.7 76.1,141.8 77.8,141.8 77.8,148.1 76.5,148.1 76.5,148.8 79.8,148.8 79.8,148.1 
				78.6,148.1 78.6,141.8 80.2,141.8 80.2,143.7 80.9,143.7 80.9,141.1 75.4,141.1 			"/>
			<path d="M84.2,141.1l-2.6,7.7h0.9l0.7-2.2h3l0.7,2.2h0.9l-2.6-7.7H84.2z M83.5,145.9l1.3-4l1.3,4H83.5z"/>
			<path d="M92.7,145.3c0.3-0.1,0.5-0.3,0.7-0.4c0.2-0.2,0.4-0.4,0.5-0.7c0.1-0.3,0.2-0.5,0.2-0.9c0-0.7-0.2-1.3-0.7-1.6
				c-0.5-0.4-1.1-0.6-2-0.6h-2.5v7.7h0.8v-3.3h1.2l2.2,3.3h1l-2.3-3.3C92.2,145.5,92.4,145.4,92.7,145.3z M89.7,144.8v-3h1.7
				c0.6,0,1,0.1,1.3,0.4c0.3,0.2,0.5,0.6,0.5,1.1c0,0.5-0.2,0.9-0.5,1.1c-0.3,0.2-0.8,0.4-1.3,0.4H89.7z"/>
			<polygon points="95.2,141.1 95.2,143.7 95.9,143.7 95.9,141.8 97.5,141.8 97.5,148.1 96.3,148.1 96.3,148.8 99.6,148.8 
				99.6,148.1 98.3,148.1 98.3,141.8 100,141.8 100,143.7 100.6,143.7 100.6,141.1 			"/>
			<path d="M73.4,159c-0.2-0.2-0.5-0.3-0.8-0.5s-0.6-0.2-0.9-0.3c-0.2-0.1-0.5-0.2-0.7-0.3c-0.2-0.1-0.4-0.2-0.6-0.3
				c-0.2-0.1-0.3-0.2-0.4-0.4c-0.1-0.1-0.1-0.3-0.1-0.5c0-0.2,0-0.4,0.1-0.6c0.1-0.2,0.2-0.3,0.3-0.4c0.1-0.1,0.3-0.2,0.5-0.2
				c0.2,0,0.4-0.1,0.6-0.1c0.2,0,0.5,0,0.7,0.1c0.2,0.1,0.4,0.2,0.6,0.3c0.2,0.1,0.3,0.3,0.4,0.5c0.1,0.2,0.1,0.4,0.1,0.7h0.7v-2.2
				h-0.7v0.8c-0.2-0.3-0.4-0.5-0.7-0.7c-0.3-0.2-0.7-0.2-1-0.2c-0.3,0-0.6,0-0.9,0.1c-0.3,0.1-0.5,0.2-0.8,0.4
				c-0.2,0.2-0.4,0.4-0.5,0.6c-0.1,0.2-0.2,0.5-0.2,0.8c0,0.4,0.1,0.6,0.2,0.9c0.1,0.2,0.3,0.4,0.5,0.6c0.2,0.2,0.5,0.3,0.7,0.4
				c0.3,0.1,0.6,0.2,0.8,0.3c0.2,0.1,0.5,0.2,0.7,0.3c0.2,0.1,0.4,0.2,0.6,0.3c0.2,0.1,0.3,0.3,0.4,0.5c0.1,0.2,0.2,0.4,0.2,0.6
				c0,0.2,0,0.4-0.1,0.6c-0.1,0.2-0.2,0.3-0.3,0.4c-0.1,0.1-0.3,0.2-0.5,0.3c-0.2,0.1-0.4,0.1-0.6,0.1c-0.3,0-0.5,0-0.8-0.1
				c-0.2-0.1-0.5-0.2-0.6-0.4s-0.3-0.3-0.5-0.6c-0.1-0.2-0.2-0.5-0.2-0.7H69v2.3h0.7v-0.8c0.2,0.3,0.5,0.6,0.9,0.7
				c0.4,0.2,0.8,0.2,1.2,0.2c0.3,0,0.6-0.1,0.9-0.2c0.3-0.1,0.5-0.2,0.8-0.4c0.2-0.2,0.4-0.4,0.5-0.7c0.1-0.3,0.2-0.6,0.2-0.9
				c0-0.4-0.1-0.7-0.2-0.9C73.8,159.4,73.6,159.2,73.4,159z"/>
			<polygon points="78.2,158.9 76.8,154.9 75.7,154.9 75.7,162.6 76.5,162.6 76.5,156.2 77.9,160.1 78.5,160.1 79.8,156.2 
			79.8,162.6 80.6,162.6 80.6,154.9 79.6,154.9 			"/>
			<path d="M84.2,154.9l-2.6,7.7h0.9l0.7-2.2h3l0.7,2.2h0.9l-2.6-7.7H84.2z M83.5,159.7l1.3-4l1.3,4H83.5z"/>
			<polygon points="89.7,154.9 88.9,154.9 88.9,162.6 93.8,162.6 93.8,161.9 89.7,161.9 			"/>
			<polygon points="96.3,154.9 95.5,154.9 95.5,162.6 100.4,162.6 100.4,161.9 96.3,161.9 			"/>
		</g><!-- /phase-1__tooltip-text-->

      	<!-- Phase #1: Tooltip background -->
        <g class="phase-1__tooltip-bg">
        	<path fill="#ECC05F" d="M106,182.3L106,182.3c11.4,11.4,11.4,29.9,0,41.3l-20.7,20.7l-20.7-20.7c-11.4-11.4-11.4-29.9,0-41.3l0,0
                  C76,170.9,94.6,170.9,106,182.3z"/>
          	<g class="phase-1__tooltip-bg-icon">
	            <path fill="#3F3434" d="M81.7,193.3c0.1,1.1,1.1,2,2.2,2h2.9c1.1,0,2.1-0.8,2.2-1.9l0.8-5c0.1-1.2-0.3-2.5-1.1-3.4
	              c-0.8-0.9-2-1.5-3.3-1.5c-1.3,0-2.5,0.5-3.3,1.5c-0.8,0.9-1.2,2.2-1.1,3.5L81.7,193.3z M82.6,185.4c0.7-0.8,1.6-1.2,2.7-1.2
	              c1,0,2,0.4,2.7,1.2c0.7,0.8,1,1.8,0.9,2.8l-0.8,5c-0.1,0.7-0.7,1.2-1.3,1.2h-2.9c-0.7,0-1.3-0.5-1.3-1.2l-0.8-4.9
	              C81.6,187.2,82,186.2,82.6,185.4z"/>
	            <path fill="#3F3434" d="M103.4,208.8l-9.8-12.2c-0.1-0.1-0.2-0.2-0.3-0.2H77.3c-0.1,0-0.3,0.1-0.3,0.2l-9.8,12.2
	              c-0.1,0.2-0.1,0.4,0,0.6l10.3,10.9c0.1,0.1,0.3,0.2,0.5,0.1c0.2-0.1,0.3-0.3,0.2-0.4l-0.5-5c0-0.1,0-0.1-0.1-0.2l-4-5.6l4.4-3.9
	              l1.8,16.1c0,0.2,0.2,0.4,0.4,0.4h9.8c0.2,0,0.4-0.2,0.4-0.4l1.8-16.1l4.4,3.9l-4,5.6c0,0.1-0.1,0.1-0.1,0.2l-0.5,5
	              c0,0.2,0.1,0.4,0.2,0.4c0.2,0.1,0.4,0,0.5-0.1l10.3-10.9C103.5,209.2,103.5,209,103.4,208.8z M93.2,218.8l0.4-3.6l4.2-5.8
	              c0.1-0.2,0.1-0.4-0.1-0.6l-5.3-4.7c-0.1-0.1-0.3-0.1-0.4-0.1c-0.1,0.1-0.3,0.2-0.3,0.4l-1.8,16.5h-9.1l-1.8-16.5
	              c0-0.2-0.1-0.3-0.3-0.4c-0.1-0.1-0.3,0-0.4,0.1l-5.3,4.7c-0.2,0.1-0.2,0.4-0.1,0.6l4.2,5.8l0.4,3.6l-9.2-9.7l9.4-11.8h15.5
	              l9.4,11.8L93.2,218.8z"/>
          	</g><!-- /phase-1__tooltip-bg-icon-->
        </g><!-- /phase-1__tooltip-bg-->
  	</g><!-- /Phase #1: Tooltip -->
</g><!-- /Phase #1-->
  
<g class="phase-2">
	<g class="phase-2__tooltip">
		<g class="phase-2__tooltip-text">
			<path d="M428.8,264.1c0,0.3,0,0.6-0.1,0.8c0,0.3-0.1,0.5-0.2,0.8c-0.1,0.2-0.3,0.4-0.5,0.6c-0.2,0.1-0.5,0.2-0.9,0.2
				c-0.5,0-0.9-0.1-1.2-0.4c-0.3-0.3-0.6-0.7-0.8-1.3l-0.7,0.3c0.2,0.7,0.5,1.3,1,1.6c0.5,0.4,1,0.5,1.7,0.5c0.9,0,1.5-0.3,1.9-0.8
				c0.4-0.5,0.6-1.3,0.6-2.3v-4.7h-0.8V264.1z"/>
			<path d="M436,260.5c-0.2-0.4-0.5-0.7-0.9-0.9c-0.4-0.2-0.8-0.3-1.4-0.3c-0.5,0-1,0.1-1.4,0.3c-0.4,0.2-0.7,0.5-0.9,0.9
				c-0.2,0.4-0.4,0.8-0.5,1.3c-0.1,0.5-0.2,1-0.2,1.5s0.1,1,0.2,1.5c0.1,0.5,0.3,0.9,0.5,1.3c0.2,0.4,0.5,0.7,0.9,0.9
				c0.4,0.2,0.8,0.3,1.4,0.3c0.5,0,1-0.1,1.4-0.3c0.4-0.2,0.7-0.5,0.9-0.9c0.2-0.4,0.4-0.8,0.5-1.3c0.1-0.5,0.2-1,0.2-1.5
				s-0.1-1-0.2-1.5C436.4,261.3,436.2,260.8,436,260.5z M435.8,264.4c-0.1,0.4-0.2,0.7-0.3,1.1c-0.2,0.3-0.4,0.6-0.7,0.8
				c-0.3,0.2-0.6,0.3-1,0.3c-0.4,0-0.8-0.1-1-0.3c-0.3-0.2-0.5-0.5-0.7-0.8c-0.2-0.3-0.3-0.7-0.3-1.1c-0.1-0.4-0.1-0.8-0.1-1.2
				c0-0.4,0-0.8,0.1-1.2s0.2-0.7,0.3-1.1c0.2-0.3,0.4-0.6,0.7-0.8s0.6-0.3,1-0.3c0.3,0,0.6,0.1,0.9,0.2c0.3,0.2,0.5,0.4,0.7,0.7
				c0.2,0.3,0.3,0.6,0.4,1c0.1,0.4,0.1,0.9,0.1,1.4C435.8,263.6,435.8,264,435.8,264.4z"/>
			<path d="M442.3,266.5c0.5-0.4,0.7-0.9,0.7-1.6c0-0.9-0.5-1.6-1.5-1.9c0.8-0.3,1.2-0.8,1.2-1.6c0-0.4-0.1-0.8-0.2-1
				c-0.2-0.3-0.4-0.5-0.6-0.6c-0.2-0.1-0.5-0.2-0.8-0.3c-0.3-0.1-0.6-0.1-0.9-0.1h-2.3v7.7h2.4C441.2,267.1,441.8,266.9,442.3,266.5
				z M438.6,260.1h1.5c0.2,0,0.4,0,0.6,0.1c0.2,0,0.4,0.1,0.6,0.2c0.2,0.1,0.3,0.2,0.4,0.4c0.1,0.2,0.2,0.4,0.2,0.7
				c0,0.3-0.1,0.5-0.2,0.7s-0.2,0.3-0.4,0.4c-0.2,0.1-0.4,0.2-0.6,0.2c-0.2,0-0.4,0-0.6,0h-1.5V260.1z M438.6,263.3h1.6
				c0.6,0,1.1,0.1,1.4,0.4c0.3,0.2,0.5,0.6,0.5,1.2c0,0.5-0.2,0.9-0.5,1.1c-0.3,0.3-0.8,0.4-1.4,0.4h-1.6V263.3z"/>
			<path d="M407.5,273.1H405v7.7h0.8v-3.3h1.7c0.8,0,1.5-0.2,1.9-0.5c0.5-0.4,0.7-0.9,0.7-1.7c0-0.7-0.2-1.3-0.7-1.6
				C409,273.3,408.3,273.1,407.5,273.1z M408.8,276.5c-0.3,0.2-0.8,0.4-1.3,0.4h-1.7v-3h1.7c0.6,0,1,0.1,1.3,0.4
				c0.3,0.2,0.5,0.6,0.5,1.1S409.2,276.3,408.8,276.5z"/>
			<path d="M415.4,277.3c0.3-0.1,0.5-0.3,0.7-0.4s0.4-0.4,0.5-0.7c0.1-0.3,0.2-0.5,0.2-0.9c0-0.7-0.2-1.3-0.7-1.6
				c-0.5-0.4-1.1-0.6-2-0.6h-2.5v7.7h0.8v-3.3h1.2l2.2,3.3h1l-2.3-3.3C414.8,277.5,415.1,277.4,415.4,277.3z M412.3,276.8v-3h1.7
				c0.6,0,1,0.1,1.3,0.4c0.3,0.2,0.5,0.6,0.5,1.1c0,0.5-0.2,0.9-0.5,1.1c-0.3,0.2-0.8,0.4-1.3,0.4H412.3z"/>
			<path d="M422.8,274.2c-0.2-0.4-0.5-0.7-0.9-0.9c-0.4-0.2-0.8-0.3-1.4-0.3c-0.5,0-1,0.1-1.4,0.3c-0.4,0.2-0.7,0.5-0.9,0.9
				c-0.2,0.4-0.4,0.8-0.5,1.3c-0.1,0.5-0.2,1-0.2,1.5s0.1,1,0.2,1.5c0.1,0.5,0.3,0.9,0.5,1.3c0.2,0.4,0.5,0.7,0.9,0.9
				c0.4,0.2,0.8,0.3,1.4,0.3c0.5,0,1-0.1,1.4-0.3c0.4-0.2,0.7-0.5,0.9-0.9c0.2-0.4,0.4-0.8,0.5-1.3c0.1-0.5,0.2-1,0.2-1.5
				s-0.1-1-0.2-1.5C423.2,275,423.1,274.6,422.8,274.2z M422.6,278.2c-0.1,0.4-0.2,0.7-0.3,1.1c-0.2,0.3-0.4,0.6-0.7,0.8
				c-0.3,0.2-0.6,0.3-1,0.3c-0.4,0-0.8-0.1-1-0.3c-0.3-0.2-0.5-0.5-0.7-0.8c-0.2-0.3-0.3-0.7-0.3-1.1c-0.1-0.4-0.1-0.8-0.1-1.2
				c0-0.4,0-0.8,0.1-1.2c0.1-0.4,0.2-0.7,0.3-1.1c0.2-0.3,0.4-0.6,0.7-0.8c0.3-0.2,0.6-0.3,1-0.3c0.3,0,0.6,0.1,0.9,0.2
				c0.3,0.2,0.5,0.4,0.7,0.7c0.2,0.3,0.3,0.6,0.4,1c0.1,0.4,0.1,0.9,0.1,1.4C422.7,277.4,422.7,277.8,422.6,278.2z"/>
			<polygon points="427.1,277.2 425.7,273.1 424.7,273.1 424.7,280.8 425.5,280.8 425.5,274.4 426.8,278.4 427.4,278.4 428.8,274.4 
				428.8,280.8 429.6,280.8 429.6,273.1 428.5,273.1 			"/>
			<path d="M436,274.2c-0.2-0.4-0.5-0.7-0.9-0.9c-0.4-0.2-0.8-0.3-1.4-0.3c-0.5,0-1,0.1-1.4,0.3c-0.4,0.2-0.7,0.5-0.9,0.9
				c-0.2,0.4-0.4,0.8-0.5,1.3c-0.1,0.5-0.2,1-0.2,1.5s0.1,1,0.2,1.5c0.1,0.5,0.3,0.9,0.5,1.3c0.2,0.4,0.5,0.7,0.9,0.9
				c0.4,0.2,0.8,0.3,1.4,0.3c0.5,0,1-0.1,1.4-0.3c0.4-0.2,0.7-0.5,0.9-0.9c0.2-0.4,0.4-0.8,0.5-1.3c0.1-0.5,0.2-1,0.2-1.5
				s-0.1-1-0.2-1.5C436.4,275,436.2,274.6,436,274.2z M435.8,278.2c-0.1,0.4-0.2,0.7-0.3,1.1c-0.2,0.3-0.4,0.6-0.7,0.8
				c-0.3,0.2-0.6,0.3-1,0.3c-0.4,0-0.8-0.1-1-0.3c-0.3-0.2-0.5-0.5-0.7-0.8c-0.2-0.3-0.3-0.7-0.3-1.1c-0.1-0.4-0.1-0.8-0.1-1.2
				c0-0.4,0-0.8,0.1-1.2s0.2-0.7,0.3-1.1c0.2-0.3,0.4-0.6,0.7-0.8c0.3-0.2,0.6-0.3,1-0.3c0.3,0,0.6,0.1,0.9,0.2
				c0.3,0.2,0.5,0.4,0.7,0.7c0.2,0.3,0.3,0.6,0.4,1c0.1,0.4,0.1,0.9,0.1,1.4C435.8,277.4,435.8,277.8,435.8,278.2z"/>
			<polygon points="437.6,275.7 438.2,275.7 438.2,273.8 439.9,273.8 439.9,280.1 438.6,280.1 438.6,280.8 441.9,280.8 441.9,280.1 
				440.7,280.1 440.7,273.8 442.3,273.8 442.3,275.7 443,275.7 443,273.1 437.6,273.1 			"/>
			<polygon points="445.2,273.8 446.5,273.8 446.5,280.1 445.2,280.1 445.2,280.8 448.5,280.8 448.5,280.1 447.3,280.1 447.3,273.8 
				448.5,273.8 448.5,273.1 445.2,273.1 			"/>
			<path d="M455.7,274.2c-0.2-0.4-0.5-0.7-0.9-0.9c-0.4-0.2-0.8-0.3-1.4-0.3s-1,0.1-1.4,0.3c-0.4,0.2-0.7,0.5-0.9,0.9
				c-0.2,0.4-0.4,0.8-0.5,1.3c-0.1,0.5-0.2,1-0.2,1.5s0.1,1,0.2,1.5c0.1,0.5,0.3,0.9,0.5,1.3c0.2,0.4,0.5,0.7,0.9,0.9
				c0.4,0.2,0.8,0.3,1.4,0.3s1-0.1,1.4-0.3c0.4-0.2,0.7-0.5,0.9-0.9c0.2-0.4,0.4-0.8,0.5-1.3c0.1-0.5,0.2-1,0.2-1.5s-0.1-1-0.2-1.5
				S456,274.6,455.7,274.2z M455.5,278.2c-0.1,0.4-0.2,0.7-0.3,1.1c-0.2,0.3-0.4,0.6-0.7,0.8c-0.3,0.2-0.6,0.3-1,0.3
				c-0.4,0-0.8-0.1-1-0.3c-0.3-0.2-0.5-0.5-0.7-0.8c-0.2-0.3-0.3-0.7-0.3-1.1c-0.1-0.4-0.1-0.8-0.1-1.2c0-0.4,0-0.8,0.1-1.2
				s0.2-0.7,0.3-1.1c0.2-0.3,0.4-0.6,0.7-0.8c0.3-0.2,0.6-0.3,1-0.3c0.3,0,0.6,0.1,0.9,0.2c0.3,0.2,0.5,0.4,0.7,0.7
				c0.2,0.3,0.3,0.6,0.4,1c0.1,0.4,0.1,0.9,0.1,1.4C455.6,277.4,455.5,277.8,455.5,278.2z"/>
			<polygon points="461.7,273.1 461.7,279.3 458.7,273.1 457.6,273.1 457.6,280.8 458.4,280.8 458.4,274.3 461.5,280.8 462.5,280.8 
				462.5,273.1 			"/>
		</g><!-- /phase-2__tooltip-text-->
		<g class="phase-2__tooltip-bg">
			<g class="phase-2__tooltip-bg">
				<path fill="#ECC05F" d="M454.9,341.6L454.9,341.6c-11.4,11.4-29.9,11.4-41.3,0l-20.7-20.7l20.7-20.7c11.4-11.4,29.9-11.4,41.3,0
					l0,0C466.4,311.6,466.4,330.2,454.9,341.6z"/>
			</g>
			<g class="phase-2__tooltip-bg-icon">
				<path fill="#3F3434" d="M439.3,332.8c0.1,0.1,0.2,0.1,0.3,0.1s0.2,0,0.3-0.1l10.1-10.1c0.2-0.2,0.2-0.4,0-0.6l-21.4-21.4
					c-0.2-0.2-0.4-0.2-0.6,0l-10.1,10.1c-0.2,0.2-0.2,0.4,0,0.6L439.3,332.8z M428.4,301.6l20.8,20.8l-9.5,9.5l-20.8-20.8
					L428.4,301.6z"/>
				<path fill="#3F3434" d="M430.8,313.6c-2.1,2.1-2.3,5.3-0.5,7.1c0.8,0.8,1.9,1.2,3.1,1.2c1.4,0,2.9-0.6,4-1.7
					c2.1-2.1,2.3-5.3,0.5-7.1C436.1,311.2,432.9,311.5,430.8,313.6z M436.7,319.5c-1.8,1.8-4.4,2-5.9,0.5c-1.5-1.5-1.2-4.1,0.5-5.9
					c1-1,2.2-1.5,3.4-1.5c0.9,0,1.8,0.3,2.5,1C438.7,315.1,438.5,317.8,436.7,319.5z"/>
				<path fill="#3F3434" d="M449.5,325.1l-9.8,9.8l-21.1-21.1c-0.2-0.2-0.4-0.2-0.6,0s-0.2,0.4,0,0.6l21.4,21.4
					c0.1,0.1,0.2,0.1,0.3,0.1s0.2,0,0.3-0.1l10.1-10.1c0.2-0.2,0.2-0.4,0-0.6C449.9,324.9,449.6,324.9,449.5,325.1z"/>
				<path fill="#3F3434" d="M449.5,328.2l-9.8,9.8L418.6,317c-0.2-0.2-0.4-0.2-0.6,0c-0.2,0.2-0.2,0.4,0,0.6l21.4,21.4
					c0.1,0.1,0.2,0.1,0.3,0.1s0.2,0,0.3-0.1l10.1-10.1c0.2-0.2,0.2-0.4,0-0.6C449.9,328.1,449.6,328.1,449.5,328.2z"/>
				<path fill="#3F3434" d="M449.5,331.3l-9.8,9.8l-21.1-21.1c-0.2-0.2-0.4-0.2-0.6,0c-0.2,0.2-0.2,0.4,0,0.6l21.4,21.4
					c0.1,0.1,0.2,0.1,0.3,0.1s0.2,0,0.3-0.1l10.1-10.1c0.2-0.2,0.2-0.4,0-0.6C449.9,331.2,449.6,331.2,449.5,331.3z"/>
			</g>
		</g><!-- /phase-2__tooltip-bg-->
	</g><!-- /phase-2__tooltip-->
	<g class="phase-2__house">
		<g class="phase-2__house-highlights">
			<polygon fill="#FFF3DF" points="359.8,315.6 356.8,327.3 353.5,339.6 368.2,334.3 368.2,322.9 368.2,312.4 			"/>
			<polygon fill="#FFF3DF" points="326.6,338.8 323.4,351.1 338.1,345.7 338.1,334.4 338.1,323.9 329.7,327 			"/>
		</g><!-- /phase-2__house-highlights-->
		<g class="phase-2__house-outlines">
			<path fill="#3F3434" d="M352.8,340c0,0.1,0.1,0.2,0.1,0.2c0,0,0,0,0,0c0,0,0.1,0.1,0.1,0.1c0,0,0,0,0,0c0,0,0.1,0,0.1,0.1
				c0.1,0,0.1,0,0.2,0.1c0,0,0,0,0.1,0c0,0,0.1,0,0.1,0h0l0,0c0,0,0,0,0,0c0.1,0,0.2,0,0.3-0.1c0,0,0,0,0,0l14.7-5.4
				c0.1,0,0.1-0.1,0.2-0.1c0,0,0,0,0,0c0.1-0.1,0.1-0.1,0.2-0.2c0,0,0,0,0-0.1c0-0.1,0.1-0.1,0.1-0.2c0,0,0,0,0,0l6.1-24.2
				c0-0.1,0-0.2,0-0.3c0,0,0,0,0,0c0,0,0-0.1,0-0.1c0-0.1,0-0.1-0.1-0.2c0,0,0,0,0,0c0,0,0,0,0,0c0-0.1-0.1-0.1-0.2-0.2
				c0,0,0,0-0.1-0.1c-0.1-0.1-0.2-0.1-0.3-0.1l-6.1-1.2c0,0-0.1,0-0.1,0c0,0-0.1,0-0.1,0c0,0-0.1,0-0.1,0c0,0-0.1,0-0.1,0
				c0,0,0,0-0.1,0l-14.7,5.5c-0.1,0-0.2,0.1-0.2,0.1c0,0,0,0,0,0l0,0c0,0,0,0,0,0c0,0,0,0-0.1,0.1c0,0-0.1,0.1-0.1,0.1
				c0,0,0,0.1,0,0.1c0,0,0,0,0,0.1c0,0,0,0.1,0,0.1c0,0,0,0.1,0,0.1c0,0,0,0.1,0,0.1v25.3C352.7,339.7,352.7,339.8,352.8,340
				C352.8,339.9,352.8,340,352.8,340z M368.3,309.8l3,0.6l-11.5,4.3l-3-0.6l-0.1,0l1.9-0.7L368.3,309.8z M360.6,316.2l6.8-2.6v8.6
				l-9.3,3.6L360.6,316.2z M369.1,313l4-1.5l-4,15.9V313z M357.4,316l1.4,0.3l-4.4,16.7v-17.6L357.4,316z M354.8,338.3l2.7-10.3
				l9.9-3.8v9.5L354.8,338.3z"/>
			<path fill="#3F3434" d="M322.7,325.3C322.7,325.3,322.6,325.4,322.7,325.3c-0.1,0.1-0.1,0.1-0.1,0.1c0,0,0,0.1,0,0.1
				c0,0,0,0.1,0,0.1c0,0,0,0.1,0,0.1v25.3c0,0.1,0,0.2,0.1,0.3c0,0,0,0,0,0.1c0,0.1,0.1,0.2,0.1,0.2c0,0,0,0,0,0
				c0,0,0.1,0.1,0.1,0.1c0,0,0,0,0,0c0,0,0.1,0,0.1,0.1c0.1,0,0.1,0,0.2,0.1c0,0,0,0,0.1,0c0,0,0.1,0,0.1,0h0l0,0h0
				c0.1,0,0.2,0,0.3-0.1c0,0,0,0,0,0l14.7-5.4c0.1,0,0.1-0.1,0.2-0.1c0,0,0,0,0,0c0.1-0.1,0.1-0.1,0.2-0.2c0,0,0,0,0-0.1
				c0-0.1,0.1-0.1,0.1-0.2c0,0,0,0,0,0l6.1-24.2c0-0.1,0-0.2,0-0.3c0,0,0,0,0,0c0,0,0-0.1,0-0.1c0-0.1,0-0.1-0.1-0.2c0,0,0,0,0,0
				c0,0,0,0,0,0c0-0.1-0.1-0.1-0.2-0.2c0,0,0,0-0.1-0.1c-0.1-0.1-0.2-0.1-0.3-0.1l-6.1-1.2c0,0-0.1,0-0.1,0c0,0-0.1,0-0.1,0
				c0,0-0.1,0-0.1,0c0,0-0.1,0-0.1,0c0,0-0.1,0-0.1,0l-14.7,5.5c-0.1,0-0.2,0.1-0.2,0.1c0,0,0,0,0,0l0,0c0,0,0,0,0,0
				c0,0,0,0-0.1,0.1C322.7,325.2,322.7,325.3,322.7,325.3z M338.1,321.2l3,0.6l-11.5,4.3l-3-0.6l-0.1,0l3.6-1.3L338.1,321.2z
				 M330.4,327.7l6.8-2.6v8.6l-9.3,3.6L330.4,327.7z M338.9,324.5l4-1.5l-4,15.9V324.5z M327.2,327.4l1.4,0.3l-4.4,16.7v-17.6
				L327.2,327.4z M324.6,349.7l2.7-10.3l9.9-3.8v9.5L324.6,349.7z"/>
			<path fill="#3F3434" d="M384.4,289.2c0-0.1,0-0.2-0.1-0.3c0,0,0-0.1,0-0.1c0-0.1-0.1-0.1-0.1-0.2c0,0,0-0.1-0.1-0.1
				c-0.1-0.1-0.1-0.1-0.2-0.1c0,0,0,0-0.1,0c0,0,0,0,0,0l-66.2-25.2c-0.4-0.2-0.9,0.1-1.1,0.5c-0.2,0.4,0.1,0.9,0.5,1.1l64.1,24.3
				l-77,27.9l-61.9-24.8l64.5-24.5c0.4-0.2,0.7-0.7,0.5-1.1c-0.2-0.4-0.7-0.7-1.1-0.5l-66.5,25.2c-0.2,0.1-0.4,0.3-0.5,0.5
				c0,0,0,0,0,0c0,0.1-0.1,0.2-0.1,0.3v60.2v6c0,0.4,0.2,0.7,0.5,0.8l7.3,2.9c0.1,0,0.2,0.1,0.3,0.1c0.3,0,0.7-0.2,0.8-0.5
				c0.2-0.4,0-0.9-0.5-1.1l-6.8-2.7v-4.1l12.8,5.2c0.1,0,0.2,0.1,0.3,0.1c0.3,0,0.7-0.2,0.8-0.5c0.2-0.4,0-0.9-0.5-1.1l-13.5-5.4
				v-58.4l62.4,25V377l-37-14.8c-0.4-0.2-0.9,0-1.1,0.5c-0.2,0.4,0,0.9,0.5,1.1l37.6,15.1v4.2l-44.6-17.9c-0.4-0.2-0.9,0-1.1,0.5
				c-0.2,0.4,0,0.9,0.5,1.1l45.8,18.4c0,0,0,0,0,0l0,0c0.1,0,0.2,0.1,0.3,0.1c0.1,0,0.2,0,0.3-0.1l79.4-28.8
				c0.3-0.1,0.6-0.4,0.6-0.8v-6L384.4,289.2C384.4,289.2,384.4,289.2,384.4,289.2z M382.7,290.5v58.4L305,377.1v-58.4L382.7,290.5z
				 M305,383.1v-4.2l77.7-28.2v4.2L305,383.1z"/>
			<path fill="#3F3434" d="M271.4,361.4l28.1,11.3c0.1,0,0.2,0.1,0.3,0.1c0.2,0,0.3-0.1,0.5-0.1c0.2-0.2,0.4-0.4,0.4-0.7v-51
				c0-0.4-0.2-0.7-0.5-0.8l-55.5-22.3c0,0,0,0,0,0l0,0c-0.1,0-0.1,0-0.2,0c0,0-0.1,0-0.1,0c0,0,0,0,0,0c-0.1,0-0.2,0-0.3,0.1
				c0,0,0,0,0,0c-0.1,0-0.1,0.1-0.2,0.1c0,0-0.1,0-0.1,0.1c0,0,0,0,0,0c-0.1,0.1-0.1,0.1-0.2,0.2c0,0,0,0,0,0c0,0,0,0.1,0,0.1
				c0,0.1,0,0.1,0,0.2v51c0,0.1,0,0.2,0.1,0.3c0,0,0,0,0,0c0,0,0,0.1,0,0.1c0,0,0,0.1,0.1,0.1c0,0,0.1,0.1,0.1,0.1
				c0,0,0.1,0.1,0.1,0.1c0,0,0.1,0,0.1,0.1c0,0,0,0,0.1,0l15.9,6.4c0.1,0,0.2,0.1,0.3,0.1c0.3,0,0.7-0.2,0.8-0.5
				c0.2-0.4,0-0.9-0.5-1.1l-13.9-5.6l52.3-20.1v41.1l-27-10.8c-0.4-0.2-0.9,0-1.1,0.5C270.7,360.8,270.9,361.3,271.4,361.4z
				 M245.1,348.4V300l53.8,21.6v6.2L245.1,348.4z"/>
			<path fill="#3F3434" d="M221,373.9l-1.7,0.6v-5.3l-5.9,7.9l5.9,3.9v-4.7l2.3-0.8c0.4-0.2,0.7-0.7,0.5-1.1
				C221.9,374,221.4,373.7,221,373.9z"/>
			<path fill="#3F3434" d="M239.3,367.2l-4.6,1.7c-0.4,0.2-0.7,0.7-0.5,1.1c0.1,0.3,0.5,0.6,0.8,0.6c0.1,0,0.2,0,0.3-0.1l4.6-1.7
				c0.4-0.2,0.7-0.7,0.5-1.1C240.2,367.3,239.7,367.1,239.3,367.2z"/>
			<path fill="#3F3434" d="M230.1,370.6l-4.6,1.7c-0.4,0.2-0.7,0.7-0.5,1.1c0.1,0.3,0.5,0.6,0.8,0.6c0.1,0,0.2,0,0.3-0.1l4.6-1.7
				c0.4-0.2,0.7-0.7,0.5-1.1C231.1,370.6,230.6,370.4,230.1,370.6z"/>
			<path fill="#3F3434" d="M248.4,363.9l-4.6,1.7c-0.4,0.2-0.7,0.7-0.5,1.1c0.1,0.3,0.5,0.6,0.8,0.6c0.1,0,0.2,0,0.3-0.1l4.6-1.7
				c0.4-0.2,0.7-0.7,0.5-1.1C249.4,364,248.9,363.7,248.4,363.9z"/>
			<path fill="#3F3434" d="M266.7,357.2l-4.6,1.7c-0.4,0.2-0.7,0.7-0.5,1.1c0.1,0.3,0.5,0.6,0.8,0.6c0.1,0,0.2,0,0.3-0.1l4.6-1.7
				c0.4-0.2,0.7-0.7,0.5-1.1C267.7,357.3,267.2,357.1,266.7,357.2z"/>
			<path fill="#3F3434" d="M271.6,357.2c0.1,0,0.2,0,0.3-0.1l4.6-1.7c0.4-0.2,0.7-0.7,0.5-1.1c-0.2-0.4-0.7-0.7-1.1-0.5l-4.6,1.7
				c-0.4,0.2-0.7,0.7-0.5,1.1C270.9,357,271.2,357.2,271.6,357.2z"/>
			<path fill="#3F3434" d="M258.7,361.1c-0.2-0.4-0.7-0.7-1.1-0.5l-4.6,1.7c-0.4,0.2-0.7,0.7-0.5,1.1c0.1,0.3,0.5,0.6,0.8,0.6
				c0.1,0,0.2,0,0.3-0.1l4.6-1.7C258.6,362,258.8,361.5,258.7,361.1z"/>
			<path fill="#3F3434" d="M280.7,353.9c0.1,0,0.2,0,0.3-0.1l2.4-0.9c0.4-0.2,0.7-0.7,0.5-1.1c-0.2-0.4-0.7-0.7-1.1-0.5l-2.4,0.9
				c-0.4,0.2-0.7,0.7-0.5,1.1C280.1,353.7,280.4,353.9,280.7,353.9z"/>
		</g>
	</g><!-- /phase-2__house-->
</g><!-- /phase-2-->

<g class="phase-3">
	<g class="phase-3__tooltip">
		<g class="phase-3__tooltip-text">
			<polygon points="274.8,13.6 279.7,13.6 279.7,12.9 275.6,12.9 275.6,10.1 278.6,10.1 278.6,9.4 275.6,9.4 275.6,6.6 279.7,6.6 
				279.7,5.9 274.8,5.9 			"/>
			<polygon points="284.5,13.6 286.7,13.6 286.7,12.9 286,12.9 284.3,9.7 285.9,6.6 286.6,6.6 286.6,5.9 284.4,5.9 284.4,6.6 
				285,6.6 283.9,9.1 282.7,6.6 283.3,6.6 283.3,5.9 281.1,5.9 281.1,6.6 281.7,6.6 283.4,9.7 281.7,12.9 281,12.9 281,13.6 
				283.2,13.6 283.2,12.9 282.6,12.9 283.9,10.4 285.1,12.9 284.5,12.9 			"/>
			<path d="M293.2,8.1c0-0.7-0.2-1.3-0.7-1.6c-0.5-0.4-1.1-0.6-2-0.6H288v7.7h0.8v-3.3h1.7c0.8,0,1.5-0.2,1.9-0.5
				C292.9,9.4,293.2,8.9,293.2,8.1z M291.8,9.3c-0.3,0.2-0.8,0.4-1.3,0.4h-1.7v-3h1.7c0.6,0,1,0.1,1.3,0.4c0.3,0.2,0.5,0.6,0.5,1.1
				S292.2,9,291.8,9.3z"/>
			<path d="M295.5,11.4h3l0.7,2.2h0.9l-2.6-7.7h-1.1l-2.6,7.7h0.9L295.5,11.4z M297,6.7l1.3,4h-2.6L297,6.7z"/>
			<polygon points="306,5.9 305.2,5.9 305.2,12.1 302.3,5.9 301.1,5.9 301.1,13.6 301.9,13.6 301.9,7.1 305,13.6 306,13.6 			"/>
			<path d="M312.5,12.5c0.2-0.4,0.4-0.8,0.5-1.2c0.1-0.5,0.2-1,0.2-1.5s-0.1-1-0.2-1.5c-0.1-0.5-0.3-0.9-0.5-1.2s-0.5-0.6-0.9-0.8
				c-0.4-0.2-0.8-0.3-1.3-0.3h-2.5v7.7h2.5c0.5,0,1-0.1,1.4-0.3C311.9,13.1,312.2,12.8,312.5,12.5z M310.2,12.9h-1.7V6.6h1.7
				c0.7,0,1.2,0.3,1.6,0.8c0.4,0.6,0.6,1.3,0.6,2.3s-0.2,1.8-0.6,2.3C311.4,12.7,310.9,12.9,310.2,12.9z"/>
			<polygon points="318.4,12.9 317.1,12.9 317.1,6.6 318.4,6.6 318.4,5.9 315.1,5.9 315.1,6.6 316.3,6.6 316.3,12.9 315.1,12.9 
				315.1,13.6 318.4,13.6 			"/>
			<polygon points="325,12.1 322,5.9 320.9,5.9 320.9,13.6 321.7,13.6 321.7,7.1 324.8,13.6 325.8,13.6 325.8,5.9 325,5.9 			"/>
			<path d="M330.4,9.6v0.7h1.7c-0.1,0.9-0.3,1.5-0.6,2c-0.4,0.5-0.8,0.7-1.5,0.7c-0.4,0-0.8-0.1-1-0.3c-0.3-0.2-0.5-0.5-0.7-0.8
				c-0.2-0.3-0.3-0.7-0.3-1.1c-0.1-0.4-0.1-0.8-0.1-1.2c0-0.4,0-0.8,0.1-1.2c0.1-0.4,0.2-0.7,0.3-1.1c0.2-0.3,0.4-0.6,0.7-0.8
				c0.3-0.2,0.6-0.3,1-0.3c0.3,0,0.5,0.1,0.8,0.1c0.2,0.1,0.4,0.2,0.6,0.4c0.2,0.2,0.3,0.4,0.4,0.6c0.1,0.2,0.2,0.5,0.2,0.8h0.7V5.9
				h-0.7v0.9c-0.2-0.3-0.4-0.6-0.7-0.8c-0.3-0.2-0.7-0.3-1.2-0.3c-0.5,0-1,0.1-1.4,0.3c-0.4,0.2-0.7,0.5-0.9,0.9
				c-0.2,0.4-0.4,0.8-0.5,1.3c-0.1,0.5-0.2,1-0.2,1.5s0.1,1,0.2,1.5c0.1,0.5,0.3,0.9,0.5,1.3c0.2,0.4,0.5,0.7,0.9,0.9
				c0.4,0.2,0.8,0.3,1.4,0.3c0.5,0,1-0.1,1.4-0.3c0.4-0.2,0.7-0.5,0.9-0.9c0.2-0.4,0.4-0.8,0.5-1.3c0.1-0.5,0.2-1,0.2-1.5V9.6H330.4
				z"/>
			<polygon points="284.7,27.4 285.5,27.4 285.5,23.8 288.5,23.8 288.5,23.1 285.5,23.1 285.5,20.4 289.6,20.4 289.6,19.7 
				284.7,19.7 			"/>
			<path d="M293.2,19.7l-2.6,7.7h0.9l0.7-2.2h3l0.7,2.2h0.9l-2.6-7.7H293.2z M292.4,24.5l1.3-4l1.3,4H292.4z"/>
			<polygon points="300.3,23.7 298.9,19.7 297.8,19.7 297.8,27.4 298.6,27.4 298.6,21 300,24.9 300.6,24.9 301.9,21 301.9,27.4 
				302.7,27.4 302.7,19.7 301.7,19.7 			"/>
			<polygon points="305.2,20.4 306.5,20.4 306.5,26.7 305.2,26.7 305.2,27.4 308.5,27.4 308.5,26.7 307.3,26.7 307.3,20.4 
				308.5,20.4 308.5,19.7 305.2,19.7 			"/>
			<polygon points="311.8,19.7 311,19.7 311,27.4 315.9,27.4 315.9,26.7 311.8,26.7 			"/>
			<polygon points="320.7,20.4 321.4,20.4 320,23.3 318.7,20.4 319.3,20.4 319.3,19.7 317.2,19.7 317.2,20.4 317.8,20.4 319.6,24.1 
				319.6,26.7 318.4,26.7 318.4,27.4 321.7,27.4 321.7,26.7 320.4,26.7 320.4,24.1 322.3,20.4 322.9,20.4 322.9,19.7 320.7,19.7 			
				"/>
		</g><!-- /phase-3__tooltip-text-->

		<g class="phase-3__tooltip-bg">
			<path fill="#ECC05F" d="M324.5,47.3L324.5,47.3c11.4,11.4,11.4,29.9,0,41.3l-20.7,20.7l-20.7-20.7c-11.4-11.4-11.4-29.9,0-41.3
				l0,0C294.6,35.9,313.1,35.9,324.5,47.3z"/>
		</g><!-- /phase-3__tooltip-bg-->

		<g class="phase-3__tooltip-bg-icon">
			<path fill="#3F3434" d="M316.8,74.2c-1.7-1.7-4.2-2-6.2-1l-3.9-4.9c1.9-3.4,1.3-7.7-1.4-10.5c-3.4-3.4-9-3.4-12.4,0
				c-1.7,1.7-2.6,3.8-2.6,6.2c0,2.3,0.9,4.5,2.6,6.2c2.8,2.8,7,3.4,10.5,1.4l4.9,3.9c-1.1,2.1-0.7,4.6,1,6.2
				c1.1,1.1,2.4,1.6,3.8,1.6c1.4,0,2.8-0.5,3.8-1.6c1-1,1.6-2.4,1.6-3.8C318.4,76.6,317.8,75.2,316.8,74.2z M316.2,81.2
				c-1.8,1.8-4.6,1.8-6.4,0c-1.5-1.5-1.8-3.7-0.7-5.5c0.1-0.2,0.1-0.4-0.1-0.6l-5.4-4.3c-0.1-0.1-0.2-0.1-0.3-0.1
				c-0.1,0-0.2,0-0.2,0.1c-3.1,1.9-7.1,1.4-9.7-1.2c-1.5-1.5-2.3-3.5-2.3-5.6c0-2.1,0.8-4.1,2.3-5.6c3.1-3.1,8.1-3.1,11.1,0
				c2.6,2.6,3.1,6.6,1.2,9.7c-0.1,0.2-0.1,0.4,0,0.5l4.3,5.4c0.1,0.2,0.4,0.2,0.6,0.1c1.8-1.1,4.1-0.8,5.5,0.7
				c0.9,0.9,1.3,2,1.3,3.2S317.1,80.4,316.2,81.2z"/>
			<path fill="#3F3434" d="M310.9,76c-1.1,1.1-1.1,3,0,4.1c0.6,0.6,1.3,0.9,2.1,0.9c0.8,0,1.5-0.3,2.1-0.9c0.6-0.6,0.9-1.3,0.9-2.1
				c0-0.8-0.3-1.5-0.9-2.1C313.9,74.8,312.1,74.8,310.9,76z M314.5,79.5c-0.8,0.8-2.1,0.8-2.9,0c-0.8-0.8-0.8-2.1,0-2.9
				c0.4-0.4,0.9-0.6,1.5-0.6c0.5,0,1.1,0.2,1.5,0.6c0.4,0.4,0.6,0.9,0.6,1.5S314.8,79.1,314.5,79.5z"/>
			<path fill="#3F3434" d="M299.4,52.1c4.3,0,8.2,2.3,10.3,6.1c0.1,0.1,0.2,0.2,0.4,0.2c0.1,0,0.1,0,0.2-0.1c0.2-0.1,0.3-0.4,0.2-0.6
				c-2.2-4.1-6.4-6.6-11.1-6.6c-0.2,0-0.4,0.2-0.4,0.4S299.1,52.1,299.4,52.1z"/>
			<path fill="#3F3434" d="M292.6,75c-3.8-2.1-6.1-6-6-10.3c0-0.2-0.2-0.4-0.4-0.4c0,0,0,0,0,0c-0.2,0-0.4,0.2-0.4,0.4
				c0,4.6,2.5,8.9,6.5,11.1c0.1,0,0.1,0.1,0.2,0.1c0.2,0,0.3-0.1,0.4-0.2C292.9,75.4,292.8,75.2,292.6,75z"/>
			<path fill="#3F3434" d="M306.8,50.5c1.4,0.7,2.7,1.7,3.8,2.8c0.1,0.1,0.2,0.1,0.3,0.1c0.1,0,0.2,0,0.3-0.1c0.2-0.2,0.2-0.4,0-0.6
				c-1.2-1.2-2.5-2.2-4-3c-0.2-0.1-0.5,0-0.6,0.2C306.5,50.1,306.6,50.4,306.8,50.5z"/>
		</g><!-- /phase-3__tooltip-bg-icon-->
	</g><!-- /phase-3__tooltip-->
	<g class="phase-3__house">
		<g class="phase-3__house-highlights">
			<polygon fill="#FFF3DF" points="256.2,174.6 256.2,192.4 292.4,179.1 280.8,165.4 			"/>
			<polygon fill="#FFF3DF" points="316.5,203.1 316.5,218.4 370.5,198.5 370.5,183 			"/>
		</g>

		<g class="phase-3__house-outline">
			<path fill="#3F3434" d="M243.4,165.5v56.1c0,0.1,0,0.2,0.1,0.3c0,0,0,0,0,0c0,0,0,0.1,0,0.1c0,0,0,0.1,0.1,0.1c0,0,0.1,0.1,0.1,0.1
				c0,0,0.1,0.1,0.1,0.1c0,0,0.1,0,0.1,0.1c0,0,0,0,0.1,0l55.6,22.3c0.1,0,0.2,0.1,0.3,0.1c0.2,0,0.3-0.1,0.5-0.1
				c0.2-0.2,0.4-0.4,0.4-0.7v-56.1c0-0.2-0.1-0.4-0.2-0.6l-7.4-8.8c0,0,0,0,0,0l-28-32.9c-0.2-0.2-0.4-0.3-0.6-0.3
				c-0.2,0-0.5,0.1-0.6,0.2l-20.1,19.4C243.5,165,243.4,165.3,243.4,165.5z M246.6,221.6l52.3-20.1v41.1L246.6,221.6z M299,199.7
				l-53.8,20.7v-53.6l26.9-10.3l7.3,8.5l-0.6,0.2c0,0,0,0,0,0l-22.8,8.5c-0.3,0.1-0.6,0.4-0.6,0.8v17.8c0,0.3,0.1,0.5,0.4,0.7
				c0.1,0.1,0.3,0.2,0.5,0.2c0.1,0,0.2,0,0.3-0.1l35.7-13.1l6.8,8V199.7z M291,178.7l-11.1,4.1v-16.1l0.6-0.2L291,178.7z M257,191.2
				v-16l21.1-7.9v16.1L257,191.2z M264.3,147.4l6.6,7.7l-24.2,9.3L264.3,147.4z"/>
			<path fill="#3F3434" d="M312.4,281.4c0-0.5-0.4-0.9-0.9-0.9c0,0,0,0,0,0c-0.5,0-0.9,0.4-0.9,0.9l0,2.4l-4.5,1.6l5.7,4.2l5.4-8.3
				l-5,1.8L312.4,281.4z"/>
			<path fill="#3F3434" d="M311.4,262.7C311.4,262.7,311.4,262.7,311.4,262.7c-0.5,0-0.9,0.4-0.9,0.9l0,4.4c0,0.5,0.4,0.9,0.9,0.9
				c0,0,0,0,0,0c0.5,0,0.9-0.4,0.9-0.9l0-4.4C312.3,263.1,311.9,262.7,311.4,262.7z"/>
			<path fill="#3F3434" d="M311.4,253.8C311.4,253.8,311.4,253.8,311.4,253.8c-0.5,0-0.9,0.4-0.9,0.9l0,4.4c0,0.5,0.4,0.9,0.9,0.9
				c0,0,0,0,0,0c0.5,0,0.9-0.4,0.9-0.9l0-4.4C312.2,254.2,311.8,253.8,311.4,253.8z"/>
			<path fill="#3F3434" d="M311.4,271.6c-0.5,0-0.9,0.4-0.9,0.9l0,4.4c0,0.5,0.4,0.9,0.9,0.9c0,0,0,0,0,0c0.5,0,0.9-0.4,0.9-0.9l0-4.4
				C312.3,272,311.9,271.6,311.4,271.6C311.4,271.6,311.4,271.6,311.4,271.6z"/>
			<path fill="#3F3434" d="M391.3,169.6c0-0.1,0-0.1,0-0.2c0,0,0,0,0-0.1c0-0.1-0.1-0.2-0.1-0.2l-51.2-64.1c0-0.1-0.1-0.1-0.2-0.1
				l-0.3-0.3c0,0,0,0,0,0c-0.1-0.1-0.2-0.1-0.3-0.1c0,0,0,0-0.1,0c-0.1,0-0.2,0-0.2,0c0,0-0.1,0-0.1,0c0,0-0.1,0-0.1,0l-68.3,25.8
				c-0.1,0-0.2,0.1-0.3,0.1l-5.9,2.2c0,0-0.1,0-0.1,0.1c-0.1,0-0.1,0-0.2,0.1c0,0,0,0,0,0c0,0,0,0,0,0l-35.4,36.9
				c-0.2,0.2-0.2,0.4-0.2,0.6v4.3c0,0.1,0,0.2,0.1,0.3c0,0,0,0,0,0c0,0,0,0.1,0.1,0.1c0,0,0,0.1,0,0.1c0,0.1,0.1,0.1,0.1,0.1
				c0,0,0,0,0,0c0.1,0,0.1,0.1,0.2,0.1c0,0,0,0,0,0c0,0,0,0,0,0c0.1,0,0.1,0,0.2,0.1c0,0,0,0,0,0c0,0,0,0,0.1,0c0,0,0.1,0,0.1,0
				c0,0,0.1,0,0.1,0c0,0,0.1,0,0.1,0l9.8-3.7v52.8c0,0,0,0,0,0c0,0,0,0,0,0c0,0.4,0.2,0.7,0.5,0.8l64.2,25.7c0,0,0,0,0,0l0,0
				c0.1,0,0.2,0.1,0.3,0.1c0.1,0,0.2,0,0.3-0.1l6.1-2.2l0,1.4c0,0.5,0.4,0.9,0.9,0.9c0,0,0,0,0,0c0.5,0,0.9-0.4,0.9-0.9l0-2l71.7-26
				c0,0,0,0,0,0c0.1,0,0.1-0.1,0.2-0.1c0,0,0.1,0,0.1-0.1c0,0,0.1-0.1,0.1-0.1c0,0,0.1-0.1,0.1-0.1c0,0,0-0.1,0-0.1
				c0-0.1,0-0.1,0-0.2c0,0,0,0,0,0v-43.2l6.3-2.4c0.3-0.1,0.6-0.4,0.6-0.8L391.3,169.6C391.3,169.6,391.3,169.6,391.3,169.6z
				 M343.4,193.9v13.7l-26,9.6v-13.5L343.4,193.9C343.4,193.9,343.4,193.9,343.4,193.9z M344.8,193.3l24.8-9.4v14l-24.5,9v-13.1
				C345.1,193.7,345,193.5,344.8,193.3z M316.8,196.3l-51-62.6l4.4-1.6l50.8,62.7L316.8,196.3z M322.7,194.1l-50.8-62.7l4.5-1.7
				l50.8,62.7L322.7,194.1z M328.9,191.8l-50.8-62.7l4.5-1.7l50.8,62.7L328.9,191.8z M335.1,189.4l-50.8-62.7l4.5-1.7l50.7,62.7
				L335.1,189.4z M341.3,187.1l-50.7-62.7l4.5-1.7l50.7,62.8L341.3,187.1z M347.5,184.8L296.8,122l4.5-1.7l50.7,62.8L347.5,184.8z
				 M353.7,182.4L303,119.7l4.5-1.7l50.7,62.8L353.7,182.4z M359.9,180.1l-50.7-62.8l4.5-1.7l50.6,62.8L359.9,180.1z M366.2,177.8
				l-50.7-62.8l4.5-1.7l50.6,62.9L366.2,177.8z M372.4,175.5l-50.6-62.9l4.5-1.7l50.6,62.9L372.4,175.5z M378.6,173.1L328,110.2
				l4.5-1.7l50.6,62.9L378.6,173.1z M384.8,170.8l-50.6-62.9l4.4-1.7l50.4,63L384.8,170.8z M229.9,170.6l34.4-36l51.3,63v3.1
				l-51.2-62.6c-0.2-0.2-0.4-0.3-0.6-0.3c0,0,0,0,0,0c-0.2,0-0.5,0.1-0.6,0.3l-33.3,34.4V170.6z M303.3,249l-62.4-25v-60.3
				l22.9-23.7l39.5,48.4V249z M232.3,172.4l6.8-7v4.4L232.3,172.4z M382.7,220.8L305,249v-58.6l10.6,13v15c0,0.3,0.1,0.5,0.4,0.7
				c0.1,0.1,0.3,0.2,0.5,0.2c0.1,0,0.2,0,0.3-0.1l54-19.9c0.3-0.1,0.6-0.4,0.6-0.8v-15.3l11.4-4.3V220.8z M317.4,201.9v-4l72.2-27.1
				v3.6L317.4,201.9z"/>
		</g>
	</g><!-- /phase-3__house-->
</g><!-- /phase-3-->
</svg>
