<svg version="1.1" xmlns="http://www.w3.org/2000/svg" xmlns:xlink="http://www.w3.org/1999/xlink" x="0px" y="0px"
	 viewBox="0 0 13 10" style="enable-background:new 0 0 13 10;" xml:space="preserve">
    <g>
    	<path fill="#1C496F" d="M1.1,4h10.7c0.5,0,0.9,0.4,0.9,0.9v0.3c0,0.5-0.4,0.9-0.9,0.9H1.1C0.7,6,0.3,5.7,0.3,5.2V4.8C0.3,4.3,0.7,4,1.1,4z
    		 M1.1,7.6h10.7c0.5,0,0.9,0.4,0.9,0.9v0.3c0,0.5-0.4,0.9-0.9,0.9H1.1c-0.5,0-0.9-0.4-0.9-0.9V8.5C0.3,8,0.7,7.6,1.1,7.6z M1.1,0.3
    		h10.7c0.5,0,0.9,0.4,0.9,0.9v0.3c0,0.5-0.4,0.9-0.9,0.9H1.1C0.7,2.4,0.3,2,0.3,1.5V1.2C0.3,0.7,0.7,0.3,1.1,0.3z"/>
    </g>
</svg>
