<?xml version="1.0" encoding="utf-8"?>
<!-- Generator: Adobe Illustrator 22.0.0, SVG Export Plug-In . SVG Version: 6.00 Build 0)  -->
<svg version="1.1" id="Layer_1" xmlns="http://www.w3.org/2000/svg" xmlns:xlink="http://www.w3.org/1999/xlink" x="0px" y="0px"
	 viewBox="0 0 130 130" style="enable-background:new 0 0 130 130;" xml:space="preserve">
<style type="text/css">
	.st0{opacity:0.1;fill:#272F3F;}
	.st1{fill:#FFFFFF;stroke:#272F3F;stroke-width:3;stroke-miterlimit:10;}
	.st2{clip-path:url(#SVGID_2_);}
	.st3{fill:#FFFFFF;stroke:#51C1AF;stroke-width:10;stroke-miterlimit:10;}
	.st4{fill:#FFFFFF;}
	.st5{fill:#272F3F;}
	.st6{fill:#51C1AF;}
	.st7{fill:#FFFFFF;stroke:#272F3F;stroke-width:3;stroke-linecap:round;stroke-miterlimit:10;}
	.st8{fill:none;stroke:#51C1AF;stroke-width:5;stroke-linecap:round;stroke-miterlimit:10;}
	.st9{fill:none;stroke:#51C1AF;stroke-width:5;stroke-linecap:round;stroke-miterlimit:10;stroke-dasharray:0,9.1667;}
	.st10{fill:none;stroke:#51C1AF;stroke-width:5;stroke-linecap:round;stroke-miterlimit:10;stroke-dasharray:0,9.1173;}
	.st11{fill:none;stroke:#51C1AF;stroke-width:3;stroke-miterlimit:10;}
	.st12{fill:none;stroke:#272F3F;stroke-width:3;stroke-miterlimit:10;}
	.st13{fill:#D9D8DB;}
	.st14{fill:none;}
</style>
<g>
	<path class="st5" d="M39,90.3c-0.8,0-1.5,0.7-1.5,1.5v4.6c0,0.8,0.7,1.5,1.5,1.5s1.5-0.7,1.5-1.5v-4.6C40.5,91,39.9,90.3,39,90.3z"
		/>
	<path class="st4" d="M55.7,30.7c8.5,0,15.7,5.9,17.6,13.9c0.5-0.1,1-0.1,1.5-0.1c0.2,0,0.3,0,0.5,0c-2-9-10-15.8-19.7-15.8
		c-11.1,0-20.2,9.1-20.2,20.2v37.7c0,0,0,0,0,0l2,0.1V48.8C37.5,38.8,45.7,30.7,55.7,30.7z"/>
	<path class="st5" d="M34,90.3c-0.8,0-1.5,0.7-1.5,1.5v4.6c0,0.8,0.7,1.5,1.5,1.5s1.5-0.7,1.5-1.5v-4.6C35.5,91,34.9,90.3,34,90.3z"
		/>
	<path class="st5" d="M38.7,100.4c-0.1,0-0.2,0.1-0.3,0.1c-0.1,0-0.2,0.1-0.3,0.1c-0.1,0.1-0.2,0.1-0.2,0.2
		c-0.3,0.3-0.4,0.7-0.4,1.1c0,0.4,0.2,0.8,0.4,1.1c0.3,0.3,0.7,0.4,1.1,0.4c0.4,0,0.8-0.2,1.1-0.4c0.3-0.3,0.4-0.7,0.4-1.1
		c0-0.4-0.2-0.8-0.4-1.1C39.7,100.4,39.2,100.3,38.7,100.4z"/>
	<path class="st5" d="M33,100.8c-0.3,0.3-0.4,0.7-0.4,1.1c0,0.4,0.2,0.8,0.4,1.1c0.3,0.3,0.7,0.4,1.1,0.4c0.4,0,0.8-0.2,1.1-0.4
		c0.3-0.3,0.4-0.7,0.4-1.1c0-0.4-0.2-0.8-0.4-1.1C34.5,100.2,33.5,100.2,33,100.8z"/>
	<path class="st13" d="M66.5,51c2.5-0.3,5.2-0.5,7.9-0.5c3,0,6,0.2,8.9,0.6c-2.1-2.2-5.1-3.6-8.5-3.6C71.6,47.5,68.7,48.8,66.5,51z"
		/>
	<path class="st13" d="M55.8,59.9c3-1.5,6-2.2,9.1-2.7c3.1-0.5,6.2-0.7,9.2-0.7c3.1,0,6.2,0.2,9.2,0.6c3.1,0.5,6.1,1.1,9.1,2.5
		c0.7,0.3,1.4,0.7,2.1,1.1v-1.5c0-2.3-7.8-5.7-20-5.7s-20,3.4-20,5.7v1.5C54.9,60.4,55.3,60.2,55.8,59.9z"/>
	<path class="st5" d="M97.5,59.2c0-3.4-4.1-5.8-9.8-7.3c-1.9-3.4-5.2-6-9.1-7C76.7,34,67.2,25.7,55.7,25.7
		c-12.8,0-23.2,10.4-23.2,23.2v37.7c0,0.8,0.7,1.5,1.5,1.5c0.8,0,1.5-0.7,1.5-1.5c0,0,0,0,0,0V48.8c0-11.1,9.1-20.2,20.2-20.2
		c9.6,0,17.7,6.8,19.7,15.8c-0.2,0-0.3,0-0.5,0c-0.5,0-1,0-1.5,0.1c-1.9-8-9.1-13.9-17.6-13.9c-10,0-18.2,8.2-18.2,18.2v37.8v0
		c0,0.8,0.7,1.5,1.5,1.5s1.5-0.7,1.5-1.5V48.8c0-8.4,6.8-15.2,15.2-15.2c7.1,0,13.1,4.9,14.7,11.5c-3.5,1.1-6.4,3.5-8.2,6.5
		c-6.2,1.4-10.8,3.9-10.8,7.5v6h0c0,0.7,0.2,1.4,0.5,1.9c0.2,0.5,0.6,0.9,0.9,1.3c0.2,0.2,0.3,0.4,0.5,0.5c0.2,0.2,0.3,0.3,0.5,0.4
		c1.6,0.9,3.1,1.3,4.7,1.6c1.6,0.3,3.1,0.4,4.6,0.4c-1.4-0.6-2.8-1.2-4.1-2c-1.3-0.7-2.5-1.5-3.4-2.5c-0.2-0.2-0.5-0.4-0.6-0.6
		c-0.2-0.2-0.3-0.4-0.4-0.6c-0.2-0.4-0.2-0.6-0.1-1c0.3-0.7,1.4-1.6,2.6-2.2c2.4-1.2,5.3-1.9,8.2-2.4c2.9-0.5,5.8-0.7,8.8-0.7
		c2.9,0,5.9,0.2,8.8,0.6c2.9,0.4,5.8,1.1,8.3,2.2c1.2,0.6,2.5,1.3,3,2.1c0.3,0.4,0.3,0.7,0.3,1c-0.1,0.2-0.1,0.3-0.2,0.5
		c-0.1,0.2-0.3,0.4-0.5,0.6c-0.7,1-1.9,1.8-3.1,2.6c-1.3,0.8-2.6,1.4-4,2.1l0,0c1.5-0.1,3.1-0.2,4.6-0.6c1.5-0.4,3.1-0.8,4.6-1.9
		c0.4-0.3,0.7-0.7,1-1.1c0.3-0.4,0.5-1,0.6-1.5c0.1-0.3,0.1-0.5,0.1-0.8h0V59.2z M74.5,53.5c12.2,0,20,3.4,20,5.7v1.5
		c-0.7-0.4-1.4-0.8-2.1-1.1c-3-1.3-6-2-9.1-2.5c-3.1-0.5-6.2-0.6-9.2-0.6c-3.1,0-6.2,0.2-9.2,0.7c-3.1,0.5-6.1,1.2-9.1,2.7
		c-0.4,0.2-0.9,0.5-1.3,0.8v-1.5C54.5,56.9,62.3,53.5,74.5,53.5z M74.9,47.5c3.3,0,6.3,1.4,8.5,3.6c-2.8-0.4-5.8-0.6-8.9-0.6
		c-2.7,0-5.4,0.2-7.9,0.5C68.7,48.8,71.6,47.5,74.9,47.5z"/>
	<path class="st6" d="M77.6,65.2c0-0.7-0.3-1.3-0.7-1.8c-0.1-0.1-0.2-0.2-0.4-0.3c-0.1-0.1-0.3-0.2-0.4-0.2
		c-0.1-0.1-0.3-0.1-0.5-0.1c-0.3-0.1-0.6-0.1-1,0c-0.2,0-0.3,0.1-0.5,0.1c-0.1,0.1-0.3,0.1-0.4,0.2c-0.1,0.1-0.3,0.2-0.4,0.3
		c-0.5,0.5-0.7,1.1-0.7,1.8c0,0.2,0,0.3,0,0.5c0,0.2,0.1,0.3,0.1,0.5c0.1,0.1,0.1,0.3,0.2,0.4c0.1,0.1,0.2,0.3,0.3,0.4
		c0.1,0.1,0.2,0.2,0.4,0.3c0.1,0.1,0.3,0.2,0.4,0.2s0.3,0.1,0.5,0.1c0.2,0,0.3,0.1,0.5,0.1c0.6,0,1.3-0.3,1.8-0.7
		c0.1-0.1,0.2-0.2,0.3-0.4c0.1-0.1,0.2-0.3,0.2-0.4c0.1-0.2,0.1-0.3,0.1-0.5C77.6,65.5,77.6,65.3,77.6,65.2z"/>
	<circle class="st6" cx="75.1" cy="92.7" r="2.5"/>
	<circle class="st6" cx="75.1" cy="83.5" r="2.5"/>
	<circle class="st6" cx="75.1" cy="74.3" r="2.5"/>
	<path class="st6" d="M76.5,99.8c-0.1-0.1-0.3-0.2-0.4-0.2c-0.1-0.1-0.3-0.1-0.5-0.1c-0.3-0.1-0.6-0.1-1,0c-0.2,0-0.3,0.1-0.5,0.1
		c-0.1,0.1-0.3,0.1-0.4,0.2c-0.1,0.1-0.3,0.2-0.4,0.3c-0.5,0.5-0.7,1.1-0.7,1.8c0,0.2,0,0.3,0,0.5c0,0.2,0.1,0.3,0.1,0.5
		c0.1,0.1,0.1,0.3,0.2,0.4c0.1,0.1,0.2,0.3,0.3,0.4c0.1,0.1,0.2,0.2,0.4,0.3c0.1,0.1,0.3,0.2,0.4,0.2c0.1,0.1,0.3,0.1,0.5,0.1
		c0.2,0,0.3,0.1,0.5,0.1c0.7,0,1.3-0.3,1.8-0.7c0.1-0.1,0.2-0.2,0.3-0.4c0.1-0.1,0.2-0.3,0.2-0.4c0.1-0.2,0.1-0.3,0.1-0.5
		c0-0.2,0-0.3,0-0.5c0-0.7-0.3-1.3-0.7-1.8C76.8,100,76.6,99.8,76.5,99.8z"/>
	<path class="st6" d="M83.6,65.1c-0.1-0.2-0.1-0.3-0.2-0.4c-0.1-0.1-0.2-0.3-0.3-0.4c-0.9-0.9-2.6-0.9-3.5,0
		c-0.1,0.1-0.2,0.2-0.3,0.4c-0.1,0.1-0.2,0.3-0.2,0.4c-0.1,0.1-0.1,0.3-0.1,0.5c0,0.2,0,0.3,0,0.5c0,0.2,0,0.3,0,0.5
		c0,0.2,0.1,0.3,0.1,0.5c0.1,0.1,0.1,0.3,0.2,0.4c0.1,0.1,0.2,0.3,0.3,0.4c0.5,0.5,1.1,0.7,1.8,0.7c0.7,0,1.3-0.3,1.8-0.7
		c0.5-0.5,0.7-1.1,0.7-1.8c0-0.2,0-0.3-0.1-0.5C83.7,65.4,83.7,65.2,83.6,65.1z"/>
	<path class="st6" d="M88.9,82.8c-0.4-1.3-1.8-2.1-3.1-1.7c-1.3,0.4-2.1,1.8-1.7,3.1c0.3,1.1,1.3,1.8,2.4,1.8c0.2,0,0.5,0,0.7-0.1
		C88.6,85.5,89.3,84.1,88.9,82.8z"/>
	<path class="st6" d="M91.6,91.5c-0.4-1.3-1.8-2.1-3.1-1.7c-1.3,0.4-2.1,1.8-1.7,3.1c0.3,1.1,1.3,1.8,2.4,1.8c0.2,0,0.5,0,0.7-0.1
		C91.2,94.2,92,92.8,91.6,91.5z"/>
	<path class="st6" d="M86.3,74.1c-0.4-1.3-1.8-2.1-3.1-1.7c-1.3,0.4-2.1,1.8-1.7,3.1c0.3,1.1,1.3,1.8,2.4,1.8c0.2,0,0.5,0,0.7-0.1
		C86,76.8,86.7,75.4,86.3,74.1z"/>
	<path class="st6" d="M94.1,100c-0.1-0.2-0.1-0.3-0.2-0.4c-0.1-0.1-0.2-0.3-0.3-0.4c-0.1-0.1-0.2-0.2-0.4-0.3
		c-0.1-0.1-0.3-0.2-0.4-0.2c-0.1-0.1-0.3-0.1-0.5-0.1c-0.3-0.1-0.6-0.1-1,0c-0.2,0-0.3,0.1-0.5,0.1c-0.1,0.1-0.3,0.1-0.4,0.2
		c-0.1,0.1-0.3,0.2-0.4,0.3c-0.1,0.1-0.2,0.2-0.3,0.4c-0.1,0.1-0.2,0.3-0.2,0.4c-0.1,0.1-0.1,0.3-0.1,0.5c0,0.2-0.1,0.3-0.1,0.5
		s0,0.3,0.1,0.5c0,0.2,0.1,0.3,0.1,0.5c0.1,0.1,0.1,0.3,0.2,0.4c0.1,0.1,0.2,0.3,0.3,0.4c0.1,0.1,0.2,0.2,0.4,0.3
		c0.1,0.1,0.3,0.2,0.4,0.2c0.1,0.1,0.3,0.1,0.5,0.1c0.2,0,0.3,0,0.5,0c0.2,0,0.3,0,0.5,0c0.2,0,0.3-0.1,0.5-0.1
		c0.2-0.1,0.3-0.1,0.4-0.2c0.1-0.1,0.3-0.2,0.4-0.3c0.1-0.1,0.2-0.2,0.3-0.4c0.1-0.1,0.2-0.3,0.2-0.4c0.1-0.2,0.1-0.3,0.1-0.5
		c0-0.2,0-0.3,0-0.5s0-0.3,0-0.5C94.2,100.3,94.2,100.2,94.1,100z"/>
	<path class="st6" d="M71.2,65.1c-0.1-0.2-0.1-0.3-0.2-0.4c-0.1-0.1-0.2-0.3-0.3-0.4c-0.9-0.9-2.6-0.9-3.5,0
		c-0.1,0.1-0.2,0.2-0.3,0.4c-0.1,0.1-0.2,0.3-0.2,0.4c-0.1,0.1-0.1,0.3-0.1,0.5c0,0.2,0,0.3,0,0.5c0,0.2,0,0.3,0,0.5
		c0,0.2,0.1,0.3,0.1,0.5c0.1,0.1,0.1,0.3,0.2,0.4c0.1,0.1,0.2,0.3,0.3,0.4c0.1,0.1,0.2,0.2,0.4,0.3c0.1,0.1,0.3,0.2,0.4,0.2
		c0.2,0.1,0.3,0.1,0.5,0.1c0.2,0,0.3,0,0.5,0c0.7,0,1.3-0.3,1.8-0.7c0.5-0.5,0.7-1.1,0.7-1.8c0-0.2,0-0.3,0-0.5
		C71.4,65.4,71.3,65.2,71.2,65.1z"/>
	<path class="st6" d="M64.4,81.1c-1.3-0.4-2.7,0.4-3.1,1.7c-0.4,1.3,0.4,2.7,1.7,3.1c0.2,0.1,0.5,0.1,0.7,0.1c1.1,0,2.1-0.7,2.4-1.8
		C66.5,82.9,65.7,81.5,64.4,81.1z"/>
	<path class="st6" d="M61.8,89.8c-1.3-0.4-2.7,0.4-3.1,1.7c-0.4,1.3,0.3,2.7,1.7,3.1c0.2,0.1,0.5,0.1,0.7,0.1c1.1,0,2.1-0.7,2.4-1.8
		C63.9,91.6,63.1,90.2,61.8,89.8z"/>
	<path class="st6" d="M67,72.4c-1.3-0.4-2.7,0.3-3.1,1.7c-0.4,1.3,0.4,2.7,1.7,3.1c0.2,0.1,0.5,0.1,0.7,0.1c1.1,0,2.1-0.7,2.4-1.8
		C69.1,74.2,68.4,72.8,67,72.4z"/>
	<path class="st6" d="M60.7,100c-0.1-0.2-0.1-0.3-0.2-0.4c-0.1-0.1-0.2-0.3-0.3-0.4c-0.9-0.9-2.6-0.9-3.5,0
		c-0.5,0.5-0.7,1.1-0.7,1.8c0,0.2,0,0.3,0,0.5c0,0.2,0.1,0.3,0.1,0.5c0.1,0.1,0.1,0.3,0.2,0.4c0.1,0.1,0.2,0.3,0.3,0.4
		c0.1,0.1,0.2,0.2,0.4,0.3c0.1,0.1,0.3,0.2,0.4,0.2c0.2,0.1,0.3,0.1,0.5,0.1c0.2,0,0.3,0,0.5,0c0.2,0,0.3,0,0.5,0
		c0.2,0,0.3-0.1,0.5-0.1c0.1-0.1,0.3-0.1,0.4-0.2c0.1-0.1,0.3-0.2,0.4-0.3c0.1-0.1,0.2-0.2,0.3-0.4c0.1-0.1,0.2-0.3,0.2-0.4
		c0.1-0.2,0.1-0.3,0.1-0.5c0-0.2,0.1-0.3,0.1-0.5s0-0.3-0.1-0.5C60.9,100.3,60.8,100.2,60.7,100z"/>
</g>
</svg>
