<?xml version="1.0" encoding="utf-8"?>
<!-- Generator: Adobe Illustrator 22.0.0, SVG Export Plug-In . SVG Version: 6.00 Build 0)  -->
<svg version="1.1" id="Layer_1" xmlns="http://www.w3.org/2000/svg" xmlns:xlink="http://www.w3.org/1999/xlink" x="0px" y="0px"
	 viewBox="0 0 130 130" style="enable-background:new 0 0 130 130;" xml:space="preserve">
<style type="text/css">
	.st0{opacity:0.1;fill:#272F3F;}
	.st1{fill:#FFFFFF;stroke:#272F3F;stroke-width:3;stroke-miterlimit:10;}
	.st2{clip-path:url(#SVGID_2_);}
	.st3{fill:#FFFFFF;stroke:#51C1AF;stroke-width:10;stroke-miterlimit:10;}
	.st4{fill:#FFFFFF;}
	.st5{fill:#272F3F;}
	.st6{fill:#51C1AF;}
	.st7{fill:#FFFFFF;stroke:#272F3F;stroke-width:3;stroke-linecap:round;stroke-miterlimit:10;}
	.st8{fill:none;stroke:#51C1AF;stroke-width:5;stroke-linecap:round;stroke-miterlimit:10;}
	.st9{fill:none;stroke:#51C1AF;stroke-width:5;stroke-linecap:round;stroke-miterlimit:10;stroke-dasharray:0,9.1667;}
	.st10{fill:none;stroke:#51C1AF;stroke-width:5;stroke-linecap:round;stroke-miterlimit:10;stroke-dasharray:0,9.1173;}
	.st11{fill:none;stroke:#51C1AF;stroke-width:3;stroke-miterlimit:10;}
	.st12{fill:none;stroke:#272F3F;stroke-width:3;stroke-miterlimit:10;}
	.st13{fill:#D9D8DB;}
	.st14{fill:none;}
</style>
<g>
	<path class="st14" d="M87.3,80.4H54.5v16.8h32.9V80.4z M61.3,89.5v-8.7h19.1v8.7H61.3z"/>
	<rect x="90.3" y="80.4" class="st14" width="8.7" height="16.8"/>
	<polygon class="st14" points="70.4,45.4 100.8,45.4 90.5,35.7 	"/>
	<polygon class="st13" points="85.9,31.4 57.3,45.4 70.4,45.4 90.5,35.7 	"/>
	<rect x="54.5" y="76.4" class="st13" width="32.9" height="4"/>
	<rect x="90.3" y="76.4" class="st13" width="8.7" height="4"/>
	<path class="st5" d="M110.7,50.6L86.5,27.8L40.4,50.4l1.3,2.7l9.7-4.8v51.9h50.6V46.6l6.6,6.2L110.7,50.6z M99.1,73.4H54.5v-25
		h44.6V73.4z M54.5,80.4v-4h32.9v4v16.8H54.5V80.4z M90.3,97.2V80.4v-4h8.7v4v16.8H90.3z M70.4,45.4H57.3l28.6-14.1l4.6,4.3
		l10.4,9.8H70.4z"/>
	<path class="st6" d="M54.5,73.4h44.6v-25H54.5V73.4z M80.2,52.9h12v13.6h-12V52.9z M61.3,52.9h12v13.6h-12V52.9z"/>
	<rect x="64.3" y="55.9" class="st4" width="6" height="7.6"/>
	<path class="st5" d="M73.4,52.9h-12v13.6h12V52.9z M70.4,63.5h-6v-7.6h6V63.5z"/>
	<rect x="64.3" y="83.8" class="st4" width="13.1" height="2.7"/>
	<path class="st5" d="M61.3,80.8v8.7h19.1v-8.7H61.3z M77.5,86.5H64.3v-2.7h13.1V86.5z"/>
	<rect x="83.2" y="55.9" class="st4" width="6" height="7.6"/>
	<path class="st5" d="M92.2,52.9h-12v13.6h12V52.9z M89.2,63.5h-6v-7.6h6V63.5z"/>
	<polygon class="st6" points="25,63.5 19.3,63.5 19.3,66.5 25,66.5 25,103.1 35.2,103.1 35.2,100.1 28,100.1 28,29.9 35.2,29.9 
		35.2,26.9 25,26.9 	"/>
</g>
</svg>
