<?xml version="1.0" encoding="utf-8"?>
<!-- Generator: Adobe Illustrator 22.0.0, SVG Export Plug-In . SVG Version: 6.00 Build 0)  -->
<svg version="1.1" id="Layer_1" xmlns="http://www.w3.org/2000/svg" xmlns:xlink="http://www.w3.org/1999/xlink" x="0px" y="0px"
	 viewBox="0 0 130 130" style="enable-background:new 0 0 130 130;" xml:space="preserve">
<style type="text/css">
	.st0{opacity:0.1;fill:#272F3F;}
	.st1{fill:#FFFFFF;stroke:#272F3F;stroke-width:3;stroke-miterlimit:10;}
	.st2{clip-path:url(#SVGID_2_);}
	.st3{fill:#FFFFFF;stroke:#51C1AF;stroke-width:10;stroke-miterlimit:10;}
	.st4{fill:#FFFFFF;}
	.st5{fill:#272F3F;}
	.st6{fill:#51C1AF;}
	.st7{fill:#FFFFFF;stroke:#272F3F;stroke-width:3;stroke-linecap:round;stroke-miterlimit:10;}
	.st8{fill:none;stroke:#51C1AF;stroke-width:5;stroke-linecap:round;stroke-miterlimit:10;}
	.st9{fill:none;stroke:#51C1AF;stroke-width:5;stroke-linecap:round;stroke-miterlimit:10;stroke-dasharray:0,9.1667;}
	.st10{fill:none;stroke:#51C1AF;stroke-width:5;stroke-linecap:round;stroke-miterlimit:10;stroke-dasharray:0,9.1173;}
	.st11{fill:none;stroke:#51C1AF;stroke-width:3;stroke-miterlimit:10;}
	.st12{fill:none;stroke:#272F3F;stroke-width:3;stroke-miterlimit:10;}
	.st13{fill:#D9D8DB;}
	.st14{fill:none;}
</style>
<g>
	<path class="st13" d="M104.1,84.3l-2.7-7.4c-0.8,0.5-1.7,0.8-2.6,0.9v0.6v13.4H94l-3.4-7.5H39.3L36,91.7h-4.8v-13V78
		c-1-0.3-1.8-0.8-2.5-1.4l-2.8,7.7c-2.5,6.9,2.6,14.2,10,14.2h58.3C101.5,98.5,106.6,91.2,104.1,84.3z"/>
	<g>
		<path class="st14" d="M72.4,59.8c1.3,0,2.5,0.1,3.8,0.1L61.6,45.3c-0.9-0.2-1.9-0.4-2.9-0.4h-3.6L70,59.7L72.4,59.8z"/>
		<path class="st14" d="M94.8,61.2c-0.9,0.1-1.8,0.2-2.7,0.3l8.4,8.4v-4.5c0-0.6-0.1-1.1-0.1-1.7L81.5,44.9h-6.1l15.9,15.9
			C92.5,60.9,93.6,61,94.8,61.2z"/>
		<path class="st14" d="M30.2,61.9c0.1-0.3,0.3-0.7,0.4-1C30.4,61.2,30.3,61.5,30.2,61.9z"/>
		<path class="st14" d="M72.9,62.6l10.2,10.2h0c2.4,0.1,4.6,0.2,6.6,0.5L78.8,62.4C76.8,62.5,74.9,62.5,72.9,62.6z"/>
		<path class="st14" d="M58.8,62.6l-1.2,0c-1.7-0.1-3.4-0.1-5-0.2l11.1,11.1c0.6,0,1.2,0,1.8,0c1.2,0,2.3,0,3.5,0
			c0.2,0,0.5-0.1,0.7-0.1h0L58.8,62.6z"/>
		<path class="st14" d="M34.4,75.6c1.5,0.2,3.4,0.4,5.6,0.6l0,0C37.8,76,35.9,75.8,34.4,75.6z"/>
		<path class="st14" d="M50.1,60c1.9-0.1,3.9-0.2,5.8-0.2L41.9,45.7l0.2-0.3h0l-2.9,3.7L50.1,60C50.1,60,50.1,60,50.1,60z"/>
		<path class="st14" d="M50.3,74.4l-13-13c-0.7-0.1-1.4-0.1-2.1-0.2c0.6-0.1,1.1-0.1,1.7-0.2l-3.9-3.9l3.1-4l-4,5.2
			c-0.6,0.8-1.1,1.6-1.5,2.4L45,75.2C46.7,74.9,48.5,74.6,50.3,74.4z"/>
		<path class="st13" d="M45,75.2l1.1,1.1c1.8,0,3.8-0.1,5.8-0.2l-1.6-1.6C48.5,74.6,46.7,74.9,45,75.2z"/>
		<path class="st13" d="M40,76.1c1.8,0.1,3.9,0.2,6.2,0.2C43.9,76.3,41.8,76.2,40,76.1L40,76.1z"/>
		<path class="st13" d="M63.7,73.6l0.8,0.8c0.1,0,0.2,0,0.2,0c1.5-0.3,2.9-0.5,4.3-0.7c-1.1,0-2.3,0-3.5,0
			C64.9,73.6,64.3,73.6,63.7,73.6z"/>
		<path class="st6" d="M34.3,75.6c0,0,0.1,0,0.1,0c1.5,0.2,3.4,0.4,5.6,0.6c1.8,0.1,3.9,0.2,6.2,0.2h0L45,75.2L30.6,60.8
			c0,0,0,0.1,0,0.1c-0.2,0.3-0.3,0.7-0.4,1c0,0,0,0.1,0,0.1c-0.1,0.3-0.2,0.6-0.3,0.9c0,0.1,0,0.2-0.1,0.3c-0.1,0.3-0.1,0.5-0.1,0.8
			c0,0.1,0,0.2,0,0.3c0,0.4-0.1,0.7-0.1,1.1v7.1c0,1.4,1.5,2.6,3.6,2.9C33.5,75.4,33.9,75.5,34.3,75.6z"/>
		<path class="st6" d="M36.9,61c4.4-0.5,8.8-0.8,13.2-1L39.2,49.2l-3.1,4l-3.1,4L36.9,61z"/>
		<path class="st6" d="M52.5,62.5c-0.8,0-1.6,0-2.4-0.1c-4.3-0.2-8.5-0.5-12.8-0.9l13,13l1.6,1.6c0,0,0,0,0,0
			c0.9-0.1,1.8-0.1,2.7-0.2c0.2,0,0.4,0,0.6-0.1c0.7-0.1,1.5-0.2,2.2-0.3c0.2,0,0.5-0.1,0.8-0.1c0.8-0.1,1.6-0.2,2.4-0.3
			c0.2,0,0.4-0.1,0.7-0.1c1-0.2,2.1-0.4,3.1-0.6l-0.8-0.8L52.5,62.5z"/>
		<path class="st6" d="M56,59.8c0.5,0,1.1,0,1.6,0l7.4-0.1l5,0.1L55.2,44.9h-6.9c-1.2,0-2.4,0.2-3.6,0.5l-0.6,0.2
			c-0.7,0.2-1.4,0.1-2-0.1l-0.2,0.3L56,59.8z"/>
		<path class="st6" d="M72.9,62.6c-0.2,0-0.3,0-0.5,0L65,62.7l-6.2-0.1l10.9,10.9h0c1.2-0.2,2.4-0.3,3.5-0.4c0.1,0,0.2,0,0.3,0
			c1.1-0.1,2.2-0.2,3.2-0.2c0,0,0.1,0,0.1,0c2.2-0.1,4.3-0.1,6.3-0.1h0L72.9,62.6z"/>
		<path class="st6" d="M79.9,60c3.8,0.2,7.6,0.4,11.4,0.8L75.4,44.9H72c-1.2,0-2.4,0.2-3.4,0.5h0L68,45.6c-0.3,0.1-0.6,0.1-0.9,0.1
			c-0.6,0-1.2-0.2-1.8-0.6c-0.6,0.4-1.2,0.6-1.8,0.6c-0.3,0-0.6,0-0.9-0.1l-0.6-0.2c-0.2-0.1-0.4-0.1-0.5-0.2l14.6,14.6
			C77.5,59.9,78.7,60,79.9,60z"/>
		<path class="st6" d="M79.9,62.4c-0.4,0-0.7,0-1.1,0l10.9,10.9c0.7,0.1,1.3,0.2,2,0.3c0.2,0,0.4,0.1,0.5,0.1
			c0.4,0.1,0.9,0.2,1.3,0.2c0.2,0,0.4,0.1,0.6,0.1c0.4,0.1,0.8,0.2,1.2,0.2c0.2,0,0.3,0.1,0.5,0.1c0.5,0.1,1,0.2,1.5,0.4
			c1.1,0.3,2.2,0,2.8-0.4c0.2-0.2,0.4-0.4,0.4-0.7v-3.6L92,61.5C88,61.9,83.9,62.2,79.9,62.4z"/>
		<path class="st6" d="M100.3,63.7c-0.1-0.4-0.2-0.9-0.3-1.3c0-0.1,0-0.1-0.1-0.2c-0.1-0.4-0.3-0.8-0.5-1.3c0,0,0,0,0,0
			c-0.2-0.4-0.4-0.8-0.6-1.2c-0.1-0.1-0.1-0.2-0.2-0.3c-0.2-0.4-0.5-0.8-0.8-1.1l-9.8-12.7c-0.5,0.1-1,0.1-1.4-0.1L86,45.4
			c-1.2-0.4-2.4-0.5-3.6-0.5h-1L100.3,63.7L100.3,63.7z"/>
		<path class="st5" d="M52.5,62.5c1.7,0.1,3.4,0.1,5,0.2l1.2,0l6.2,0.1l7.4-0.1c0.2,0,0.3,0,0.5,0c2-0.1,3.9-0.1,5.9-0.2
			c0.4,0,0.7,0,1.1,0c4-0.2,8.1-0.4,12.1-0.9c0.9-0.1,1.8-0.2,2.7-0.3c-1.1-0.1-2.3-0.3-3.4-0.4c-3.8-0.4-7.6-0.6-11.4-0.8
			c-1.2-0.1-2.4-0.1-3.6-0.1c-1.3,0-2.5-0.1-3.8-0.1l-2.4,0l-5-0.1l-7.4,0.1c-0.5,0-1.1,0-1.6,0c-1.9,0.1-3.9,0.1-5.8,0.2
			c0,0,0,0,0,0c-4.4,0.2-8.8,0.5-13.2,1c-0.6,0.1-1.1,0.1-1.7,0.2c0.7,0.1,1.4,0.2,2.1,0.2c4.3,0.5,8.5,0.7,12.8,0.9
			C50.9,62.4,51.7,62.4,52.5,62.5z"/>
		<path class="st5" d="M36,91.7l3.4-7.5h51.3l3.4,7.5h4.8V78.4v-0.6c1.1-0.1,2.2-0.5,3-1.1c1-0.8,1.6-1.9,1.6-3.1v-8.2
			c0-3.1-1.1-6.2-3.2-8.9l-10-12.9c0.1-0.5,0.2-1,0-1.6l-1.4-5.8c-0.2-0.8-0.7-1.4-1.3-1.8c-0.6-0.4-1.4-0.4-2-0.2l-0.8,0.2
			c-0.2,0.1-0.4,0-0.6-0.1L84,34.3c-2.3-1.5-8.6-5.4-15.5,0l-0.1,0.1c0,0-0.2,0.2-0.5,0.1l-0.7-0.2c-0.6-0.2-1.2-0.1-1.7,0.1
			c-0.5-0.2-1.1-0.3-1.7-0.1L63,34.4c-0.3,0.1-0.5,0-0.5-0.1l-0.1-0.1c-7-5.4-13.2-1.5-15.5,0l-0.2,0.1c-0.1,0.1-0.3,0.2-0.6,0.1
			l-0.8-0.2c-0.7-0.2-1.4-0.1-2,0.2c-0.7,0.4-1.1,1-1.3,1.8L40.5,42c-0.1,0.2-0.1,0.5-0.1,0.7L29.8,56.5c-2.1,2.7-3.2,5.8-3.2,8.9
			v7.1c0,2.4,1.8,4.6,4.6,5.5v0.8v13H36z M95.8,88.4l-3.2-7.2H37.4l-3.2,7.2v-9.9c2.7,0.4,6.5,0.7,11.2,0.7c5.5,0,12.3-0.5,20-2
			c13.6-2.7,24-1.4,30.6,0.2V88.4z M66.9,37.3L66.9,37.3c1.2,0.3,2.5,0.1,3.4-0.7c5.3-4.1,9.7-1.3,12.1,0.2l0.2,0.1
			c0.9,0.6,2,0.7,3,0.4l0.4-0.1l1.4,5.5l-0.5-0.1c-1.5-0.4-3-0.7-4.5-0.7H72c-1.5,0-3,0.2-4.4,0.7l-0.5,0.2c-0.1,0-0.3-0.2-0.3-0.3
			L66.9,37.3z M44.7,37.2l0.4,0.1c1,0.3,2.1,0.2,3-0.4l0.2-0.1c2.4-1.5,6.8-4.3,12.1-0.2c0.9,0.8,2.1,1.1,3.3,0.7l0,0l0.1,5.1
			c0,0.1-0.2,0.3-0.2,0.3l-0.5-0.2c-1.4-0.5-2.8-0.7-4.4-0.7H48.3c-1.5,0-3,0.2-4.5,0.7l-0.5,0.1L44.7,37.2z M29.6,72.5v-7.1
			c0-0.4,0-0.7,0.1-1.1c0-0.1,0-0.2,0-0.3c0-0.3,0.1-0.5,0.1-0.8c0-0.1,0-0.2,0.1-0.3c0.1-0.3,0.2-0.6,0.3-0.9c0,0,0-0.1,0-0.1
			c0.1-0.3,0.3-0.7,0.4-1c0,0,0-0.1,0-0.1c0.4-0.8,0.9-1.7,1.5-2.4l4-5.2l3.1-4l2.9-3.7h0c0.6,0.3,1.3,0.4,2,0.1l0.6-0.2
			c1.2-0.4,2.4-0.5,3.6-0.5h6.9h3.6c1,0,2,0.1,2.9,0.4c0.2,0,0.4,0.1,0.5,0.2l0.6,0.2c0.3,0.1,0.6,0.1,0.9,0.1
			c0.6,0,1.2-0.2,1.8-0.6c0.6,0.4,1.2,0.6,1.8,0.6c0.3,0,0.6,0,0.9-0.1l0.6-0.2h0c1.1-0.4,2.2-0.5,3.4-0.5h3.4h6.1h1
			c1.2,0,2.4,0.2,3.6,0.5l0.6,0.2c0.5,0.1,1,0.2,1.4,0.1l9.8,12.7c0.3,0.4,0.5,0.8,0.8,1.1c0.1,0.1,0.1,0.2,0.2,0.3
			c0.2,0.4,0.4,0.8,0.6,1.2c0,0,0,0,0,0c0.2,0.4,0.3,0.8,0.5,1.3c0,0.1,0,0.1,0.1,0.2c0.1,0.4,0.2,0.9,0.3,1.3v0
			c0.1,0.6,0.1,1.1,0.1,1.7v4.5v3.6c0,0.3-0.2,0.5-0.4,0.7c-0.6,0.4-1.6,0.7-2.8,0.4c-0.5-0.1-1-0.2-1.5-0.4c-0.2,0-0.3-0.1-0.5-0.1
			c-0.4-0.1-0.8-0.2-1.2-0.2c-0.2,0-0.4-0.1-0.6-0.1c-0.4-0.1-0.9-0.2-1.3-0.2c-0.2,0-0.4-0.1-0.5-0.1c-0.6-0.1-1.3-0.2-2-0.3
			c-2-0.3-4.2-0.4-6.6-0.5c-2-0.1-4.1,0-6.3,0.1c0,0-0.1,0-0.1,0c-1,0.1-2.1,0.1-3.2,0.2c-0.1,0-0.2,0-0.3,0
			c-1.1,0.1-2.3,0.2-3.5,0.4c-0.2,0-0.5,0.1-0.7,0.1c-1.4,0.2-2.8,0.4-4.3,0.7c-0.1,0-0.2,0-0.2,0c-1.1,0.2-2.1,0.4-3.1,0.6
			c-0.2,0-0.4,0.1-0.7,0.1c-0.8,0.1-1.6,0.2-2.4,0.3c-0.3,0-0.5,0.1-0.8,0.1c-0.8,0.1-1.5,0.2-2.2,0.3c-0.2,0-0.4,0-0.6,0.1
			c-0.9,0.1-1.8,0.2-2.7,0.2c0,0,0,0,0,0c-2.1,0.1-4,0.2-5.8,0.2h0c-2.3,0-4.3,0-6.2-0.2c-2.2-0.1-4.1-0.3-5.6-0.6c0,0-0.1,0-0.1,0
			c-0.4-0.1-0.8-0.1-1.1-0.2C31.1,75,29.6,73.8,29.6,72.5z"/>
		<path class="st4" d="M65.3,77.3c-7.7,1.5-14.4,2-20,2c-4.7,0-8.4-0.4-11.2-0.7v9.9l3.2-7.2h55.2l3.2,7.2v-11
			C89.3,75.9,78.9,74.6,65.3,77.3z"/>
		<path class="st4" d="M48.3,41.9h10.4c1.5,0,3,0.2,4.4,0.7l0.5,0.2c0,0,0.2-0.2,0.2-0.3l-0.1-5.1l0,0c-1.2,0.3-2.4,0.1-3.3-0.7
			c-5.3-4.1-9.7-1.3-12.1,0.2l-0.2,0.1c-0.9,0.6-2,0.7-3,0.4l-0.4-0.1l-1.4,5.5l0.5-0.1C45.3,42.1,46.8,41.9,48.3,41.9z"/>
		<path class="st4" d="M67.2,42.7l0.5-0.2c1.4-0.5,2.8-0.7,4.4-0.7h10.4c1.5,0,3,0.2,4.5,0.7l0.5,0.1L86,37.2l-0.4,0.1
			c-1,0.3-2.1,0.2-3-0.4l-0.2-0.1c-2.4-1.5-6.8-4.3-12.1-0.2c-0.9,0.8-2.1,1.1-3.3,0.7l0,0l-0.1,5.1C66.9,42.5,67.1,42.7,67.2,42.7z
			"/>
	</g>
</g>
</svg>
