<svg id="Layer_1" xmlns="http://www.w3.org/2000/svg" viewBox="0 0 130 130"><style>.st0{opacity:.1;fill:#272f3f}.st1{fill:#fff;stroke:#272f3f;stroke-width:3;stroke-miterlimit:10}.st2{clip-path:url(#SVGID_2_)}.st3{stroke:#51c1af;stroke-width:10;stroke-miterlimit:10}.st3,.st4{fill:#fff}.st5{fill:#272f3f}.st6{fill:#51c1af}.st7,.st8,.st9{stroke-linecap:round}.st7{fill:#fff;stroke:#272f3f;stroke-miterlimit:10;stroke-width:3}.st8,.st9{stroke-width:5}.st8{fill:none;stroke:#51c1af;stroke-miterlimit:10}.st9{stroke-dasharray:0,9.1667}.st10,.st11{stroke:#51c1af}.st10,.st11,.st12,.st9{fill:none;stroke-miterlimit:10}.st9{stroke:#51c1af}.st10{stroke-linecap:round;stroke-dasharray:0,9.1173;stroke-width:5}.st11,.st12{stroke-width:3}.st12{stroke:#272f3f}.st13{fill:#d9d8db}.st14{fill:none}</style><path class="st14" d="M87.3 80.4H54.5v16.8h32.9V80.4zm-26 9.1v-8.7h19.1v8.7H61.3zm29-9.1H99v16.8h-8.7zm-19.9-35h30.4l-10.3-9.7z"/><path class="st13" d="M85.9 31.4l-28.6 14h13.1l20.1-9.7zm-31.4 45h32.9v4H54.5zm35.8 0H99v4h-8.7z"/><path class="st5" d="M110.7 50.6L86.5 27.8 40.4 50.4l1.3 2.7 9.7-4.8v51.9H102V46.6l6.6 6.2 2.1-2.2zM99.1 73.4H54.5v-25h44.6v25zm-44.6 7v-4h32.9v20.8H54.5V80.4zm35.8 16.8V76.4H99v20.8h-8.7zM70.4 45.4H57.3l28.6-14.1 4.6 4.3 10.4 9.8H70.4z"/><path class="st6" d="M54.5 73.4h44.6v-25H54.5v25zm25.7-20.5h12v13.6h-12V52.9zm-18.9 0h12v13.6h-12V52.9z"/><path class="st4" d="M64.3 55.9h6v7.6h-6z"/><path class="st5" d="M73.4 52.9h-12v13.6h12V52.9zm-3 10.6h-6v-7.6h6v7.6z"/><path class="st4" d="M64.3 83.8h13.1v2.7H64.3z"/><path class="st5" d="M61.3 80.8v8.7h19.1v-8.7H61.3zm16.2 5.7H64.3v-2.7h13.1v2.7z"/><path class="st4" d="M83.2 55.9h6v7.6h-6z"/><path class="st5" d="M92.2 52.9h-12v13.6h12V52.9zm-3 10.6h-6v-7.6h6v7.6z"/><path class="st6" d="M25 63.5h-5.7v3H25v36.6h10.2v-3H28V29.9h7.2v-3H25z"/></svg>