<svg width="204px" height="238px" viewBox="0 0 204 238" version="1.1" xmlns="http://www.w3.org/2000/svg" xmlns:xlink="http://www.w3.org/1999/xlink">
    <g id="Page-1" stroke="none" stroke-width="1" fill="none" fill-rule="evenodd">
        <path d="M169.970475,136.900375 C168.360125,136.900375 168.358124,139.396007 169.970475,139.396007 C171.580825,139.396007 171.583828,136.900375 169.970475,136.900375 L169.970475,136.900375 Z M172.789839,131.106517 C171.179489,131.106517 171.176486,133.602148 172.789839,133.602148 C174.400188,133.602148 174.40219,131.106517 172.789839,131.106517 L172.789839,131.106517 Z M154.3714,142.249013 C152.76105,142.249013 152.759048,144.744645 154.3714,144.744645 C155.981749,144.744645 155.984752,142.249013 154.3714,142.249013 L154.3714,142.249013 Z M162.284032,134.82401 C160.673682,134.82401 160.67068,137.319642 162.284032,137.319642 C163.893381,137.319642 163.896384,134.82401 162.284032,134.82401 L162.284032,134.82401 Z M131.145931,155.267227 C129.536582,155.267227 129.53358,157.762859 131.145931,157.762859 C132.756281,157.762859 132.759284,155.267227 131.145931,155.267227 L131.145931,155.267227 Z M136.152128,147.18138 C134.542779,147.18138 134.539776,149.677012 136.152128,149.677012 C137.762477,149.677012 137.76548,147.18138 136.152128,147.18138 L136.152128,147.18138 Z M130.636504,145.863686 C129.026154,145.863686 129.023152,148.359318 130.636504,148.359318 C132.245853,148.359318 132.248856,145.863686 130.636504,145.863686 L130.636504,145.863686 Z M141.804866,145.219813 C140.194516,145.219813 140.191513,147.715445 141.804866,147.715445 C143.415216,147.715445 143.417217,145.219813 141.804866,145.219813 L141.804866,145.219813 Z M147.79889,141.018168 C146.189541,141.018168 146.186539,143.5138 147.79889,143.5138 C149.408239,143.5138 149.411242,141.018168 147.79889,141.018168 L147.79889,141.018168 Z M175.076756,152.520035 C173.465405,152.520035 173.464404,155.015667 175.076756,155.015667 C176.686105,155.015667 176.689107,152.520035 175.076756,152.520035 L175.076756,152.520035 Z M159.327554,140.898377 C157.718205,140.898377 157.715202,143.394009 159.327554,143.394009 C160.937904,143.394009 160.940906,140.898377 159.327554,140.898377 L159.327554,140.898377 Z M141.138307,190.371781 C142.748657,190.371781 142.750659,187.87615 141.138307,187.87615 C139.528958,187.87615 139.524955,190.371781 141.138307,190.371781 L141.138307,190.371781 Z M143.25308,196.458128 C144.862429,196.458128 144.865431,193.962496 143.25308,193.962496 C141.64273,193.962496 141.640728,196.458128 143.25308,196.458128 L143.25308,196.458128 Z M157.026625,185.155911 C158.636975,185.155911 158.638977,182.660279 157.026625,182.660279 C155.417276,182.660279 155.413273,185.155911 157.026625,185.155911 L157.026625,185.155911 Z M148.046097,186.418701 C149.655446,186.418701 149.658449,183.923069 148.046097,183.923069 C146.435748,183.923069 146.433746,186.418701 148.046097,186.418701 L148.046097,186.418701 Z M149.259114,190.450643 C150.868463,190.450643 150.871466,187.955012 149.259114,187.955012 C147.649765,187.955012 147.646763,190.450643 149.259114,190.450643 L149.259114,190.450643 Z M160.628645,181.792798 C162.239995,181.792798 162.241997,179.297166 160.628645,179.297166 C159.020296,179.297166 159.016293,181.792798 160.628645,181.792798 L160.628645,181.792798 Z M154.134201,181.703953 C155.74355,181.703953 155.746552,179.208321 154.134201,179.208321 C152.524852,179.208321 152.521849,181.703953 154.134201,181.703953 L154.134201,181.703953 Z M148.787719,193.767837 C147.17837,193.767837 147.175368,196.263469 148.787719,196.263469 C150.398069,196.263469 150.401071,193.767837 148.787719,193.767837 L148.787719,193.767837 Z M159.821968,188.059828 C161.430317,188.059828 161.433319,185.564196 159.821968,185.564196 C158.210618,185.564196 158.208616,188.059828 159.821968,188.059828 L159.821968,188.059828 Z M160.439486,189.648048 C158.829136,189.648048 158.827135,192.14368 160.439486,192.14368 C162.049836,192.14368 162.051838,189.648048 160.439486,189.648048 L160.439486,189.648048 Z M155.513357,189.394492 C157.123707,189.394492 157.125708,186.89886 155.513357,186.89886 C153.904008,186.89886 153.901005,189.394492 155.513357,189.394492 L155.513357,189.394492 Z M134.044361,154.130217 C135.654711,154.130217 135.656712,151.634585 134.044361,151.634585 C132.434011,151.634585 132.431008,154.130217 134.044361,154.130217 L134.044361,154.130217 Z M134.848034,166.98871 C136.458384,166.98871 136.460386,164.493078 134.848034,164.493078 C133.238685,164.493078 133.235683,166.98871 134.848034,166.98871 L134.848034,166.98871 Z M134.736941,159.994952 C133.127592,159.994952 133.12459,162.490583 134.736941,162.490583 C136.347291,162.490583 136.350294,159.994952 134.736941,159.994952 L134.736941,159.994952 Z M130.529414,177.893623 C128.919065,177.893623 128.917063,180.389254 130.529414,180.389254 C132.137763,180.389254 132.140765,177.893623 130.529414,177.893623 L130.529414,177.893623 Z M133.672049,181.485336 C132.061699,181.485336 132.059697,183.980968 133.672049,183.980968 C135.281398,183.980968 135.2844,181.485336 133.672049,181.485336 L133.672049,181.485336 Z M135.22435,168.500065 C133.615001,168.500065 133.611998,170.995696 135.22435,170.995696 C136.835701,170.995696 136.837702,168.500065 135.22435,168.500065 L135.22435,168.500065 Z M133.161621,174.577427 C134.77097,174.577427 134.773972,172.081795 133.161621,172.081795 C131.552272,172.081795 131.549269,174.577427 133.161621,174.577427 L133.161621,174.577427 Z M131.019825,166.871915 C129.409476,166.871915 129.407474,169.367546 131.019825,169.367546 C132.630175,169.367546 132.633178,166.871915 131.019825,166.871915 L131.019825,166.871915 Z M128.564768,185.771833 C126.954418,185.771833 126.952416,188.267465 128.564768,188.267465 C130.175117,188.267465 130.17812,185.771833 128.564768,185.771833 L128.564768,185.771833 Z M139.605022,186.135197 C141.215372,186.135197 141.218374,183.639565 139.605022,183.639565 C137.994672,183.639565 137.99267,186.135197 139.605022,186.135197 L139.605022,186.135197 Z M137.842544,196.214554 C139.451893,196.214554 139.454896,193.718923 137.842544,193.718923 C136.231194,193.718923 136.229192,196.214554 137.842544,196.214554 L137.842544,196.214554 Z M132.559116,200.368284 C130.949767,200.368284 130.946764,202.863916 132.559116,202.863916 C134.169466,202.863916 134.172468,200.368284 132.559116,200.368284 L132.559116,200.368284 Z M132.364953,197.035118 C133.974302,197.035118 133.977305,194.539486 132.364953,194.539486 C130.754603,194.539486 130.752601,197.035118 132.364953,197.035118 L132.364953,197.035118 Z M133.150612,188.59589 C131.540262,188.59589 131.53826,191.091522 133.150612,191.091522 C134.759961,191.091522 134.763964,188.59589 133.150612,188.59589 L133.150612,188.59589 Z M177.441738,148.885397 C175.831388,148.885397 175.829386,151.381029 177.441738,151.381029 C179.052088,151.381029 179.054089,148.885397 177.441738,148.885397 L177.441738,148.885397 Z M178.656756,133.142952 C180.266105,133.142952 180.268107,130.64732 178.656756,130.64732 C177.047407,130.64732 177.044405,133.142952 178.656756,133.142952 L178.656756,133.142952 Z M176.515962,139.219316 C178.126312,139.219316 178.129314,136.723685 176.515962,136.723685 C174.906613,136.723685 174.90361,139.219316 176.515962,139.219316 L176.515962,139.219316 Z M176.201698,146.150185 C177.811047,146.150185 177.81405,143.654553 176.201698,143.654553 C174.591349,143.654553 174.589347,146.150185 176.201698,146.150185 L176.201698,146.150185 Z M34.6550491,158.091284 C36.2653989,158.091284 36.2674006,155.595652 34.6550491,155.595652 C33.0457001,155.595652 33.0426976,158.091284 34.6550491,158.091284 L34.6550491,158.091284 Z M37.8387177,160.854447 C39.4490676,160.854447 39.4510693,158.358815 37.8387177,158.358815 C36.2293687,158.358815 36.2253654,160.854447 37.8387177,160.854447 L37.8387177,160.854447 Z M52.7502171,165.261733 C51.1408681,165.261733 51.1378656,167.757365 52.7502171,167.757365 C54.3605669,167.757365 54.3625686,165.261733 52.7502171,165.261733 L52.7502171,165.261733 Z M52.831285,158.234034 C51.221936,158.234034 51.2189335,160.729666 52.831285,160.729666 C54.4426357,160.729666 54.4446374,158.234034 52.831285,158.234034 L52.831285,158.234034 Z M44.511311,162.564454 C46.12066,162.564454 46.1236625,160.068822 44.511311,160.068822 C42.9009611,160.068822 42.8979586,162.564454 44.511311,162.564454 L44.511311,162.564454 Z M42.5626775,154.136207 C40.9523277,154.136207 40.950326,156.631838 42.5626775,156.631838 C44.1730274,156.631838 44.1760299,154.136207 42.5626775,154.136207 L42.5626775,154.136207 Z M59.6399923,162.682248 C58.0306433,162.682248 58.0276408,165.17788 59.6399923,165.17788 C61.2503422,165.17788 61.2523439,162.682248 59.6399923,162.682248 L59.6399923,162.682248 Z M90.4147889,158.702214 C88.8054399,158.702214 88.8024373,161.197846 90.4147889,161.197846 C92.0251387,161.197846 92.0271404,158.702214 90.4147889,158.702214 L90.4147889,158.702214 Z M78.9832065,163.443915 C77.3738575,163.443915 77.370855,165.939546 78.9832065,165.939546 C80.5935564,165.939546 80.595558,163.443915 78.9832065,163.443915 L78.9832065,163.443915 Z M69.193,164.49208 C70.8013482,164.49208 70.8043507,161.996448 69.193,161.996448 C67.5826502,161.996448 67.5806485,164.49208 69.193,164.49208 L69.193,164.49208 Z M59.3357373,171.867171 C60.9460872,171.867171 60.9490897,169.371539 59.3357373,169.371539 C57.7263883,169.371539 57.7233858,171.867171 59.3357373,171.867171 L59.3357373,171.867171 Z M62.3802894,181.278697 C63.9916401,181.278697 63.9936417,178.783066 62.3802894,178.783066 C60.7719412,178.783066 60.7679378,181.278697 62.3802894,181.278697 L62.3802894,181.278697 Z M8.07376772,161.558215 C6.46341786,161.558215 6.46041535,164.053847 8.07376772,164.053847 C9.68411757,164.053847 9.68611925,161.558215 8.07376772,161.558215 L8.07376772,161.558215 Z M13.6714599,144.66778 C12.0621109,144.66778 12.0591084,147.163411 13.6714599,147.163411 C15.2828106,147.163411 15.2848123,144.66778 13.6714599,144.66778 L13.6714599,144.66778 Z M6.75366116,153.013172 C8.36301017,153.013172 8.36701353,150.517541 6.75366116,150.517541 C5.14331131,150.517541 5.14130963,153.013172 6.75366116,153.013172 L6.75366116,153.013172 Z M9.93732982,153.280704 C8.32697997,153.280704 8.32497829,155.776336 9.93732982,155.776336 C11.5466788,155.776336 11.5496814,153.280704 9.93732982,153.280704 L9.93732982,153.280704 Z M44.871613,150.874915 C42.4145534,149.856697 39.9504879,148.854452 37.4804174,147.86119 C32.617341,145.933564 27.7322461,144.026901 22.8081186,142.231045 C17.8939994,140.424207 12.9508559,138.677265 7.93665278,137.118993 C10.0183978,138.14919 12.1191587,139.139456 14.2279264,140.107761 C13.3591982,140.699725 13.5853878,142.400748 14.9175044,142.400748 C15.8042477,142.400748 16.2005799,141.644072 16.1115052,140.96526 C18.1462108,141.883653 20.1889231,142.784077 22.2376404,143.668529 C22.5188761,143.791314 22.8031144,143.906113 23.085351,144.026901 C21.761241,144.300423 21.8523174,146.49558 23.3655859,146.49558 C24.4665087,146.49558 24.8158015,145.327625 24.4094609,144.589916 C25.806632,145.187869 27.204804,145.786821 28.6069794,146.370799 C27.5540968,146.84996 27.7292436,148.756623 29.1384249,148.756623 C30.138263,148.756623 30.5175809,147.795305 30.2753779,147.065583 C32.2099996,147.864185 34.1466229,148.653803 36.0862488,149.440426 C36.0031791,150.117241 36.3985105,150.862936 37.2802496,150.862936 C37.7666573,150.862936 38.1019384,150.633338 38.2961011,150.316892 C38.9886817,150.589415 39.6842648,150.858943 40.3768453,151.130468 C40.4318914,151.706459 40.8272228,152.241523 41.5738487,152.241523 C41.932149,152.241523 42.2043772,152.114745 42.4025433,151.92308 C43.1141398,152.200595 43.8247354,152.478109 44.5363319,152.75163 C44.7364997,153.021158 45.051764,153.207832 45.4901314,153.207832 C45.5641935,153.207832 45.6302489,153.198847 45.6973051,153.188865 C46.3608613,153.441423 47.0264192,153.687991 47.6919771,153.938553 C46.6130727,154.401742 46.7802128,156.333361 48.1994024,156.333361 C49.24628,156.333361 49.6105853,155.279206 49.2953211,154.540499 C50.0019134,154.804038 50.7035015,155.078557 51.4120954,155.337105 C53.0094344,155.924077 54.6107767,156.501067 56.2151215,157.071069 C55.826796,157.809776 56.1760888,158.954772 57.2690049,158.954772 C58.0056224,158.954772 58.4019546,158.431688 58.4640066,157.863682 C60.0373254,158.409726 61.6186509,158.941795 63.2039798,159.45889 C62.258187,160.007929 62.4603565,161.791807 63.8265016,161.791807 C64.8693758,161.791807 65.2326803,160.747634 64.9254228,160.010924 C65.3828062,160.154672 65.8361862,160.307405 66.2945704,160.449157 C65.7801392,160.193604 65.259703,159.949032 64.7422693,159.698471 C64.5581149,159.479853 64.2858867,159.331114 63.9285872,159.306157 C59.9822793,157.415467 55.9959378,155.628594 51.992582,153.890636 C50.2210971,153.120984 48.4376021,152.375289 46.655108,151.629594 L44.871613,150.874915 Z M9.37886169,145.783826 C10.9882107,145.783826 10.9922141,143.288194 9.37886169,143.288194 C7.76851184,143.288194 7.76651016,145.783826 9.37886169,145.783826 L9.37886169,145.783826 Z M12.6506042,158.446662 C11.0402543,158.446662 11.0372518,160.942293 12.6506042,160.942293 C14.2599532,160.942293 14.2629557,158.446662 12.6506042,158.446662 L12.6506042,158.446662 Z M24.9288963,155.651554 C26.540247,155.651554 26.5422486,153.155922 24.9288963,153.155922 C23.3195473,153.155922 23.3165448,155.651554 24.9288963,155.651554 L24.9288963,155.651554 Z M29.3666161,151.381029 C27.7572671,151.381029 27.7542646,153.876661 29.3666161,153.876661 C30.9759651,153.876661 30.9789677,151.381029 29.3666161,151.381029 L29.3666161,151.381029 Z M17.5887435,148.12972 C19.1980925,148.12972 19.2020959,145.634088 17.5887435,145.634088 C15.9783937,145.634088 15.976392,148.12972 17.5887435,148.12972 L17.5887435,148.12972 Z M20.2980145,151.254251 C21.9083644,151.254251 21.9113669,148.758619 20.2980145,148.758619 C18.6876647,148.758619 18.685663,151.254251 20.2980145,151.254251 L20.2980145,151.254251 Z M14.6612896,151.552729 C16.2706386,151.552729 16.2736411,149.057097 14.6612896,149.057097 C13.0509398,149.057097 13.0479372,151.552729 14.6612896,151.552729 L14.6612896,151.552729 Z M5.59468967,139.311156 C7.20503952,139.311156 7.2070412,136.815524 5.59468967,136.815524 C3.98534065,136.815524 3.98233814,139.311156 5.59468967,139.311156 L5.59468967,139.311156 Z M43.4744418,210.335837 C41.8630911,210.335837 41.8610894,212.831469 43.4744418,212.831469 C45.08279,212.831469 45.0867933,210.335837 43.4744418,210.335837 L43.4744418,210.335837 Z M52.4819923,201.771827 C50.8706416,201.771827 50.8686399,204.267459 52.4819923,204.267459 C54.0903404,204.267459 54.0933429,201.771827 52.4819923,201.771827 L52.4819923,201.771827 Z M55.9078639,213.820737 C54.2985149,213.820737 54.2955124,216.316369 55.9078639,216.316369 C57.5192146,216.316369 57.5212163,213.820737 55.9078639,213.820737 L55.9078639,213.820737 Z M57.1549093,209.058074 C55.5445594,209.058074 55.5425577,211.553705 57.1549093,211.553705 C58.7642583,211.553705 58.7672608,209.058074 57.1549093,209.058074 L57.1549093,209.058074 Z M51.6152657,212.441152 C50.0049159,212.441152 50.0029142,214.936784 51.6152657,214.936784 C53.2246148,214.936784 53.2286181,212.441152 51.6152657,212.441152 L51.6152657,212.441152 Z M59.8261484,214.788044 C58.2147977,214.788044 58.212796,217.283676 59.8261484,217.283676 C61.4344966,217.283676 61.4384999,214.788044 59.8261484,214.788044 L59.8261484,214.788044 Z M62.5354194,217.911577 C60.9240687,217.911577 60.922067,220.407209 62.5354194,220.407209 C64.1447684,220.407209 64.1477709,217.911577 62.5354194,217.911577 L62.5354194,217.911577 Z M56.8976937,218.210054 C55.2873438,218.210054 55.2843413,220.705686 56.8976937,220.705686 C58.5070427,220.705686 58.5100452,218.210054 56.8976937,218.210054 L56.8976937,218.210054 Z M63.6113213,202.649291 C65.2206703,202.649291 65.2236728,200.15366 63.6113213,200.15366 C62.0009714,200.15366 61.9979689,202.649291 63.6113213,202.649291 L63.6113213,202.649291 Z M37.5684912,203.150414 C39.1778402,203.150414 39.1808428,200.654782 37.5684912,200.654782 C35.9581414,200.654782 35.9561397,203.150414 37.5684912,203.150414 L37.5684912,203.150414 Z M61.3284076,178.262976 C62.9377566,178.262976 62.9407592,175.767344 61.3284076,175.767344 C59.7180578,175.767344 59.7150553,178.262976 61.3284076,178.262976 L61.3284076,178.262976 Z M55.857822,172.345334 C54.2474721,172.345334 54.2444696,174.840966 55.857822,174.840966 C57.4681718,174.840966 57.4701735,172.345334 55.857822,172.345334 L55.857822,172.345334 Z M56.9987784,203.83821 C58.6101291,203.83821 58.6121308,201.342579 56.9987784,201.342579 C55.3894294,201.342579 55.3864269,203.83821 56.9987784,203.83821 L56.9987784,203.83821 Z M52.2207733,192.256482 C53.8301223,192.256482 53.832124,189.760851 52.2207733,189.760851 C50.6114243,189.760851 50.6084218,192.256482 52.2207733,192.256482 L52.2207733,192.256482 Z M58.4279764,183.164397 C56.8176265,183.164397 56.8156249,185.660029 58.4279764,185.660029 C60.0373254,185.660029 60.0403279,183.164397 58.4279764,183.164397 L58.4279764,183.164397 Z M54.9490602,180.781568 C53.3397112,180.781568 53.3367087,183.277199 54.9490602,183.277199 C56.5594101,183.277199 56.5624126,180.781568 54.9490602,180.781568 L54.9490602,180.781568 Z M48.5607053,194.878892 L48.5607053,169.901611 L39.8624141,166.397744 L39.8624141,191.364045 L48.5607053,194.878892 Z M23.3695892,184.705699 L23.3695892,159.739399 L16.5528752,156.98522 L16.5528752,181.950522 L23.3695892,184.705699 Z M37.8607362,165.590158 L25.3712671,160.548982 L25.3712671,185.515282 L37.8607362,190.55546 L37.8607362,165.590158 Z M50.5273538,196.608864 C50.464301,196.838462 50.321181,197.045101 50.1210132,197.183858 C49.9508706,197.294664 49.7507028,197.353561 49.5615442,197.353561 C49.4314352,197.353561 49.3013261,197.334594 49.1812254,197.284681 L38.4722488,192.962247 C38.4722488,192.962247 38.4722488,192.952265 38.4622404,192.952265 L30.6486908,189.797786 C30.5836363,189.80677 30.5175809,189.816753 30.4475222,189.816753 C29.9861354,189.816753 29.6618636,189.610115 29.4646984,189.318625 L27.0636857,188.35032 C26.8765289,188.686731 26.5302386,188.933299 26.0238141,188.933299 C25.1150523,188.933299 24.7197209,188.141685 24.8358183,187.449896 L23.1724239,186.778072 C23.3795976,187.501805 22.9992788,188.417203 22.02246,188.417203 C20.6463065,188.417203 20.4511429,186.604376 21.4219566,186.071309 L19.7175279,185.384511 C19.5283694,185.529257 19.2811622,185.620098 18.9749054,185.620098 C18.2683131,185.620098 17.8729818,185.141935 17.7849079,184.603877 L15.1717175,183.548724 C14.7913987,183.398986 14.5511973,183.028634 14.5511973,182.629333 L14.5511973,181.58017 C14.3710463,181.700958 14.1468584,181.777824 13.8716277,181.777824 C12.2592762,181.777824 12.2622787,179.282192 13.8716277,179.282192 C14.1468584,179.282192 14.3710463,179.359058 14.5511973,179.478848 L14.5511973,166.63433 C14.5431906,166.63433 14.5381864,166.636327 14.5301797,166.636327 C12.9168273,166.636327 12.9198299,164.140695 14.5301797,164.140695 C14.5381864,164.140695 14.5431906,164.142692 14.5511973,164.142692 L14.5511973,155.496825 C14.5511973,155.167402 14.7113316,154.858942 14.9925673,154.668275 C15.2627938,154.489588 15.6130874,154.449658 15.9223467,154.578432 L24.3604198,157.983472 L24.3704282,157.983472 C24.6496622,157.983472 24.899872,158.09328 25.0810238,158.272966 L39.2418939,163.991955 L39.2519023,163.991955 L39.5181255,164.099767 C39.7062832,163.767349 40.0515726,163.523775 40.5519921,163.523775 C41.4567505,163.523775 41.8520819,164.3094 41.7419896,164.998194 L44.4742799,166.101263 C43.8497564,165.405481 44.1460047,163.978978 45.3630249,163.978978 C46.965368,163.978978 46.9713731,166.440669 45.3920492,166.472613 L49.9318546,168.304407 C50.3121734,168.465126 50.5623832,168.824497 50.5623832,169.232782 L50.5623832,176.678749 C50.7285224,176.273458 51.0928278,175.956014 51.6643068,175.956014 C53.2776592,175.956014 53.2756575,178.451646 51.6643068,178.451646 C51.091827,178.451646 50.7275216,178.134201 50.5623832,177.727913 L50.5623832,185.528259 C50.619431,185.52227 50.675478,185.511289 50.73753,185.511289 C52.3508824,185.511289 52.3478798,188.006921 50.73753,188.006921 C50.675478,188.006921 50.619431,187.996938 50.5623832,187.98995 L50.5623832,195.105496 C50.7615501,194.82898 51.0788161,194.633322 51.5261911,194.633322 C53.1385426,194.633322 53.1355401,197.128954 51.5261911,197.128954 C51.0527943,197.128954 50.7225174,196.912333 50.5273538,196.608864 L50.5273538,196.608864 Z M56.6434806,190.643306 C55.0331307,190.643306 55.031129,193.138938 56.6434806,193.138938 C58.2538304,193.138938 58.2558321,190.643306 56.6434806,190.643306 L56.6434806,190.643306 Z M43.3373269,199.951014 C44.9476767,199.951014 44.9496784,197.455383 43.3373269,197.455383 C41.7289787,197.455383 41.7249753,199.951014 43.3373269,199.951014 L43.3373269,199.951014 Z M46.126665,204.212555 C44.5163151,204.212555 44.5143135,206.708187 46.126665,206.708187 C47.7350132,206.708187 47.7380157,204.212555 46.126665,204.212555 L46.126665,204.212555 Z M24.5796035,196.692717 C22.9682528,196.692717 22.9662511,199.188349 24.5796035,199.188349 C26.1889525,199.188349 26.191955,196.692717 24.5796035,196.692717 L24.5796035,196.692717 Z M29.2535213,203.979962 C27.6421706,203.979962 27.640169,206.475594 29.2535213,206.475594 C30.8628703,206.475594 30.8658729,203.979962 29.2535213,203.979962 L29.2535213,203.979962 Z M37.6996011,208.073796 C36.0902521,208.073796 36.0872496,210.569428 37.6996011,210.569428 C39.309951,210.569428 39.3119527,208.073796 37.6996011,208.073796 L37.6996011,208.073796 Z M35.7089325,195.075548 C34.0985826,195.075548 34.096581,197.57118 35.7089325,197.57118 C37.3182815,197.57118 37.321284,195.075548 35.7089325,195.075548 L35.7089325,195.075548 Z M14.6312644,197.704946 C13.0219154,197.704946 13.0189129,200.200577 14.6312644,200.200577 C16.2426151,200.200577 16.2446168,197.704946 14.6312644,197.704946 L14.6312644,197.704946 Z M4.11344804,194.99469 C2.50409902,194.99469 2.50109651,197.490321 4.11344804,197.490321 C5.72379789,197.490321 5.72579957,194.99469 4.11344804,194.99469 L4.11344804,194.99469 Z M30.80282,198.020394 C29.1924702,198.020394 29.1904685,200.516025 30.80282,200.516025 C32.4131699,200.516025 32.4161724,198.020394 30.80282,198.020394 L30.80282,198.020394 Z M25.3292319,191.311137 C23.718882,191.311137 23.7158795,193.806769 25.3292319,193.806769 C26.9385809,193.806769 26.9415834,191.311137 25.3292319,191.311137 L25.3292319,191.311137 Z M13.1520245,172.291428 C11.5416746,172.291428 11.5386721,174.78706 13.1520245,174.78706 C14.7623743,174.78706 14.764376,172.291428 13.1520245,172.291428 L13.1520245,172.291428 Z M9.66610247,181.548226 C8.05575262,181.548226 8.05375094,184.043857 9.66610247,184.043857 C11.2764523,184.043857 11.2794548,181.548226 9.66610247,181.548226 L9.66610247,181.548226 Z M16.4688047,190.697212 C18.0801554,190.697212 18.0821571,188.20158 16.4688047,188.20158 C14.8604566,188.20158 14.8564532,190.697212 16.4688047,190.697212 L16.4688047,190.697212 Z M17.1413685,194.133198 C15.5310186,194.133198 15.529017,196.628829 17.1413685,196.628829 C18.7507175,196.628829 18.75372,194.133198 17.1413685,194.133198 L17.1413685,194.133198 Z M19.9287049,200.89037 C18.3203568,200.89037 18.3163534,203.386002 19.9287049,203.386002 C21.5400556,203.386002 21.5420573,200.89037 19.9287049,200.89037 L19.9287049,200.89037 Z M6.60153364,175.634577 C4.99018295,175.634577 4.98918211,178.130208 6.60153364,178.130208 C8.20988181,178.130208 8.21288433,175.634577 6.60153364,175.634577 L6.60153364,175.634577 Z M6.25124001,186.845953 C4.64289184,186.845953 4.63888848,189.341585 6.25124001,189.341585 C7.8625907,189.341585 7.86459238,186.845953 6.25124001,186.845953 L6.25124001,186.845953 Z M6.14014689,171.449901 C7.7494959,171.449901 7.75249842,168.95427 6.14014689,168.95427 C4.53079787,168.95427 4.52779536,171.449901 6.14014689,171.449901 L6.14014689,171.449901 Z M201.998322,199.83921 L201.998322,197.91358 L139.116612,220.294406 L139.116612,222.450632 L201.998322,199.83921 Z M125.133892,210.480584 L125.133892,207.626579 L117.498491,204.631821 L117.498491,207.426929 L125.133892,210.480584 Z M125.133892,213.306637 L76.6132199,230.746112 L76.6132199,235.606604 L125.133892,218.168128 L125.133892,213.306637 Z M123.222289,211.869153 L116.476635,209.173871 L106.108944,212.877388 C106.018869,212.967231 105.907776,213.037109 105.787675,213.076041 L73.921964,224.49705 C73.8118717,224.53698 73.7017794,224.555947 73.5906863,224.555947 C73.5506528,224.555947 73.5206276,224.545964 73.4916033,224.53698 L68.8977525,226.184097 L75.6424061,228.969222 L123.222289,211.869153 Z M74.611542,235.536727 L74.611542,230.705183 L2.00167788,200.698706 L2.00167788,205.48932 L74.611542,235.536727 Z M3.72212001,130.36182 L75.6323977,159.121481 L179.240245,121.876672 L121.621948,100.034903 C120.479991,101.362579 119.289993,102.690255 118.047952,104.027914 L162.295041,120.798559 C162.685369,120.948297 162.946588,121.316652 162.946588,121.735919 C162.935578,122.156183 162.67536,122.525537 162.286034,122.665292 L154.189247,125.58019 C154.178238,125.58019 154.168229,125.589174 154.149213,125.589174 L76.0837761,153.651056 C75.972683,153.690986 75.8625907,153.710951 75.7434909,153.710951 C75.6233902,153.710951 75.4932811,153.680005 75.3731805,153.641073 L19.9567284,131.479863 C19.5764096,131.320143 19.3261999,130.950789 19.3261999,130.540507 C19.3352075,130.121241 19.5854172,129.762869 19.9757444,129.613131 L87.2531387,104.467145 C85.9920816,103.128488 84.790074,101.80181 83.6491176,100.484117 L3.72212001,130.36182 Z M91.5567461,108.849475 C90.5959407,107.910119 89.6541513,106.972759 88.7543971,106.044384 L23.0983619,130.580438 L28.0835406,132.576943 L91.5567461,108.849475 Z M150.945528,124.621867 L112.194045,109.93757 C109.401704,112.602905 106.37817,115.278222 103.075401,117.963522 C102.896251,118.11326 102.665057,118.182139 102.445874,118.182139 C102.225689,118.182139 101.994495,118.11326 101.815345,117.963522 C98.6927277,115.42796 95.8193191,112.892398 93.1570876,110.386784 L30.8358477,133.676019 L75.7625068,151.644568 L150.945528,124.621867 Z M116.556702,105.594172 C115.656948,106.523546 114.736176,107.461903 113.785379,108.400261 L153.837952,123.583684 L159.063332,121.706969 L116.556702,105.594172 Z M102.445874,115.89614 C140.227544,84.8914097 142.7997,53.7059953 142.818716,53.396537 C142.818716,53.3556086 142.828724,53.3166768 142.838732,53.2767467 C143.359169,50.5205709 143.620388,47.7164791 143.620388,44.9313541 C143.620388,21.2627825 125.153908,1.9965054 102.445874,1.9965054 C79.7368382,1.9965054 61.270359,21.2627825 61.270359,44.9313541 C61.270359,47.7164791 61.5315779,50.5315517 62.0520142,53.2767467 C62.0620226,53.3166768 62.072031,53.3556086 62.072031,53.396537 C62.0910469,53.7059953 64.6642038,84.8914097 102.445874,115.89614 L102.445874,115.89614 Z M98.7317604,152.938303 L76.6132199,160.888388 L76.6132199,167.756366 L104.384499,157.840722 C103.819025,157.128968 104.128284,155.771344 105.317281,155.771344 C106.148978,155.771344 106.547312,156.435183 106.52129,157.078057 L125.795446,150.197101 C126.105706,150.086295 126.445991,150.137206 126.70621,150.326874 C126.975435,150.505561 127.13557,150.816018 127.13557,151.135459 L127.13557,152.027897 C127.337739,151.816267 127.623979,151.674515 128.003297,151.674515 C129.615648,151.674515 129.612646,154.170147 128.003297,154.170147 C127.623979,154.170147 127.337739,154.029394 127.13557,153.817764 L127.13557,159.919084 C128.599797,160.027894 128.597795,162.283945 127.13557,162.393753 L127.13557,171.357064 C127.288698,171.704456 127.288698,172.118731 127.13557,172.465124 L127.13557,192.746625 C127.305712,192.351316 127.668016,192.046849 128.228486,192.046849 C129.841838,192.046849 129.839836,194.542481 128.228486,194.542481 C127.668016,194.542481 127.305712,194.237016 127.13557,193.841708 L127.13557,195.953012 C127.188614,195.946024 127.237655,195.936042 127.294703,195.936042 C128.907054,195.936042 128.904052,198.431674 127.294703,198.431674 C127.237655,198.431674 127.188614,198.421691 127.13557,198.4167 L127.13557,202.316873 C127.848167,202.780062 127.847166,203.966985 127.13557,204.430174 L127.13557,204.931297 L139.463904,200.4731 C139.572995,199.963992 139.961321,199.525759 140.635886,199.525759 C140.950149,199.525759 141.202361,199.622589 141.394522,199.775322 L153.559719,195.37702 C152.393742,194.975723 152.533859,192.954261 153.985076,192.954261 C155.078993,192.954261 155.427285,194.10325 155.035957,194.841957 L166.418498,190.725163 L166.418498,189.427434 C166.219331,189.623092 165.943099,189.752865 165.580796,189.752865 C163.967443,189.752865 163.971447,187.257233 165.580796,187.257233 C165.9441,187.257233 166.219331,187.387006 166.418498,187.582663 L166.418498,175.302159 C166.418498,175.183366 166.438515,175.073559 166.479549,174.962753 C166.489557,174.953768 166.479549,174.943786 166.489557,174.933803 C166.499566,174.913838 166.508573,174.903856 166.518582,174.882892 C166.559616,174.79305 166.608657,174.723172 166.668708,174.654293 C166.699734,174.624345 166.71875,174.594397 166.749776,174.56445 C166.809826,174.514537 166.878884,174.473609 166.938934,174.444659 C166.979969,174.424694 167.019001,174.393749 167.060036,174.374782 C167.060036,174.374782 167.070044,174.374782 167.080052,174.364799 L171.663895,172.737647 C171.022357,171.859185 170.983324,170.611369 171.602844,169.712942 C171.883078,169.30266 172.284415,169.004182 172.734792,168.813516 L166.513578,171.063578 C167.973802,171.215312 167.925761,173.545234 166.368456,173.545234 C165.162445,173.545234 164.860192,172.150675 165.457692,171.446907 L161.170098,172.998191 C161.072016,173.0501 160.962925,173.093025 160.839822,173.116983 L143.906628,179.242262 C145.315809,179.440914 145.249753,181.717929 143.710463,181.717929 C142.521467,181.717929 142.213208,180.364298 142.77668,179.650547 L138.735293,181.112988 C138.626201,181.152918 138.506101,181.172883 138.395008,181.172883 C138.184831,181.172883 137.984664,181.103005 137.814521,180.983215 C137.555304,180.803529 137.394169,180.493073 137.394169,180.17463 L137.394169,153.041123 C137.394169,152.622855 137.654387,152.252504 138.055723,152.103764 L162.915562,143.108509 C163.095713,142.959769 163.326906,142.848963 163.577116,142.848963 C163.596132,142.848963 163.60614,142.858946 163.61715,142.858946 L172.06423,139.805291 C172.363481,139.694485 172.713775,139.745396 172.973993,139.925081 C173.24522,140.113751 173.405354,140.424207 173.405354,140.743648 L173.405354,148.046865 C173.41236,148.128722 173.41236,148.210579 173.405354,148.292435 L173.405354,159.501815 C173.565489,159.420956 173.753646,159.371044 173.973831,159.371044 C174.141972,159.371044 174.289095,159.402988 174.423208,159.451902 C174.504276,159.105508 174.754485,158.81901 175.115788,158.712197 L176.41788,158.342843 C176.09661,157.423453 176.237729,156.595901 176.857248,156.026897 C177.568844,155.378033 178.499625,155.487841 179.170187,155.557718 C179.309303,155.576685 179.490455,155.597648 179.63958,155.607631 C179.609555,155.527771 179.580531,155.437928 179.559513,155.358068 C179.429404,154.968749 179.279278,154.469623 179.40038,153.900619 C179.500464,153.381528 179.800715,152.952279 180.251093,152.652803 C180.520319,152.4831 180.821571,152.383275 181.120822,152.313397 L181.120822,146.649311 C180.8566,146.226052 180.8566,145.641076 181.120822,145.218815 L181.120822,142.486598 C181.071781,142.492587 181.02374,142.50257 180.970696,142.50257 C179.357344,142.50257 179.360346,140.006938 180.970696,140.006938 C181.02374,140.006938 181.071781,140.015922 181.120822,140.020913 L181.120822,128.513056 C180.418233,128.04787 180.419234,126.872927 181.120822,126.407741 L181.120822,123.324139 L175.099775,125.488351 L172.921949,126.270981 L169.412007,127.532772 L167.59048,128.187626 L145.164682,136.247518 L142.875764,137.070078 L138.379995,138.687248 L136.090076,139.509808 L129.694715,141.807786 L127.478857,142.604391 L115.367705,146.95877 L113.346011,147.684499 L108.305786,149.496328 L106.114949,150.283949 L98.7317604,152.938303 Z M173.792679,161.849705 C173.648558,161.82974 173.518449,161.792805 173.405354,161.735904 L173.405354,162.664279 C173.493428,162.373788 173.621536,162.097272 173.792679,161.849705 L173.792679,161.849705 Z M173.535464,164.861434 C173.474412,164.721678 173.444387,164.570942 173.405354,164.422202 L173.405354,164.871416 C173.444387,164.861434 173.49543,164.871416 173.535464,164.861434 L173.535464,164.861434 Z M175.168833,160.797547 C175.237891,160.771592 175.304947,160.739648 175.377007,160.718685 C175.312954,160.694727 175.247899,160.673763 175.179842,160.654797 C175.17784,160.702713 175.173837,160.749631 175.168833,160.797547 L175.168833,160.797547 Z M148.093137,175.602633 L148.093137,150.595404 L139.395847,153.740898 L139.395847,178.74613 L148.093137,175.602633 Z M162.576277,170.361806 L162.576277,145.365558 L150.094815,149.876662 L150.094815,174.873908 L162.576277,170.361806 Z M171.403677,167.167397 L171.403677,142.17115 L164.577955,144.635836 L164.577955,169.633081 L171.403677,167.167397 Z M184.654784,153.839725 C184.49465,153.561213 184.254449,153.321632 183.964205,153.161912 C183.914163,153.290687 183.873129,153.420459 183.844105,153.55123 C183.723003,154.089289 183.192558,154.428695 182.653106,154.309903 C181.931501,154.150182 181.431082,154.249009 181.331999,154.328869 C181.351015,154.37978 181.422074,154.619361 181.471115,154.779081 C181.621241,155.257244 181.842427,155.976985 181.422074,156.705709 C180.810562,157.752876 179.63958,157.624101 178.938993,157.544241 C178.739826,157.524276 178.419558,157.484346 178.259423,157.503313 C178.278439,157.654049 178.399541,157.963507 178.698792,158.362808 C178.888951,158.622354 178.949001,158.96176 178.848917,159.280203 C178.739826,159.590659 178.489616,159.829242 178.169348,159.919084 L177.738987,160.039873 C178.188364,160.567949 178.509633,161.207829 178.649751,161.886641 C178.678775,162.036378 178.669767,162.196099 178.638741,162.335854 C178.569683,162.585417 178.399541,162.814017 178.159339,162.944788 C177.77802,163.163406 177.307626,163.104509 176.988358,162.824 C176.798198,162.645313 176.507955,162.55547 176.186686,162.585417 C175.877427,162.615365 175.606199,162.75512 175.446065,162.954771 C175.286932,163.163406 175.225881,163.46388 175.286932,163.77234 C175.336974,164.082796 175.497108,164.342342 175.716292,164.481099 C176.007536,164.671766 176.186686,165.001189 176.176678,165.340595 C176.176678,165.689983 175.987519,166.009424 175.676258,166.18911 C175.195855,166.46862 174.666412,166.668271 174.125959,166.788061 C174.406193,167.616611 174.775503,168.425196 175.215872,169.203833 C175.417041,169.573186 175.377007,170.0224 175.095771,170.341841 C174.816537,170.661282 174.365159,170.781072 173.974832,170.621352 C173.74564,170.531509 173.395346,170.631334 173.255229,170.840967 C173.104102,171.049602 173.12512,171.409971 173.30427,171.599639 C173.474412,171.789307 173.825707,171.929063 174.125959,172.03887 C175.397024,172.507051 176.717131,172.847455 178.058255,173.037123 C178.608716,173.107001 178.990036,173.61611 178.909969,174.165149 C178.83991,174.664275 178.409549,175.023646 177.919138,175.023646 C177.879105,175.023646 177.829063,175.013664 177.77802,175.013664 C176.457913,174.823996 175.146814,174.503556 173.884756,174.065323 L170.242703,175.363052 L179.410388,179.026639 L200.177796,171.638571 L197.105221,170.411719 C196.283532,170.910845 195.442827,171.299165 194.74224,171.619604 C194.24182,171.849202 193.651325,171.619604 193.422133,171.120478 C193.190939,170.621352 193.412125,170.032383 193.922553,169.801786 C195.242659,169.203833 196.493708,168.584916 197.364438,167.735403 L196.92507,167.676506 C196.573775,167.626594 196.283532,167.395997 196.144415,167.077555 C196.004298,166.758114 196.04333,166.38876 196.243498,166.109249 C196.733909,165.409474 197.425489,165.020156 198.035,164.681748 C198.276202,164.541993 198.516403,164.411222 198.735587,164.262482 C198.896722,164.142692 199.045847,163.981973 199.15594,163.822253 C198.596471,163.843216 198.035,163.803286 197.475531,163.693478 C197.074195,163.6236 196.754927,163.304159 196.67486,162.913843 C196.594793,162.51554 196.774944,162.105258 197.114228,161.876658 C197.194295,161.825747 197.255346,161.756868 197.315397,161.677007 L197.034161,161.796798 C196.754927,161.91559 196.42465,161.886641 196.164432,161.735904 C195.894205,161.576184 195.713054,161.307654 195.674021,161.008178 C195.523895,159.909102 196.144415,159.07057 196.633825,158.402739 C196.964102,157.953525 197.275363,157.53326 197.225321,157.25375 C197.194295,157.045115 196.895044,156.815517 196.564768,156.744641 C196.073356,156.635831 195.473853,156.744641 194.902374,156.855447 C194.612131,156.90536 194.31288,156.834484 194.092695,156.655796 C193.861502,156.476111 193.722385,156.1966 193.711376,155.907107 C193.691359,155.238278 193.251991,154.569448 192.641479,154.279955 C192.020959,153.999446 191.229295,154.100269 190.698851,154.519536 C190.398599,154.748135 189.999264,154.799046 189.658979,154.639326 C189.317693,154.489588 189.088501,154.150182 189.078492,153.770846 C189.058475,153.371545 188.817273,152.972244 188.427947,152.681752 C188.217771,152.533013 187.997586,152.432189 187.767393,152.393257 C187.467142,153.290687 186.72552,154.050357 185.805749,154.319885 C185.354371,154.449658 184.873968,154.249009 184.654784,153.839725 L184.654784,153.839725 Z M201.998322,173.107001 L180.390209,180.803529 L180.390209,183.648549 L201.998322,175.961005 L201.998322,173.107001 Z M168.420176,190.746126 L178.388532,194.739137 L178.388532,191.544728 L168.420176,187.631578 L168.420176,190.746126 Z M168.420176,182.340838 L168.420176,186.553465 L178.388532,190.4756 L178.388532,186.263971 L168.420176,182.340838 Z M180.390209,195.158403 L180.390209,196.215553 C180.390209,196.336341 180.370193,196.446149 180.33116,196.555957 C180.310142,196.615852 180.280117,196.6458 180.270109,196.674749 C180.241084,196.72566 180.220067,196.775572 180.190042,196.815503 L180.08095,196.924312 C180.050925,196.955258 180.010891,196.995188 179.969857,197.025136 C179.929824,197.055083 179.880782,197.075048 179.83074,197.094015 C179.810724,197.107991 166.239348,202.023054 139.116612,211.839206 L139.116612,214.005414 L201.998322,191.634571 L201.998322,187.471857 L180.390209,195.158403 Z M180.390209,189.936543 L180.390209,194.099257 L201.998322,186.413709 L201.998322,182.240015 L180.390209,189.936543 Z M180.390209,184.705699 L180.390209,188.868413 L201.998322,181.182865 L201.998322,177.020151 L180.390209,184.705699 Z M168.420176,177.049101 L168.420176,181.272708 L178.388532,185.185859 L178.388532,180.973232 L168.420176,177.049101 Z M138.125782,210.0713 L176.588022,196.166638 L167.400321,192.493068 L128.93708,206.398728 L138.125782,210.0713 Z M137.114935,212.338332 L127.13557,208.414201 L127.13557,211.958996 L127.13557,212.627825 L137.114935,216.550958 L137.114935,212.338332 Z M127.13557,217.918565 L137.114935,221.831715 L137.114935,217.619089 L127.13557,213.705938 L127.13557,217.918565 Z M72.5898474,204.11273 L67.2954094,206.029375 L67.2954094,210.271949 L72.5898474,208.355304 L72.5898474,204.11273 Z M67.2954094,168.924322 L67.2954094,173.166896 L75.5923642,170.172138 C75.4532476,170.162155 75.3231385,170.132208 75.2030378,170.082295 L69.9276158,167.974984 L67.2954094,168.924322 Z M67.2954094,166.917834 L67.2954094,167.866174 L68.5374505,167.41696 L67.2954094,166.917834 Z M72.5898474,177.619103 L67.2954094,179.525766 L67.2954094,183.76834 L72.5898474,181.851695 L72.5898474,177.619103 Z M67.2954094,195.426933 L67.2954094,199.669507 L72.5898474,197.752862 L72.5898474,193.510288 L67.2954094,195.426933 Z M72.5898474,188.220547 L67.2954094,190.127209 L67.2954094,194.369783 L72.5898474,192.453138 L72.5898474,188.220547 Z M67.2954094,189.069062 L72.5898474,187.152416 L72.5898474,182.919825 L67.2954094,184.826488 L67.2954094,189.069062 Z M72.5898474,209.412453 L67.2954094,211.329099 L67.2954094,215.56169 L72.5898474,213.655027 L72.5898474,209.412453 Z M72.5898474,214.714173 L67.2954094,216.630819 L67.2954094,220.86341 L72.5898474,218.956747 L72.5898474,214.714173 Z M72.5898474,203.054582 L72.5898474,198.812008 L67.2954094,200.728653 L67.2954094,204.971227 L72.5898474,203.054582 Z M115.496814,172.716684 L106.44923,175.991951 L106.44923,180.224543 L115.496814,176.959258 L115.496814,172.716684 Z M117.498491,162.335854 L117.498491,166.548481 L125.133892,169.552223 L125.133892,165.340595 L117.498491,162.335854 Z M117.498491,157.055097 L117.498491,161.267724 L125.133892,164.262482 L125.133892,160.049856 L117.498491,157.055097 Z M125.133892,152.552978 L123.613617,153.102017 L125.133892,153.690986 L125.133892,152.552978 Z M125.133892,195.986953 L125.133892,191.773328 L117.498491,188.768587 L117.498491,192.982212 L125.133892,195.986953 Z M117.498491,187.700457 L125.133892,190.695215 L125.133892,186.482589 L117.498491,183.487831 L117.498491,187.700457 Z M117.498491,182.410716 L125.133892,185.415457 L125.133892,181.201832 L117.498491,178.19809 L117.498491,182.410716 Z M106.44923,201.426432 L115.496814,198.163144 L115.496814,193.92057 L106.44923,197.183858 L106.44923,201.426432 Z M106.44923,196.126708 L115.496814,192.861424 L115.496814,188.61885 L106.44923,191.884134 L106.44923,196.126708 Z M106.44923,190.825986 L115.496814,187.560702 L115.496814,183.318128 L106.44923,186.583412 L106.44923,190.825986 Z M106.44923,174.923821 L115.496814,171.659534 L115.496814,167.41696 L106.44923,170.691229 L106.44923,174.923821 Z M117.498491,172.917333 L117.498491,177.128961 L125.133892,180.123719 L125.133892,175.912091 L117.498491,172.917333 Z M117.498491,167.626594 L117.498491,171.83922 L125.133892,174.843961 L125.133892,170.621352 L117.498491,167.626594 Z M106.44923,181.281692 L106.44923,185.524266 L115.496814,182.260978 L115.496814,178.018404 L106.44923,181.281692 Z M106.44923,165.390507 L106.44923,169.623099 L115.496814,166.358813 L115.496814,162.116239 L106.44923,165.390507 Z M115.496814,203.463866 L115.496814,199.221292 L106.44923,202.485578 L106.44923,206.728152 L115.496814,203.463866 Z M125.133892,201.26771 L125.133892,197.055083 L117.498491,194.060325 L117.498491,198.272951 L125.133892,201.26771 Z M117.498491,155.278208 L117.498491,155.976985 L125.133892,158.981725 L125.133892,154.769099 L122.181417,153.611126 L117.498491,155.278208 Z M67.2954094,174.224046 L67.2954094,178.46662 L72.5898474,176.549974 L72.5898474,176.300411 C72.5898474,175.881145 72.8500655,175.501809 73.2514019,175.363052 L88.9145313,169.822749 C89.0146152,169.761856 89.1237066,169.721926 89.2548165,169.702959 L105.117113,164.092779 C105.417365,163.981973 105.758651,164.032884 106.028877,164.222552 C106.098936,164.271466 106.167994,164.342342 106.218036,164.411222 L115.496814,161.058091 L115.496814,156.815517 L67.2954094,174.224046 Z M69.4392064,158.790061 L51.3640552,151.564708 L50.3401969,151.154426 L10.209558,135.111507 L9.40888686,134.790069 L3.41986665,132.396259 L2.00167788,131.781336 L2.00167788,141.438432 C2.59017117,141.917593 2.59017117,142.942799 2.00167788,143.42196 L2.00167788,159.954023 C2.01568962,159.953025 2.02769969,159.949032 2.04271227,159.949032 C3.6550638,159.949032 3.65206129,162.444664 2.04271227,162.444664 C2.02769969,162.444664 2.01568962,162.441669 2.00167788,162.440671 L2.00167788,179.788306 C2.19884315,179.599636 2.47207218,179.472858 2.82737,179.472858 C4.44072237,179.472858 4.43771985,181.96849 2.82737,181.96849 C2.47207218,181.96849 2.19884315,181.843709 2.00167788,181.655039 L2.00167788,187.426936 C3.30176766,187.643557 3.29976598,189.659029 2.00167788,189.876648 L2.00167788,198.54248 L23.4216328,207.393986 C23.5127092,207.374021 23.6097906,207.363041 23.7138778,207.363041 C24.2172998,207.363041 24.5635901,207.607612 24.7537495,207.943025 L27.2618518,208.981208 C27.4530121,208.833467 27.7002193,208.741628 28.0074769,208.741628 C28.7220759,208.741628 29.1184081,209.233766 29.1984752,209.780809 L30.8128284,210.447641 C30.9749643,210.034365 31.3442739,209.708934 31.9237596,209.708934 C32.9145902,209.708934 33.2929073,210.651285 33.064716,211.378013 L43.1831977,215.559693 C43.3313218,215.493809 43.5034661,215.455875 43.7006314,215.455875 C44.3041373,215.455875 44.6804527,215.803267 44.8325803,216.240502 L65.2937315,224.6967 L65.2937315,215.612601 C64.0947265,215.337083 64.0967281,213.464361 65.2937315,213.188843 L65.2937315,210.510531 C64.2848859,210.142176 64.2858867,208.544972 65.2937315,208.176617 L65.2937315,198.037364 C65.1145813,198.154159 64.8933959,198.229028 64.6231694,198.229028 C63.0098171,198.229028 63.0128196,195.733397 64.6231694,195.733397 C64.8933959,195.733397 65.1145813,195.807267 65.2937315,195.924063 L65.2937315,194.267962 C65.1946485,194.292918 65.0885595,194.307892 64.9724622,194.307892 C63.3601107,194.307892 63.3621124,191.81226 64.9724622,191.81226 C65.0885595,191.81226 65.1946485,191.82923 65.2937315,191.853188 L65.2937315,176.322373 C65.104573,176.653793 64.7602844,176.893373 64.2608657,176.893373 C62.6485142,176.893373 62.6505159,174.397742 64.2608657,174.397742 C64.7602844,174.397742 65.104573,174.638321 65.2937315,174.96974 L65.2937315,167.546733 C63.8955595,167.373037 63.9225822,165.179876 65.3697953,165.078054 C65.439854,164.893378 65.557953,164.728666 65.7250931,164.61187 C66.0043272,164.432185 66.3546208,164.392255 66.6658817,164.512045 L74.611542,167.696471 L74.611542,166.216062 C73.2203759,166.05734 73.2233784,163.911097 74.611542,163.752375 L74.611542,160.857442 L70.0927542,159.051603 L69.4392064,158.790061 Z M72.5898474,222.740125 L72.5898474,220.014895 L67.2954094,221.93154 L67.2954094,224.635807 L72.5898474,222.740125 Z M88.4141118,172.118731 L74.5915252,177.010169 L74.5915252,222.031366 L88.4141118,217.090015 L88.4141118,172.118731 Z M104.447552,211.350062 L104.447552,166.448655 L90.4157897,171.409971 L90.4157897,216.371273 L104.447552,211.350062 Z M115.496814,207.396981 L115.496814,204.522013 L106.44923,207.7863 L106.44923,210.63132 L115.496814,207.396981 Z M125.133892,206.558449 L125.133892,206.358798 L125.133892,202.344824 L117.498491,199.340084 L117.498491,203.563691 L125.133892,206.558449 Z M201.998322,196.854434 L201.998322,192.691721 L139.116612,215.062564 L139.116612,219.225277 L201.998322,196.854434 Z M204,200.538985 C204,200.957253 203.739782,201.336589 203.340447,201.477343 L138.44505,224.816491 C137.984664,224.866403 137.854555,224.846438 137.734454,224.795527 L125.83548,220.03486 L75.953667,237.963479 C75.4832727,238.022376 75.3521628,238.003409 75.233063,237.953496 L0.619519303,207.076542 C0.239200506,206.916822 0,206.558449 0,206.15815 L0,199.170381 L0,130.351838 C0.199166949,129.683008 0.390327186,129.472377 0.65054531,129.372552 L82.2679599,98.8669475 C74.2021989,89.2827233 69.1980042,80.4980996 66.1344362,73.7908397 C60.8800318,62.2310734 60.1404118,54.423739 60.0793606,53.5951893 C59.5389076,50.7411848 59.2686811,47.8262869 59.2686811,44.9313541 C59.2686811,20.1537238 78.6349146,0 102.445874,0 C126.255832,0 145.622066,20.1537238 145.622066,44.9313541 C145.622066,47.8262869 145.351839,50.7411848 144.811386,53.5951893 C144.690285,54.9228654 142.578514,74.839005 122.982088,98.4177338 L182.481963,120.968262 C182.923333,121.316652 182.972374,121.38653 183.0034,121.457406 C183.06345,121.590506 183.10315,131.459898 183.1225,151.065581 C184.453616,151.105511 185.184228,151.474865 185.745699,152.023904 C185.905833,151.01467 186.205084,150.606385 186.645453,150.486595 C187.626275,150.207084 188.707181,150.425701 189.598929,151.075564 C190.068322,151.41497 190.438632,151.833238 190.688842,152.303415 C191.600606,152.023904 192.610453,152.073816 193.481183,152.473118 C194.432981,152.912349 195.163593,153.759865 195.503878,154.739151 C195.98328,154.689239 196.4837,154.689239 196.994127,154.799046 C198.155101,155.04861 199.035839,155.907107 199.205981,156.935307 C199.357108,157.862684 198.945763,158.602389 198.516403,159.221306 C198.795638,159.280203 199.056856,159.460886 199.195973,159.730415 C199.536258,160.379279 199.59731,161.117986 199.427167,161.80678 C200.317914,161.666027 200.697232,161.815765 200.928425,162.126221 C201.268711,162.5954 201.407827,163.153423 201.308744,163.763356 C201.178635,164.551975 200.637181,165.370542 199.886552,165.889634 C200.147771,166.758114 200.156778,167.087537 200.02767,167.37703 C199.757444,167.995947 199.366116,168.51404 198.926747,168.983219 L203.369471,170.760109 C203.829857,171.139445 203.879899,171.219305 203.920934,171.309148 C203.960967,171.415628 203.987323,181.158907 204,200.538985 Z M102.445874,65.6450976 C114.95636,65.6450976 125.133892,55.5018519 125.133892,43.0236932 C125.133892,30.5455344 114.95636,20.3943027 102.445874,20.3943027 C89.935387,20.3943027 79.756855,30.5455344 79.756855,43.0236932 C79.756855,55.5018519 89.935387,65.6450976 102.445874,65.6450976 L102.445874,65.6450976 Z M102.445874,67.641603 C88.8344642,67.641603 77.7551771,56.5999299 77.7551771,43.0236932 C77.7551771,29.4484547 88.8344642,18.3977973 102.445874,18.3977973 C116.056282,18.3977973 127.13557,29.4484547 127.13557,43.0236932 C127.13557,56.5999299 116.056282,67.641603 102.445874,67.641603 L102.445874,67.641603 Z M86.0120984,189.197836 C85.461637,189.197836 85.0112594,189.648048 85.0112594,190.196089 L85.0112594,197.274699 C85.0112594,197.823738 85.461637,198.272951 86.0120984,198.272951 C86.5725682,198.272951 87.0129373,197.823738 87.0129373,197.274699 L87.0129373,190.196089 C87.0129373,189.648048 86.5725682,189.197836 86.0120984,189.197836 L86.0120984,189.197836 Z M93.0179709,186.981715 C92.4675095,186.981715 92.017132,187.431927 92.017132,187.979968 L92.017132,195.048595 C92.017132,195.596636 92.4675095,196.046848 93.0179709,196.046848 C93.5784408,196.046848 94.0188099,195.596636 94.0188099,195.048595 L94.0188099,187.979968 C94.0188099,187.431927 93.5784408,186.981715 93.0179709,186.981715 L93.0179709,186.981715 Z M180.130992,171.87915 C180.520319,171.87915 180.860604,171.569692 180.870612,171.160408 C180.890629,170.751124 180.571361,170.400738 180.161017,170.381771 C179.510472,170.351823 178.868934,170.051349 178.409549,169.593151 C179.279278,169.323623 180.280117,169.363553 181.110813,169.731908 C181.481124,169.901611 181.931501,169.731908 182.101644,169.353571 C182.271787,168.983219 182.101644,168.535004 181.721325,168.365301 C180.180033,167.676506 178.319474,167.786314 176.867256,168.653796 C176.53798,168.854444 176.407871,169.283693 176.588022,169.633081 C177.258584,170.93081 178.629734,171.808274 180.090959,171.87915 L180.130992,171.87915 Z M184.98406,163.603635 C184.344524,163.114491 183.622919,162.734157 182.87229,162.47561 C182.06161,162.186116 181.200889,162.046361 180.321152,162.065328 C180.090959,162.065328 179.880782,162.176134 179.740665,162.355819 C179.71064,162.385767 179.689622,162.425697 179.670606,162.455645 C179.580531,162.625348 179.559513,162.814017 179.599547,162.993703 C180.070942,164.861434 181.131831,166.578428 182.593056,167.836227 C182.732173,167.956017 182.913324,168.014914 183.083467,168.014914 C183.293643,168.014914 183.503819,167.936052 183.653945,167.756366 C183.924172,167.446908 183.884138,166.976731 183.573878,166.708201 C182.612072,165.879651 181.861443,164.810523 181.391048,163.633583 C182.351854,163.803286 183.293643,164.202587 184.063288,164.791556 C184.384558,165.041119 184.863959,164.980226 185.114169,164.660785 C185.364379,164.33236 185.305329,163.863181 184.98406,163.603635 L184.98406,163.603635 Z M183.622919,158.002439 C183.043433,159.011673 182.923333,160.259489 183.312659,161.347584 C183.423752,161.656044 183.713996,161.84671 184.023255,161.84671 C184.103322,161.84671 184.193397,161.825747 184.273465,161.796798 C184.664793,161.666027 184.863959,161.236778 184.723842,160.848458 C184.563708,160.379279 184.544692,159.840222 184.674801,159.351079 C185.245279,159.700467 185.67564,160.289436 185.795741,160.9383 C185.864798,161.347584 186.266135,161.617112 186.66647,161.537252 C186.97573,161.486341 187.216932,161.236778 187.266974,160.948283 C187.28599,160.857442 187.28599,160.768597 187.266974,160.678755 C187.016764,159.231288 185.885816,158.01342 184.453616,157.654049 C184.134348,157.573191 183.794063,157.713944 183.622919,158.002439 L183.622919,158.002439 Z M189.719029,168.824497 C188.106678,168.563953 186.365218,169.104008 185.184228,170.212068 C184.884977,170.491579 184.863959,170.969742 185.144194,171.270216 C185.295321,171.429936 185.495489,171.508798 185.694656,171.508798 C185.885816,171.508798 186.064966,171.439919 186.205084,171.299165 C187.065805,170.501561 188.316854,170.112243 189.477827,170.300913 C189.898179,170.371788 190.278498,170.092278 190.339549,169.682994 C190.409608,169.273711 190.128372,168.884392 189.719029,168.824497 L189.719029,168.824497 Z M186.365218,157.992457 C186.496328,158.072317 186.636445,158.112247 186.775562,158.112247 C187.016764,158.112247 187.256965,157.992457 187.407091,157.773839 C187.597251,157.484346 187.747376,157.163907 187.866476,156.845464 C188.09767,156.975237 188.316854,157.124975 188.52703,157.294678 C188.838291,157.554224 189.317693,157.524276 189.578912,157.204835 C189.849138,156.885394 189.809105,156.415217 189.498845,156.146687 C188.937374,155.67651 188.267813,155.318138 187.566225,155.108505 C187.356048,155.037629 187.136865,155.077559 186.945704,155.188365 C186.766554,155.308155 186.636445,155.506808 186.605419,155.717439 C186.54637,156.15667 186.386236,156.58492 186.145033,156.955272 C185.92585,157.294678 186.015925,157.763857 186.365218,157.992457 L186.365218,157.992457 Z M191.14022,166.976731 C191.359404,166.179127 191.369413,165.450403 191.160237,164.831486 C190.879002,163.963006 190.159398,163.323126 189.33871,163.204334 C187.677318,162.964753 186.656462,164.730662 186.315176,165.309649 C186.115008,165.670018 186.235109,166.129214 186.596412,166.338848 C186.955713,166.538498 187.4171,166.418708 187.616267,166.058339 C188.177737,165.081049 188.697173,164.621853 189.117525,164.691731 C189.367735,164.721678 189.627953,164.980226 189.738045,165.300665 C189.788087,165.450403 189.809105,165.620106 189.809105,165.808775 C189.617944,165.988461 189.518861,166.258987 189.58892,166.538498 L189.688003,166.947782 C189.769071,167.287188 190.059314,167.515787 190.398599,167.526768 L190.419616,167.526768 C190.749893,167.526768 191.050145,167.29717 191.14022,166.976731 L191.14022,166.976731 Z M188.867315,160.259489 C188.52703,160.349331 188.286829,160.657791 188.286829,160.997197 C188.286829,161.058091 188.297838,161.107005 188.307846,161.1669 C188.40793,161.566201 188.808266,161.80678 189.21861,161.716938 C189.948221,161.547235 190.349558,160.958266 190.669826,160.488088 C190.839969,160.248508 191.060153,159.919084 191.189262,159.909102 L191.19927,159.909102 C191.279337,159.909102 191.470497,160.009925 191.58059,160.068822 C192.570419,160.567949 193.110872,161.027145 193.261999,161.477357 L193.312041,161.84671 C193.352075,162.226046 193.672343,162.505557 194.052662,162.505557 L194.102704,162.505557 C194.49203,162.47561 194.803291,162.15517 194.803291,161.756868 C194.803291,161.557217 194.782273,161.356568 194.732231,161.177881 L194.723224,161.127968 L194.702206,160.9383 C194.673182,160.728667 194.56309,160.548982 194.401955,160.439174 C193.821468,159.529766 192.76158,158.981725 192.26116,158.732162 C191.989933,158.592407 191.56958,158.421705 191.14022,158.411723 C190.249474,158.442669 189.778079,159.141446 189.437793,159.640572 C189.248635,159.909102 189.037458,160.219559 188.867315,160.259489 L188.867315,160.259489 Z M195.223643,165.599142 C195.282693,166.009424 194.99245,166.38876 194.583106,166.448655 C194.553081,166.458638 194.513048,166.458638 194.482022,166.458638 C194.111711,166.458638 193.791443,166.18911 193.731392,165.808775 C193.701367,165.590158 193.441149,165.380525 193.210956,165.409474 C192.801613,165.450403 192.421294,165.159911 192.38026,164.751626 C192.331219,164.342342 192.620461,163.972989 193.030805,163.923076 C194.06267,163.793303 195.072517,164.570942 195.223643,165.599142 L195.223643,165.599142 Z" id="Demo-Unit-Icon" fill="#1C496F"></path>
    </g>
</svg>