<svg id="Layer_1" xmlns="http://www.w3.org/2000/svg" viewBox="0 0 130 130"><style>.st0{opacity:.1;fill:#272f3f}.st1{fill:#fff;stroke:#272f3f;stroke-width:3;stroke-miterlimit:10}.st2{clip-path:url(#SVGID_2_)}.st3{stroke:#51c1af;stroke-width:10;stroke-miterlimit:10}.st3,.st4{fill:#fff}.st5{fill:#272f3f}.st6{fill:#51c1af}.st7,.st8,.st9{stroke-linecap:round}.st7{fill:#fff;stroke:#272f3f;stroke-miterlimit:10;stroke-width:3}.st8,.st9{stroke-width:5}.st8{fill:none;stroke:#51c1af;stroke-miterlimit:10}.st9{stroke-dasharray:0,9.1667}.st10,.st11{stroke:#51c1af}.st10,.st11,.st12,.st9{fill:none;stroke-miterlimit:10}.st9{stroke:#51c1af}.st10{stroke-linecap:round;stroke-dasharray:0,9.1173;stroke-width:5}.st11,.st12{stroke-width:3}.st12{stroke:#272f3f}.st13{fill:#d9d8db}.st14{fill:none}</style><path class="st5" d="M39 90.3c-.8 0-1.5.7-1.5 1.5v4.6c0 .8.7 1.5 1.5 1.5s1.5-.7 1.5-1.5v-4.6c0-.8-.6-1.5-1.5-1.5z"/><path class="st4" d="M55.7 30.7c8.5 0 15.7 5.9 17.6 13.9.5-.1 1-.1 1.5-.1h.5c-2-9-10-15.8-19.7-15.8-11.1 0-20.2 9.1-20.2 20.2v37.7l2 .1V48.8c.1-10 8.3-18.1 18.3-18.1z"/><path class="st5" d="M34 90.3c-.8 0-1.5.7-1.5 1.5v4.6c0 .8.7 1.5 1.5 1.5s1.5-.7 1.5-1.5v-4.6c0-.8-.6-1.5-1.5-1.5zm4.7 10.1c-.1 0-.2.1-.3.1-.1 0-.2.1-.3.1-.1.1-.2.1-.2.2-.3.3-.4.7-.4 1.1 0 .4.2.8.4 1.1.3.3.7.4 1.1.4.4 0 .8-.2 1.1-.4.3-.3.4-.7.4-1.1 0-.4-.2-.8-.4-1.1-.4-.4-.9-.5-1.4-.4zm-5.7.4c-.3.3-.4.7-.4 1.1 0 .4.2.8.4 1.1.3.3.7.4 1.1.4.4 0 .8-.2 1.1-.4.3-.3.4-.7.4-1.1 0-.4-.2-.8-.4-1.1-.7-.6-1.7-.6-2.2 0z"/><path class="st13" d="M66.5 51c2.5-.3 5.2-.5 7.9-.5 3 0 6 .2 8.9.6-2.1-2.2-5.1-3.6-8.5-3.6-3.2 0-6.1 1.3-8.3 3.5zm-10.7 8.9c3-1.5 6-2.2 9.1-2.7 3.1-.5 6.2-.7 9.2-.7 3.1 0 6.2.2 9.2.6 3.1.5 6.1 1.1 9.1 2.5.7.3 1.4.7 2.1 1.1v-1.5c0-2.3-7.8-5.7-20-5.7s-20 3.4-20 5.7v1.5c.4-.3.8-.5 1.3-.8z"/><path class="st5" d="M97.5 59.2c0-3.4-4.1-5.8-9.8-7.3-1.9-3.4-5.2-6-9.1-7C76.7 34 67.2 25.7 55.7 25.7c-12.8 0-23.2 10.4-23.2 23.2v37.7c0 .8.7 1.5 1.5 1.5s1.5-.7 1.5-1.5V48.8c0-11.1 9.1-20.2 20.2-20.2 9.6 0 17.7 6.8 19.7 15.8h-.5c-.5 0-1 0-1.5.1-1.9-8-9.1-13.9-17.6-13.9-10 0-18.2 8.2-18.2 18.2v37.8c0 .8.7 1.5 1.5 1.5s1.5-.7 1.5-1.5V48.8c0-8.4 6.8-15.2 15.2-15.2 7.1 0 13.1 4.9 14.7 11.5-3.5 1.1-6.4 3.5-8.2 6.5-6.2 1.4-10.8 3.9-10.8 7.5v6c0 .7.2 1.4.5 1.9.2.5.6.9.9 1.3.2.2.3.4.5.5.2.2.3.3.5.4 1.6.9 3.1 1.3 4.7 1.6 1.6.3 3.1.4 4.6.4-1.4-.6-2.8-1.2-4.1-2-1.3-.7-2.5-1.5-3.4-2.5-.2-.2-.5-.4-.6-.6-.2-.2-.3-.4-.4-.6-.2-.4-.2-.6-.1-1 .3-.7 1.4-1.6 2.6-2.2 2.4-1.2 5.3-1.9 8.2-2.4 2.9-.5 5.8-.7 8.8-.7 2.9 0 5.9.2 8.8.6 2.9.4 5.8 1.1 8.3 2.2 1.2.6 2.5 1.3 3 2.1.3.4.3.7.3 1-.1.2-.1.3-.2.5s-.3.4-.5.6c-.7 1-1.9 1.8-3.1 2.6-1.3.8-2.6 1.4-4 2.1 1.5-.1 3.1-.2 4.6-.6 1.5-.4 3.1-.8 4.6-1.9.4-.3.7-.7 1-1.1.3-.4.5-1 .6-1.5.1-.3.1-.5.1-.8v-5.8zm-23-5.7c12.2 0 20 3.4 20 5.7v1.5c-.7-.4-1.4-.8-2.1-1.1-3-1.3-6-2-9.1-2.5-3.1-.5-6.2-.6-9.2-.6-3.1 0-6.2.2-9.2.7-3.1.5-6.1 1.2-9.1 2.7-.4.2-.9.5-1.3.8v-1.5c0-2.3 7.8-5.7 20-5.7zm.4-6c3.3 0 6.3 1.4 8.5 3.6-2.8-.4-5.8-.6-8.9-.6-2.7 0-5.4.2-7.9.5 2.1-2.2 5-3.5 8.3-3.5z"/><path class="st6" d="M77.6 65.2c0-.7-.3-1.3-.7-1.8-.1-.1-.2-.2-.4-.3-.1-.1-.3-.2-.4-.2-.1-.1-.3-.1-.5-.1-.3-.1-.6-.1-1 0-.2 0-.3.1-.5.1-.1.1-.3.1-.4.2-.1.1-.3.2-.4.3-.5.5-.7 1.1-.7 1.8v.5c0 .2.1.3.1.5.1.1.1.3.2.4.1.1.2.3.3.4.1.1.2.2.4.3.1.1.3.2.4.2s.3.1.5.1.3.1.5.1c.6 0 1.3-.3 1.8-.7.1-.1.2-.2.3-.4.1-.1.2-.3.2-.4.1-.2.1-.3.1-.5.2-.2.2-.4.2-.5z"/><circle class="st6" cx="75.1" cy="92.7" r="2.5"/><circle class="st6" cx="75.1" cy="83.5" r="2.5"/><circle class="st6" cx="75.1" cy="74.3" r="2.5"/><path class="st6" d="M76.5 99.8c-.1-.1-.3-.2-.4-.2-.1-.1-.3-.1-.5-.1-.3-.1-.6-.1-1 0-.2 0-.3.1-.5.1-.1.1-.3.1-.4.2-.1.1-.3.2-.4.3-.5.5-.7 1.1-.7 1.8v.5c0 .2.1.3.1.5.1.1.1.3.2.4.1.1.2.3.3.4.1.1.2.2.4.3.1.1.3.2.4.2.1.1.3.1.5.1s.3.1.5.1c.7 0 1.3-.3 1.8-.7.1-.1.2-.2.3-.4.1-.1.2-.3.2-.4.1-.2.1-.3.1-.5v-.5c0-.7-.3-1.3-.7-1.8.1-.1-.1-.3-.2-.3zm7.1-34.7c-.1-.2-.1-.3-.2-.4-.1-.1-.2-.3-.3-.4-.9-.9-2.6-.9-3.5 0-.1.1-.2.2-.3.4-.1.1-.2.3-.2.4-.1.1-.1.3-.1.5v1c0 .2.1.3.1.5.1.1.1.3.2.4.1.1.2.3.3.4.5.5 1.1.7 1.8.7s1.3-.3 1.8-.7c.5-.5.7-1.1.7-1.8 0-.2 0-.3-.1-.5s-.1-.4-.2-.5zm5.3 17.7c-.4-1.3-1.8-2.1-3.1-1.7-1.3.4-2.1 1.8-1.7 3.1.3 1.1 1.3 1.8 2.4 1.8.2 0 .5 0 .7-.1 1.4-.4 2.1-1.8 1.7-3.1zm2.7 8.7c-.4-1.3-1.8-2.1-3.1-1.7-1.3.4-2.1 1.8-1.7 3.1.3 1.1 1.3 1.8 2.4 1.8.2 0 .5 0 .7-.1 1.3-.4 2.1-1.8 1.7-3.1zm-5.3-17.4c-.4-1.3-1.8-2.1-3.1-1.7-1.3.4-2.1 1.8-1.7 3.1.3 1.1 1.3 1.8 2.4 1.8.2 0 .5 0 .7-.1 1.4-.4 2.1-1.8 1.7-3.1zm7.8 25.9c-.1-.2-.1-.3-.2-.4-.1-.1-.2-.3-.3-.4-.1-.1-.2-.2-.4-.3-.1-.1-.3-.2-.4-.2-.1-.1-.3-.1-.5-.1-.3-.1-.6-.1-1 0-.2 0-.3.1-.5.1-.1.1-.3.1-.4.2-.1.1-.3.2-.4.3-.1.1-.2.2-.3.4-.1.1-.2.3-.2.4-.1.1-.1.3-.1.5s-.1.3-.1.5 0 .3.1.5c0 .2.1.3.1.5.1.1.1.3.2.4.1.1.2.3.3.4.1.1.2.2.4.3.1.1.3.2.4.2.1.1.3.1.5.1h1c.2 0 .3-.1.5-.1.2-.1.3-.1.4-.2.1-.1.3-.2.4-.3.1-.1.2-.2.3-.4.1-.1.2-.3.2-.4.1-.2.1-.3.1-.5v-1c0-.2 0-.3-.1-.5zM71.2 65.1c-.1-.2-.1-.3-.2-.4-.1-.1-.2-.3-.3-.4-.9-.9-2.6-.9-3.5 0-.1.1-.2.2-.3.4-.1.1-.2.3-.2.4-.1.1-.1.3-.1.5v1c0 .2.1.3.1.5.1.1.1.3.2.4.1.1.2.3.3.4.1.1.2.2.4.3.1.1.3.2.4.2.2.1.3.1.5.1h.5c.7 0 1.3-.3 1.8-.7.5-.5.7-1.1.7-1.8v-.5c-.1-.1-.2-.3-.3-.4zm-6.8 16c-1.3-.4-2.7.4-3.1 1.7-.4 1.3.4 2.7 1.7 3.1.2.1.5.1.7.1 1.1 0 2.1-.7 2.4-1.8.4-1.3-.4-2.7-1.7-3.1zm-2.6 8.7c-1.3-.4-2.7.4-3.1 1.7-.4 1.3.3 2.7 1.7 3.1.2.1.5.1.7.1 1.1 0 2.1-.7 2.4-1.8.4-1.3-.4-2.7-1.7-3.1zM67 72.4c-1.3-.4-2.7.3-3.1 1.7-.4 1.3.4 2.7 1.7 3.1.2.1.5.1.7.1 1.1 0 2.1-.7 2.4-1.8.4-1.3-.3-2.7-1.7-3.1zM60.7 100c-.1-.2-.1-.3-.2-.4-.1-.1-.2-.3-.3-.4-.9-.9-2.6-.9-3.5 0-.5.5-.7 1.1-.7 1.8v.5c0 .2.1.3.1.5.1.1.1.3.2.4.1.1.2.3.3.4.1.1.2.2.4.3.1.1.3.2.4.2.2.1.3.1.5.1h1c.2 0 .3-.1.5-.1.1-.1.3-.1.4-.2.1-.1.3-.2.4-.3.1-.1.2-.2.3-.4.1-.1.2-.3.2-.4.1-.2.1-.3.1-.5s.1-.3.1-.5 0-.3-.1-.5c.1-.2 0-.3-.1-.5z"/></svg>