<svg id="Layer_1" xmlns="http://www.w3.org/2000/svg" viewBox="0 0 130 130"><style>.st0{opacity:.1;fill:#272f3f}.st1{fill:#fff;stroke:#272f3f;stroke-width:3;stroke-miterlimit:10}.st2{clip-path:url(#SVGID_2_)}.st3{stroke:#51c1af;stroke-width:10;stroke-miterlimit:10}.st3,.st4{fill:#fff}.st5{fill:#272f3f}.st6{fill:#51c1af}.st7,.st8,.st9{stroke-linecap:round}.st7{fill:#fff;stroke:#272f3f;stroke-miterlimit:10;stroke-width:3}.st8,.st9{stroke-width:5}.st8{fill:none;stroke:#51c1af;stroke-miterlimit:10}.st9{stroke-dasharray:0,9.1667}.st10,.st11{stroke:#51c1af}.st10,.st11,.st12,.st9{fill:none;stroke-miterlimit:10}.st9{stroke:#51c1af}.st10{stroke-linecap:round;stroke-dasharray:0,9.1173;stroke-width:5}.st11,.st12{stroke-width:3}.st12{stroke:#272f3f}.st13{fill:#d9d8db}.st14{fill:none}</style><path class="st13" d="M104.1 84.3l-2.7-7.4c-.8.5-1.7.8-2.6.9v14H94l-3.4-7.5H39.3L36 91.7h-4.8V78c-1-.3-1.8-.8-2.5-1.4l-2.8 7.7c-2.5 6.9 2.6 14.2 10 14.2h58.3c7.3 0 12.4-7.3 9.9-14.2z"/><path class="st14" d="M72.4 59.8c1.3 0 2.5.1 3.8.1L61.6 45.3c-.9-.2-1.9-.4-2.9-.4h-3.6L70 59.7l2.4.1zm22.4 1.4l-2.7.3 8.4 8.4v-4.5c0-.6-.1-1.1-.1-1.7L81.5 44.9h-6.1l15.9 15.9c1.2.1 2.3.2 3.5.4zm-64.6.7c.1-.3.3-.7.4-1-.2.3-.3.6-.4 1zm42.7.7l10.2 10.2c2.4.1 4.6.2 6.6.5L78.8 62.4c-2 .1-3.9.1-5.9.2zm-14.1 0h-1.2c-1.7-.1-3.4-.1-5-.2l11.1 11.1H69c.2 0 .5-.1.7-.1L58.8 62.6zm-24.4 13zM50.1 60c1.9-.1 3.9-.2 5.8-.2l-14-14.1.2-.3-2.9 3.7L50.1 60zm.2 14.4l-13-13c-.7-.1-1.4-.1-2.1-.2.6-.1 1.1-.1 1.7-.2L33 57.1l3.1-4-4 5.2c-.6.8-1.1 1.6-1.5 2.4L45 75.2c1.7-.3 3.5-.6 5.3-.8z"/><path class="st13" d="M45 75.2l1.1 1.1c1.8 0 3.8-.1 5.8-.2l-1.6-1.6c-1.8.1-3.6.4-5.3.7z"/><path class="st13" d="M40 76.1c1.8.1 3.9.2 6.2.2-2.3 0-4.4-.1-6.2-.2zm23.7-2.5l.8.8h.2c1.5-.3 2.9-.5 4.3-.7h-3.5c-.6-.1-1.2-.1-1.8-.1z"/><path class="st6" d="M34.3 75.6h.1c1.5.2 3.4.4 5.6.6 1.8.1 3.9.2 6.2.2L45 75.2 30.6 60.8v.1c-.2.3-.3.7-.4 1v.1l-.3.9c0 .1 0 .2-.1.3-.1.3-.1.5-.1.8v.3c0 .4-.1.7-.1 1.1v7.1c0 1.4 1.5 2.6 3.6 2.9.3 0 .7.1 1.1.2zM36.9 61c4.4-.5 8.8-.8 13.2-1L39.2 49.2l-3.1 4-3.1 4 3.9 3.8zm15.6 1.5c-.8 0-1.6 0-2.4-.1-4.3-.2-8.5-.5-12.8-.9l13 13 1.6 1.6c.9-.1 1.8-.1 2.7-.2.2 0 .4 0 .6-.1.7-.1 1.5-.2 2.2-.3.2 0 .5-.1.8-.1l2.4-.3c.2 0 .4-.1.7-.1 1-.2 2.1-.4 3.1-.6l-.8-.8-11.1-11.1zm3.5-2.7h1.6l7.4-.1 5 .1-14.8-14.9h-6.9c-1.2 0-2.4.2-3.6.5l-.6.2c-.7.2-1.4.1-2-.1l-.2.3 14.1 14zm16.9 2.8h-.5l-7.4.1-6.2-.1 10.9 10.9c1.2-.2 2.4-.3 3.5-.4h.3c1.1-.1 2.2-.2 3.2-.2h.1c2.2-.1 4.3-.1 6.3-.1L72.9 62.6zm7-2.6c3.8.2 7.6.4 11.4.8L75.4 44.9H72c-1.2 0-2.4.2-3.4.5l-.6.2c-.3.1-.6.1-.9.1-.6 0-1.2-.2-1.8-.6-.6.4-1.2.6-1.8.6-.3 0-.6 0-.9-.1l-.6-.2c-.2-.1-.4-.1-.5-.2l14.6 14.6c1.4.1 2.6.2 3.8.2zm0 2.4h-1.1l10.9 10.9c.7.1 1.3.2 2 .3.2 0 .4.1.5.1.4.1.9.2 1.3.2.2 0 .4.1.6.1.4.1.8.2 1.2.2.2 0 .3.1.5.1.5.1 1 .2 1.5.4 1.1.3 2.2 0 2.8-.4.2-.2.4-.4.4-.7V70L92 61.5c-4 .4-8.1.7-12.1.9zm20.4 1.3c-.1-.4-.2-.9-.3-1.3 0-.1 0-.1-.1-.2-.1-.4-.3-.8-.5-1.3l-.6-1.2c-.1-.1-.1-.2-.2-.3-.2-.4-.5-.8-.8-1.1L88 45.6c-.5.1-1 .1-1.4-.1l-.6-.1c-1.2-.4-2.4-.5-3.6-.5h-1l18.9 18.8z"/><path class="st5" d="M52.5 62.5c1.7.1 3.4.1 5 .2h1.2l6.2.1 7.4-.1h.5c2-.1 3.9-.1 5.9-.2h1.1c4-.2 8.1-.4 12.1-.9l2.7-.3c-1.1-.1-2.3-.3-3.4-.4-3.8-.4-7.6-.6-11.4-.8-1.2-.1-2.4-.1-3.6-.1-1.3 0-2.5-.1-3.8-.1H70l-5-.1-7.4.1H56c-1.9.1-3.9.1-5.8.2-4.4.2-8.8.5-13.2 1-.6.1-1.1.1-1.7.2.7.1 1.4.2 2.1.2 4.3.5 8.5.7 12.8.9.7 0 1.5 0 2.3.1z"/><path class="st5" d="M36 91.7l3.4-7.5h51.3l3.4 7.5h4.8V77.8c1.1-.1 2.2-.5 3-1.1 1-.8 1.6-1.9 1.6-3.1v-8.2c0-3.1-1.1-6.2-3.2-8.9l-10-12.9c.1-.5.2-1 0-1.6l-1.4-5.8c-.2-.8-.7-1.4-1.3-1.8-.6-.4-1.4-.4-2-.2l-.8.2c-.2.1-.4 0-.6-.1H84c-2.3-1.5-8.6-5.4-15.5 0l-.1.1s-.2.2-.5.1l-.7-.2c-.6-.2-1.2-.1-1.7.1-.5-.2-1.1-.3-1.7-.1l-.8.1c-.3.1-.5 0-.5-.1l-.1-.1c-7-5.4-13.2-1.5-15.5 0l-.2.1c-.1.1-.3.2-.6.1l-.8-.2c-.7-.2-1.4-.1-2 .2-.7.4-1.1 1-1.3 1.8L40.5 42c-.1.2-.1.5-.1.7L29.8 56.5c-2.1 2.7-3.2 5.8-3.2 8.9v7.1c0 2.4 1.8 4.6 4.6 5.5v13.8H36zm59.8-3.3l-3.2-7.2H37.4l-3.2 7.2v-9.9c2.7.4 6.5.7 11.2.7 5.5 0 12.3-.5 20-2 13.6-2.7 24-1.4 30.6.2v11zM66.9 37.3c1.2.3 2.5.1 3.4-.7 5.3-4.1 9.7-1.3 12.1.2l.2.1c.9.6 2 .7 3 .4l.4-.1 1.4 5.5-.5-.1c-1.5-.4-3-.7-4.5-.7H72c-1.5 0-3 .2-4.4.7l-.5.2c-.1 0-.3-.2-.3-.3l.1-5.2zm-22.2-.1l.4.1c1 .3 2.1.2 3-.4l.2-.1c2.4-1.5 6.8-4.3 12.1-.2.9.8 2.1 1.1 3.3.7l.1 5.1c0 .1-.2.3-.2.3l-.5-.2c-1.4-.5-2.8-.7-4.4-.7H48.3c-1.5 0-3 .2-4.5.7l-.5.1 1.4-5.4zM29.6 72.5v-7.1c0-.4 0-.7.1-1.1V64c0-.3.1-.5.1-.8 0-.1 0-.2.1-.3l.3-.9v-.1c.1-.3.3-.7.4-1v-.1c.4-.8.9-1.7 1.5-2.4l4-5.2 3.1-4 2.9-3.7c.6.3 1.3.4 2 .1l.6-.2c1.2-.4 2.4-.5 3.6-.5h10.5c1 0 2 .1 2.9.4.2 0 .4.1.5.2l.6.2c.3.1.6.1.9.1.6 0 1.2-.2 1.8-.6.6.4 1.2.6 1.8.6.3 0 .6 0 .9-.1l.6-.2c1.1-.4 2.2-.5 3.4-.5h10.5c1.2 0 2.4.2 3.6.5l.6.2c.5.1 1 .2 1.4.1l9.8 12.7c.3.4.5.8.8 1.1.1.1.1.2.2.3l.6 1.2c.2.4.3.8.5 1.3 0 .1 0 .1.1.2.1.4.2.9.3 1.3.1.6.1 1.1.1 1.7v8.1c0 .3-.2.5-.4.7-.6.4-1.6.7-2.8.4-.5-.1-1-.2-1.5-.4-.2 0-.3-.1-.5-.1-.4-.1-.8-.2-1.2-.2-.2 0-.4-.1-.6-.1-.4-.1-.9-.2-1.3-.2-.2 0-.4-.1-.5-.1-.6-.1-1.3-.2-2-.3-2-.3-4.2-.4-6.6-.5-2-.1-4.1 0-6.3.1h-.1c-1 .1-2.1.1-3.2.2h-.3c-1.1.1-2.3.2-3.5.4-.2 0-.5.1-.7.1-1.4.2-2.8.4-4.3.7h-.2c-1.1.2-2.1.4-3.1.6-.2 0-.4.1-.7.1l-2.4.3c-.3 0-.5.1-.8.1-.8.1-1.5.2-2.2.3-.2 0-.4 0-.6.1-.9.1-1.8.2-2.7.2-2.1.1-4 .2-5.8.2-2.3 0-4.3 0-6.2-.2-2.2-.1-4.1-.3-5.6-.6h-.1c-.4-.1-.8-.1-1.1-.2-2.3-.3-3.8-1.5-3.8-2.8z"/><path class="st4" d="M65.3 77.3c-7.7 1.5-14.4 2-20 2-4.7 0-8.4-.4-11.2-.7v9.9l3.2-7.2h55.2l3.2 7.2v-11c-6.4-1.6-16.8-2.9-30.4-.2zm-17-35.4h10.4c1.5 0 3 .2 4.4.7l.5.2s.2-.2.2-.3l-.1-5.1c-1.2.3-2.4.1-3.3-.7-5.3-4.1-9.7-1.3-12.1.2l-.2.1c-.9.6-2 .7-3 .4l-.4-.1-1.4 5.5.5-.1c1.5-.6 3-.8 4.5-.8zm18.9.8l.5-.2c1.4-.5 2.8-.7 4.4-.7h10.4c1.5 0 3 .2 4.5.7l.5.1-1.5-5.4-.4.1c-1 .3-2.1.2-3-.4l-.2-.1c-2.4-1.5-6.8-4.3-12.1-.2-.9.8-2.1 1.1-3.3.7l-.1 5.1c0 .1.2.3.3.3z"/></svg>