<svg width="204" height="238" viewBox="0 0 204 238" xmlns="http://www.w3.org/2000/svg"><path d="M169.97 136.9c-1.61 0-1.612 2.496 0 2.496 1.61 0 1.614-2.496 0-2.496zm2.82-5.793c-1.61 0-1.614 2.495 0 2.495 1.61 0 1.612-2.495 0-2.495zm-18.419 11.142c-1.61 0-1.612 2.496 0 2.496 1.61 0 1.614-2.496 0-2.496zm7.913-7.425c-1.61 0-1.613 2.496 0 2.496 1.61 0 1.612-2.496 0-2.496zm-31.138 20.443c-1.61 0-1.612 2.496 0 2.496 1.61 0 1.613-2.496 0-2.496zm5.006-8.086c-1.61 0-1.612 2.496 0 2.496 1.61 0 1.613-2.496 0-2.496zm-5.515-1.317c-1.61 0-1.614 2.495 0 2.495 1.609 0 1.612-2.495 0-2.495zm11.168-.644c-1.61 0-1.613 2.495 0 2.495 1.61 0 1.612-2.495 0-2.495zm5.994-4.202c-1.61 0-1.612 2.496 0 2.496 1.61 0 1.612-2.496 0-2.496zm27.278 11.502c-1.612 0-1.613 2.496 0 2.496 1.61 0 1.612-2.496 0-2.496zm-15.75-11.622c-1.609 0-1.612 2.496 0 2.496 1.61 0 1.614-2.496 0-2.496zm-18.189 49.474c1.61 0 1.613-2.496 0-2.496-1.609 0-1.613 2.496 0 2.496zm2.115 6.086c1.61 0 1.612-2.496 0-2.496-1.61 0-1.612 2.496 0 2.496zm13.774-11.302c1.61 0 1.612-2.496 0-2.496-1.61 0-1.614 2.496 0 2.496zm-8.98 1.263c1.608 0 1.611-2.496 0-2.496s-1.613 2.496 0 2.496zm1.212 4.032c1.61 0 1.612-2.496 0-2.496-1.61 0-1.612 2.496 0 2.496zm11.37-8.658c1.611 0 1.613-2.496 0-2.496-1.609 0-1.613 2.496 0 2.496zm-6.495-.089c1.61 0 1.613-2.496 0-2.496-1.61 0-1.612 2.496 0 2.496zm-5.346 12.064c-1.61 0-1.613 2.495 0 2.495 1.61 0 1.613-2.495 0-2.495zm11.034-5.708c1.608 0 1.611-2.496 0-2.496s-1.613 2.496 0 2.496zm.617 1.588c-1.61 0-1.612 2.496 0 2.496 1.61 0 1.613-2.496 0-2.496zm-4.926-.254c1.61 0 1.613-2.495 0-2.495-1.609 0-1.612 2.495 0 2.495zm-21.469-35.264c1.61 0 1.613-2.495 0-2.495-1.61 0-1.613 2.495 0 2.495zm.804 12.859c1.61 0 1.612-2.496 0-2.496-1.61 0-1.612 2.496 0 2.496zm-.111-6.994c-1.61 0-1.612 2.496 0 2.496 1.61 0 1.613-2.496 0-2.496zm-4.208 17.899c-1.61 0-1.612 2.495 0 2.495 1.609 0 1.612-2.495 0-2.495zm3.143 3.591c-1.61 0-1.612 2.496 0 2.496 1.61 0 1.612-2.496 0-2.496zm1.552-12.985c-1.609 0-1.612 2.496 0 2.496s1.614-2.496 0-2.496zm-2.062 6.077c1.609 0 1.612-2.495 0-2.495-1.61 0-1.613 2.495 0 2.495zm-2.142-7.705c-1.61 0-1.613 2.496 0 2.496 1.61 0 1.613-2.496 0-2.496zm-2.455 18.9c-1.61 0-1.613 2.495 0 2.495 1.61 0 1.613-2.495 0-2.495zm11.04.363c1.61 0 1.613-2.495 0-2.495-1.61 0-1.612 2.495 0 2.495zm-1.762 10.08c1.609 0 1.612-2.496 0-2.496s-1.614 2.496 0 2.496zm-5.284 4.153c-1.61 0-1.612 2.496 0 2.496 1.61 0 1.613-2.496 0-2.496zm-.194-3.333c1.61 0 1.612-2.496 0-2.496-1.61 0-1.612 2.496 0 2.496zm.786-8.44c-1.61 0-1.613 2.497 0 2.497 1.609 0 1.613-2.496 0-2.496zm44.29-39.71c-1.61 0-1.612 2.496 0 2.496 1.611 0 1.613-2.496 0-2.496zm1.216-15.742c1.61 0 1.611-2.496 0-2.496-1.61 0-1.613 2.496 0 2.496zm-2.141 6.076c1.61 0 1.613-2.495 0-2.495-1.61 0-1.612 2.495 0 2.495zm-.314 6.931c1.609 0 1.612-2.495 0-2.495-1.61 0-1.613 2.495 0 2.495zM34.655 158.091c1.61 0 1.612-2.495 0-2.495-1.61 0-1.612 2.495 0 2.495zm3.184 2.763c1.61 0 1.612-2.495 0-2.495-1.61 0-1.614 2.495 0 2.495zm14.911 4.408c-1.61 0-1.612 2.495 0 2.495 1.61 0 1.613-2.495 0-2.495zm.081-7.028c-1.61 0-1.612 2.496 0 2.496s1.614-2.496 0-2.496zm-8.32 4.33c1.61 0 1.613-2.495 0-2.495-1.61 0-1.613 2.495 0 2.495zm-1.948-8.428c-1.61 0-1.613 2.496 0 2.496 1.61 0 1.613-2.496 0-2.496zm17.077 8.546c-1.61 0-1.612 2.496 0 2.496 1.61 0 1.612-2.496 0-2.496zm30.775-3.98c-1.61 0-1.613 2.496 0 2.496 1.61 0 1.612-2.496 0-2.496zm-11.432 4.742c-1.61 0-1.612 2.496 0 2.496 1.61 0 1.613-2.496 0-2.496zm-9.79 1.048c1.608 0 1.611-2.496 0-2.496-1.61 0-1.612 2.496 0 2.496zm-9.857 7.375c1.61 0 1.613-2.495 0-2.495-1.61 0-1.613 2.495 0 2.495zm3.044 9.412c1.612 0 1.614-2.496 0-2.496-1.608 0-1.612 2.496 0 2.496zm-54.306-19.72c-1.61 0-1.614 2.495 0 2.495 1.61 0 1.612-2.496 0-2.496zm5.597-16.891c-1.609 0-1.612 2.495 0 2.495s1.614-2.495 0-2.495zm-6.917 8.345c1.609 0 1.613-2.495 0-2.495-1.61 0-1.613 2.495 0 2.495zm3.183.268c-1.61 0-1.612 2.495 0 2.495 1.61 0 1.613-2.495 0-2.495zm34.935-2.406a757.909 757.909 0 0 0-7.392-3.014c-4.863-1.927-9.748-3.834-14.672-5.63-4.914-1.807-9.857-3.554-14.871-5.112a242.44 242.44 0 0 0 6.29 2.989c-.868.592-.642 2.293.69 2.293.887 0 1.284-.757 1.195-1.436a407.15 407.15 0 0 0 6.126 2.704c.28.122.565.237.847.358-1.324.273-1.233 2.469.28 2.469 1.102 0 1.45-1.168 1.044-1.906 1.398.598 2.796 1.197 4.198 1.78-1.053.48-.878 2.387.531 2.387 1 0 1.38-.962 1.137-1.691 1.935.798 3.872 1.588 5.811 2.374-.083.677.313 1.423 1.194 1.423.487 0 .822-.23 1.016-.546.693.272 1.388.542 2.08.813.056.576.451 1.112 1.198 1.112.358 0 .63-.127.829-.319.711.278 1.422.555 2.133.829.2.27.516.456.954.456.074 0 .14-.01.207-.02.664.253 1.33.5 1.995.75-1.079.464-.912 2.395.507 2.395 1.047 0 1.412-1.054 1.096-1.793.707.264 1.409.539 2.117.797a473.24 473.24 0 0 0 4.803 1.734c-.388.739-.039 1.884 1.054 1.884.737 0 1.133-.523 1.195-1.091a266.65 266.65 0 0 0 4.74 1.595c-.946.549-.744 2.333.623 2.333 1.042 0 1.406-1.044 1.098-1.781.458.144.911.296 1.37.438-.515-.255-1.035-.5-1.553-.75a1.133 1.133 0 0 0-.813-.393c-3.947-1.89-7.933-3.677-11.936-5.415a410.183 410.183 0 0 0-5.338-2.261l-1.783-.755zm-35.493-5.091c1.61 0 1.613-2.496 0-2.496-1.61 0-1.612 2.496 0 2.496zm3.272 12.663c-1.61 0-1.614 2.495 0 2.495 1.609 0 1.612-2.495 0-2.495zm12.278-2.795c1.611 0 1.613-2.496 0-2.496-1.61 0-1.612 2.496 0 2.496zm4.438-4.271c-1.61 0-1.613 2.496 0 2.496 1.609 0 1.612-2.496 0-2.496zm-11.778-3.251c1.61 0 1.613-2.496 0-2.496-1.61 0-1.613 2.496 0 2.496zm2.709 3.124c1.61 0 1.613-2.495 0-2.495-1.61 0-1.612 2.495 0 2.495zm-5.637.299c1.61 0 1.613-2.496 0-2.496-1.61 0-1.613 2.496 0 2.496zM5.595 139.31c1.61 0 1.612-2.495 0-2.495-1.61 0-1.613 2.495 0 2.495zm37.88 71.025c-1.612 0-1.614 2.495 0 2.495 1.608 0 1.612-2.495 0-2.495zm9.007-8.564c-1.611 0-1.613 2.495 0 2.495 1.608 0 1.611-2.495 0-2.495zm3.426 12.049c-1.61 0-1.612 2.495 0 2.495 1.611 0 1.613-2.495 0-2.495zm1.247-4.763c-1.61 0-1.612 2.496 0 2.496 1.61 0 1.612-2.496 0-2.496zm-5.54 3.383c-1.61 0-1.612 2.496 0 2.496 1.61 0 1.614-2.496 0-2.496zm8.211 2.347c-1.611 0-1.613 2.496 0 2.496 1.608 0 1.612-2.496 0-2.496zm2.71 3.124c-1.612 0-1.614 2.495 0 2.495 1.609 0 1.612-2.495 0-2.495zm-5.638.298c-1.61 0-1.614 2.496 0 2.496 1.609 0 1.612-2.496 0-2.496zm6.713-15.56c1.61 0 1.613-2.496 0-2.496-1.61 0-1.613 2.495 0 2.495zm-26.043.5c1.61 0 1.613-2.495 0-2.495-1.61 0-1.612 2.495 0 2.495zm23.76-24.887c1.61 0 1.613-2.496 0-2.496-1.61 0-1.613 2.496 0 2.496zm-5.47-5.918c-1.61 0-1.614 2.496 0 2.496 1.61 0 1.612-2.496 0-2.496zm1.14 31.493c1.612 0 1.614-2.495 0-2.495-1.609 0-1.612 2.495 0 2.495zm-4.777-11.582c1.61 0 1.611-2.495 0-2.495-1.61 0-1.613 2.495 0 2.495zm6.207-9.092c-1.61 0-1.612 2.496 0 2.496 1.61 0 1.612-2.496 0-2.496zm-3.479-2.382c-1.61 0-1.612 2.495 0 2.495 1.61 0 1.613-2.495 0-2.495zm-6.388 14.097v-24.977l-8.699-3.504v24.966l8.699 3.515zM23.37 184.706v-24.967l-6.817-2.754v24.966l6.817 2.755zm14.49-19.116l-12.489-5.041v24.966l12.49 5.04V165.59zm12.667 31.019c-.063.23-.206.436-.406.575a1.042 1.042 0 0 1-.94.1l-10.709-4.322s0-.01-.01-.01l-7.813-3.154c-.065.009-.131.019-.201.019-.462 0-.786-.207-.983-.498l-2.401-.969c-.187.337-.534.583-1.04.583-.909 0-1.304-.791-1.188-1.483l-1.664-.672c.208.724-.173 1.64-1.15 1.64-1.376 0-1.57-1.814-.6-2.347l-1.704-.686c-.19.144-.437.235-.743.235-.707 0-1.102-.478-1.19-1.016l-2.613-1.055a.987.987 0 0 1-.62-.92v-1.049a1.196 1.196 0 0 1-.68.198c-1.613 0-1.61-2.496 0-2.496.275 0 .499.077.68.197v-12.845l-.022.002c-1.613 0-1.61-2.495 0-2.495l.021.002v-8.646c0-.33.16-.638.442-.829a.997.997 0 0 1 .93-.09l8.437 3.405h.01a1 1 0 0 1 .711.29l14.16 5.719h.01l.267.108c.188-.333.534-.576 1.034-.576.905 0 1.3.785 1.19 1.474l2.732 1.103c-.624-.696-.328-2.122.889-2.122 1.602 0 1.608 2.462.029 2.494l4.54 1.831c.38.161.63.52.63.929v7.446c.167-.406.53-.723 1.102-.723 1.614 0 1.612 2.496 0 2.496-.572 0-.936-.318-1.102-.724v7.8c.057-.006.113-.017.176-.017 1.613 0 1.61 2.496 0 2.496-.063 0-.119-.01-.176-.017v7.115c.2-.276.517-.472.964-.472 1.613 0 1.61 2.496 0 2.496-.473 0-.803-.217-.999-.52zm6.116-5.966c-1.61 0-1.612 2.496 0 2.496 1.61 0 1.613-2.496 0-2.496zm-13.306 9.308c1.61 0 1.613-2.496 0-2.496-1.608 0-1.612 2.496 0 2.496zm2.79 4.262c-1.61 0-1.613 2.495 0 2.495 1.608 0 1.611-2.495 0-2.495zm-21.547-7.52c-1.612 0-1.614 2.495 0 2.495 1.609 0 1.612-2.495 0-2.495zm4.674 7.287c-1.612 0-1.614 2.496 0 2.496 1.609 0 1.612-2.496 0-2.496zm8.446 4.094c-1.61 0-1.613 2.495 0 2.495 1.61 0 1.612-2.495 0-2.495zm-1.991-12.998c-1.61 0-1.612 2.495 0 2.495 1.61 0 1.612-2.495 0-2.495zm-21.078 2.629c-1.61 0-1.612 2.496 0 2.496s1.614-2.496 0-2.496zm-10.518-2.71c-1.609 0-1.612 2.495 0 2.495 1.61 0 1.613-2.495 0-2.495zm26.69 3.025c-1.61 0-1.613 2.496 0 2.496 1.61 0 1.613-2.496 0-2.496zm-5.474-6.709c-1.61 0-1.613 2.496 0 2.496 1.61 0 1.613-2.496 0-2.496zm-12.177-19.02c-1.61 0-1.613 2.496 0 2.496 1.61 0 1.612-2.496 0-2.496zm-3.486 9.257c-1.61 0-1.612 2.496 0 2.496 1.61 0 1.613-2.496 0-2.496zm6.803 9.15c1.611 0 1.613-2.496 0-2.496-1.609 0-1.613 2.495 0 2.495zm.672 3.435c-1.61 0-1.612 2.496 0 2.496 1.61 0 1.613-2.496 0-2.496zm2.788 6.757c-1.609 0-1.613 2.496 0 2.496 1.611 0 1.613-2.496 0-2.496zM6.602 175.635c-1.612 0-1.613 2.495 0 2.495 1.608 0 1.61-2.495 0-2.495zm-.35 11.211c-1.61 0-1.613 2.496 0 2.496 1.61 0 1.613-2.496 0-2.496zM6.14 171.45c1.61 0 1.612-2.496 0-2.496-1.61 0-1.612 2.496 0 2.496zm195.858 28.39v-1.926l-62.881 22.38v2.157l62.881-22.612zm-76.864 10.64v-2.853l-7.636-2.995v2.795l7.636 3.054zm0 2.827l-48.52 17.44v4.86l48.52-17.439v-4.861zm-1.912-1.438l-6.745-2.695-10.368 3.703a.816.816 0 0 1-.321.199l-31.866 11.421a.963.963 0 0 1-.331.059c-.04 0-.07-.01-.1-.019l-4.593 1.647 6.744 2.785 47.58-17.1zm-48.61 23.668v-4.832L2.002 200.7v4.79l72.61 30.048zM3.722 130.362l71.91 28.76 103.608-37.245-57.618-21.842a140.943 140.943 0 0 1-3.574 3.993l44.247 16.77c.39.15.652.519.652.938a1.01 1.01 0 0 1-.661.93l-8.097 2.914c-.01 0-.02.01-.04.01l-78.065 28.06a.985.985 0 0 1-.34.06c-.12 0-.25-.031-.37-.07l-55.418-22.16c-.38-.16-.63-.53-.63-.94a1 1 0 0 1 .649-.927l67.277-25.146a128.246 128.246 0 0 1-3.604-3.983L3.722 130.362zm87.835-21.513a145.27 145.27 0 0 1-2.803-2.805L23.098 130.58l4.986 1.997 63.473-23.728zm59.389 15.773l-38.752-14.684a152.609 152.609 0 0 1-9.119 8.026.986.986 0 0 1-.63.218.987.987 0 0 1-.63-.218 157.186 157.186 0 0 1-8.658-7.577l-62.321 23.289 44.927 17.969 75.183-27.023zm-34.39-19.028c-.9.93-1.82 1.868-2.77 2.806l40.052 15.184 5.225-1.877-42.506-16.113zm-14.11 10.302c37.782-31.005 40.354-62.19 40.373-62.5 0-.04.01-.08.02-.12.52-2.755.781-5.56.781-8.345 0-23.668-18.466-42.934-41.174-42.934-22.71 0-41.176 19.266-41.176 42.934 0 2.785.262 5.6.782 8.346.01.04.02.079.02.12.019.309 2.592 31.494 40.374 62.5zm-3.714 37.042l-22.119 7.95v6.868l27.771-9.915c-.565-.712-.256-2.07.933-2.07.832 0 1.23.664 1.204 1.307l19.274-6.88a.982.982 0 0 1 .911.129c.27.179.43.489.43.808v.893c.202-.212.488-.353.867-.353 1.613 0 1.61 2.495 0 2.495-.379 0-.665-.14-.867-.352v6.101c1.464.109 1.462 2.365 0 2.475v8.963c.153.347.153.762 0 1.108v20.282c.17-.396.532-.7 1.092-.7 1.614 0 1.612 2.495 0 2.495-.56 0-.922-.305-1.092-.7v2.111c.053-.007.102-.017.159-.017 1.612 0 1.61 2.496 0 2.496-.057 0-.106-.01-.16-.015v3.9c.713.463.712 1.65 0 2.113v.501l12.329-4.458c.109-.509.497-.947 1.172-.947.314 0 .566.097.759.25l12.165-4.399c-1.166-.401-1.026-2.423.425-2.423 1.094 0 1.442 1.15 1.051 1.888l11.382-4.117v-1.298a1.153 1.153 0 0 1-.837.326c-1.614 0-1.61-2.496 0-2.496.363 0 .638.13.837.326v-12.28c0-.12.02-.23.062-.34.01-.01 0-.02.01-.03.01-.02.019-.03.029-.05a.89.89 0 0 1 .15-.229c.03-.03.05-.06.08-.09.06-.05.13-.09.19-.12.041-.02.08-.05.121-.07 0 0 .01 0 .02-.01l4.584-1.626c-.642-.879-.68-2.127-.061-3.025a2.56 2.56 0 0 1 1.132-.9l-6.221 2.25c1.46.152 1.412 2.482-.146 2.482-1.206 0-1.508-1.394-.91-2.098l-4.288 1.551a1.187 1.187 0 0 1-.33.119l-16.933 6.125c1.409.199 1.343 2.476-.197 2.476-1.189 0-1.497-1.354-.933-2.067l-4.042 1.462c-.109.04-.229.06-.34.06a1.008 1.008 0 0 1-1-.998V153.04c0-.418.26-.788.66-.937l24.86-8.995c.18-.15.412-.26.662-.26.02 0 .03.01.04.01l8.447-3.054a1.005 1.005 0 0 1 1.341.938v7.304c.007.082.007.164 0 .245v11.21a1.291 1.291 0 0 1 1.018-.05.998.998 0 0 1 .693-.74l1.302-.37c-.321-.919-.18-1.746.44-2.315.71-.649 1.642-.54 2.312-.47.14.02.32.04.47.05-.03-.08-.06-.17-.08-.249-.13-.39-.28-.888-.16-1.457.1-.52.4-.949.851-1.248.27-.17.57-.27.87-.34v-5.664a1.39 1.39 0 0 1 0-1.43v-2.732c-.05.006-.097.016-.15.016-1.614 0-1.61-2.496 0-2.496.053 0 .1.009.15.014v-11.508c-.703-.465-.702-1.64 0-2.105v-3.084l-6.021 2.164-2.178.783-3.51 1.262-1.822.655-22.425 8.06-2.29.822-4.495 1.617-2.29.823-6.395 2.298-2.216.796-12.111 4.355-2.022.725-5.04 1.812-2.191.788-7.383 2.654zm75.06 8.912a1.236 1.236 0 0 1-.387-.114v.928a2.92 2.92 0 0 1 .388-.814zm-.257 3.011c-.06-.14-.09-.29-.13-.439v.45c.04-.01.09 0 .13-.01zm1.634-4.063c.069-.026.136-.058.208-.08a2.394 2.394 0 0 0-.197-.063 2.283 2.283 0 0 1-.011.143zm-27.076 14.805v-25.008l-8.697 3.146v25.005l8.697-3.143zm14.483-5.241v-24.996l-12.481 4.51v24.998l12.481-4.512zm8.828-3.195v-24.996l-6.826 2.465v24.997l6.826-2.466zm13.25-13.327c-.16-.279-.4-.518-.69-.678a2.68 2.68 0 0 0-.12.39 1 1 0 0 1-1.19.758c-.722-.16-1.223-.061-1.322.019.019.05.09.29.14.45.15.478.37 1.198-.05 1.927-.611 1.047-1.782.918-2.483.838-.2-.02-.52-.06-.68-.04.02.15.14.46.44.859.19.26.25.599.15.917-.11.31-.36.55-.68.64l-.43.12c.45.528.77 1.168.91 1.847.03.15.02.31-.01.449-.07.25-.24.478-.48.609-.381.218-.851.16-1.17-.121-.19-.179-.481-.269-.802-.239-.31.03-.58.17-.74.37-.16.208-.221.509-.16.817.05.31.21.57.43.71.29.19.47.52.46.859a.98.98 0 0 1-.5.848c-.481.28-1.01.48-1.551.6.28.828.65 1.636 1.09 2.415a.991.991 0 0 1-.12 1.138c-.28.32-.73.44-1.121.28-.23-.09-.58.01-.72.219a.644.644 0 0 0 .05.759c.17.19.52.33.821.439 1.271.468 2.591.808 3.932.998a.99.99 0 0 1 .852 1.128 1 1 0 0 1-.99.859c-.04 0-.09-.01-.142-.01-1.32-.19-2.631-.51-3.893-.949l-3.642 1.298 9.167 3.664 20.768-7.388-3.073-1.227c-.821.499-1.662.887-2.363 1.208a1 1 0 0 1-1.32-.5.989.989 0 0 1 .5-1.318c1.32-.598 2.572-1.217 3.442-2.067l-.439-.058a1.007 1.007 0 0 1-.78-.6.986.986 0 0 1 .098-.968c.49-.7 1.182-1.089 1.792-1.427.241-.14.481-.27.7-.42.162-.12.31-.28.42-.44a7.286 7.286 0 0 1-1.68-.129c-.4-.07-.72-.389-.8-.78-.08-.397.1-.808.44-1.036a.78.78 0 0 0 .2-.2l-.28.12a.988.988 0 0 1-.87-.061 1.002 1.002 0 0 1-.491-.728c-.15-1.099.47-1.937.96-2.605.33-.45.641-.87.591-1.15-.03-.208-.33-.437-.66-.508-.492-.11-1.091 0-1.663.11-.29.05-.59-.02-.81-.2a.998.998 0 0 1-.38-.748c-.02-.669-.46-1.338-1.07-1.627a1.942 1.942 0 0 0-1.943.24c-.3.228-.7.279-1.04.12a.978.978 0 0 1-.58-.87c-.02-.398-.262-.798-.651-1.088a1.61 1.61 0 0 0-.66-.289c-.3.898-1.042 1.657-1.962 1.927a.993.993 0 0 1-1.151-.48zm17.344 19.267l-21.608 7.697v2.845l21.608-7.688v-2.854zm-33.578 17.64l9.969 3.992v-3.194l-9.969-3.913v3.114zm0-8.406v4.212l9.969 3.923v-4.212l-9.969-3.923zm11.97 12.817v1.058c0 .12-.02.23-.059.34-.02.06-.05.09-.06.119-.03.05-.05.1-.081.14l-.109.11a.565.565 0 0 1-.25.17c-.02.013-13.592 4.928-40.714 14.744v2.166l62.881-22.37v-4.163l-21.608 7.686zm0-5.221v4.162l21.608-7.685v-4.174l-21.608 7.697zm0-5.231v4.162l21.608-7.685v-4.163l-21.608 7.686zm-11.97-7.657v4.224l9.969 3.913v-4.213l-9.969-3.924zm-30.294 33.022l38.462-13.904-9.188-3.674-38.463 13.906 9.189 3.672zm-1.011 2.267l-9.98-3.924v4.214l9.98 3.923v-4.213zm-9.98 5.58l9.98 3.914v-4.213l-9.98-3.913v4.213zM72.59 204.114l-5.295 1.916v4.243l5.295-1.917v-4.242zm-5.295-35.189v4.243l8.297-2.995a1.24 1.24 0 0 1-.389-.09l-5.275-2.107-2.633.95zm0-2.006v.948l1.242-.449-1.242-.5zm5.295 10.701l-5.295 1.907v4.242l5.295-1.916v-4.233zm-5.295 17.808v4.243l5.295-1.917v-4.243l-5.295 1.917zm5.295-7.206l-5.295 1.906v4.243l5.295-1.917v-4.232zm-5.295.848l5.295-1.917v-4.232l-5.295 1.906v4.243zm5.295 20.343l-5.295 1.917v4.233l5.295-1.907v-4.243zm0 5.302l-5.295 1.917v4.232l5.295-1.906v-4.243zm0-11.66v-4.242l-5.295 1.917v4.242l5.295-1.916zm42.907-30.337l-9.048 3.275v4.233l9.048-3.266v-4.242zm2.001-10.381v4.212l7.636 3.004v-4.211l-7.636-3.005zm0-5.28v4.212l7.636 2.994v-4.212l-7.636-2.995zm7.636-4.503l-1.52.549 1.52.589v-1.138zm0 43.434v-4.214l-7.636-3.004v4.213l7.636 3.005zm-7.636-8.287l7.636 2.995v-4.212l-7.636-2.995v4.212zm0-5.29l7.636 3.005v-4.213l-7.636-3.004v4.213zm-11.049 19.016l9.048-3.263v-4.242l-9.048 3.263v4.242zm0-5.3l9.048-3.265v-4.242l-9.048 3.265v4.243zm0-5.3l9.048-3.265v-4.243l-9.048 3.265v4.243zm0-15.902l9.048-3.264v-4.243l-9.048 3.274v4.233zm11.05-2.007v4.212l7.635 2.995v-4.212l-7.636-2.995zm0-5.29v4.212l7.635 3.005v-4.223l-7.636-2.994zm-11.05 13.655v4.242l9.048-3.263v-4.243l-9.048 3.264zm0-15.891v4.232l9.048-3.264v-4.243l-9.048 3.275zm9.048 38.073v-4.243l-9.048 3.265v4.242l9.048-3.264zm9.637-2.196v-4.213l-7.636-2.995v4.213l7.636 2.995zm-7.636-45.99v.699l7.636 3.005v-4.213l-2.953-1.158-4.683 1.667zm-50.203 18.946v4.243l5.295-1.917v-.25c0-.419.26-.798.661-.937l15.664-5.54a.877.877 0 0 1 .34-.12l15.862-5.61c.3-.111.642-.06.912.13.07.048.139.12.189.188l9.279-3.353v-4.242l-48.202 17.408zm2.144-15.434l-18.075-7.225-1.024-.41-40.13-16.043-.801-.322-5.99-2.394-1.417-.615v9.657c.588.48.588 1.505 0 1.984v16.532c.014-.001.026-.005.04-.005 1.613 0 1.61 2.496 0 2.496-.014 0-.026-.003-.04-.004v17.347a1.16 1.16 0 0 1 .825-.315c1.614 0 1.61 2.495 0 2.495-.355 0-.628-.124-.825-.313v5.772c1.3.217 1.298 2.232 0 2.45v8.665l21.42 8.852c.09-.02.188-.031.292-.031.503 0 .85.245 1.04.58l2.508 1.038a1.19 1.19 0 0 1 .745-.24c.715 0 1.111.493 1.191 1.04l1.615.667c.162-.414.531-.74 1.11-.74.992 0 1.37.943 1.142 1.67l10.118 4.182c.148-.066.32-.104.518-.104.603 0 .98.347 1.132.785l20.46 8.456v-9.084c-1.198-.276-1.196-2.149 0-2.424v-2.678c-1.008-.369-1.007-1.966 0-2.334v-10.14c-.178.117-.4.192-.67.192-1.613 0-1.61-2.496 0-2.496.27 0 .492.074.67.191v-1.656c-.098.025-.204.04-.32.04-1.613 0-1.61-2.496 0-2.496.116 0 .222.017.32.041v-15.53c-.188.33-.533.57-1.032.57-1.612 0-1.61-2.495 0-2.495.5 0 .844.24 1.033.572v-7.423c-1.398-.174-1.371-2.367.076-2.469a.99.99 0 0 1 .355-.466c.28-.18.63-.22.94-.1l7.947 3.184v-1.48c-1.392-.159-1.389-2.305 0-2.464v-2.895l-4.52-1.805-.653-.262zm3.15 63.95v-2.725l-5.294 1.917v2.704l5.295-1.896zm15.825-50.621l-13.822 4.891v45.021l13.822-4.941V172.12zm16.034 39.231V166.45l-14.032 4.961v44.961l14.032-5.02zm11.049-3.953v-2.875l-9.048 3.264v2.845l9.048-3.234zm9.637-.839v-4.213l-7.636-3.005v4.224l7.636 2.994zm76.864-9.704v-4.162l-62.881 22.37v4.163l62.881-22.37zM204 200.54c0 .418-.26.798-.66.938l-64.895 23.34c-.46.05-.59.03-.71-.021l-11.9-4.761-49.881 17.928c-.47.06-.602.04-.72-.01L.62 207.077a.994.994 0 0 1-.62-.919v-75.806c.2-.669.39-.88.65-.98l81.618-30.505c-8.066-9.584-13.07-18.369-16.134-25.076-5.254-11.56-5.994-19.367-6.055-20.196a46.677 46.677 0 0 1-.81-8.664C59.269 20.154 78.635 0 102.446 0c23.81 0 43.176 20.154 43.176 44.931 0 2.895-.27 5.81-.81 8.664-.122 1.328-2.233 21.244-21.83 44.823l59.5 22.55c.441.349.49.419.521.49.06.133.1 10.002.12 29.608 1.33.04 2.061.409 2.623.958.16-1.01.46-1.418.9-1.537.98-.28 2.061-.061 2.953.589.47.339.84.757 1.09 1.227a3.963 3.963 0 0 1 2.792.17c.952.44 1.683 1.287 2.023 2.266a4.7 4.7 0 0 1 1.49.06c1.161.25 2.042 1.108 2.212 2.136.151.928-.26 1.667-.69 2.286.28.06.54.24.68.51a2.94 2.94 0 0 1 .231 2.076c.89-.141 1.27.009 1.501.32.34.468.48 1.026.38 1.636-.13.789-.67 1.608-1.421 2.127.26.868.27 1.198.14 1.487-.27.619-.66 1.137-1.1 1.606l4.442 1.777c.46.38.51.46.552.55.04.106.066 9.849.079 29.229zM102.446 65.645c12.51 0 22.688-10.143 22.688-22.621 0-12.478-10.178-22.63-22.688-22.63-12.51 0-22.69 10.152-22.69 22.63s10.18 22.621 22.69 22.621zm0 1.997c-13.612 0-24.69-11.042-24.69-24.618 0-13.576 11.078-24.626 24.69-24.626 13.61 0 24.69 11.05 24.69 24.626s-11.08 24.618-24.69 24.618zM86.012 189.198c-.55 0-1 .45-1 .998v7.079c0 .549.45.998 1 .998.56 0 1-.45 1-.998v-7.079a.997.997 0 0 0-1-.998zm7.006-2.216c-.55 0-1 .45-1 .998v7.069c0 .548.45.998 1 .998.56 0 1-.45 1-.998v-7.069a.997.997 0 0 0-1-.998zm87.113-15.103c.39 0 .73-.31.74-.719a.745.745 0 0 0-.71-.778 2.71 2.71 0 0 1-1.751-.789c.87-.27 1.87-.23 2.7.139a.748.748 0 1 0 .61-1.367 5.348 5.348 0 0 0-4.853.289.75.75 0 0 0-.279.98 4.228 4.228 0 0 0 3.503 2.245h.04zm4.853-8.275a7.519 7.519 0 0 0-2.112-1.128 7.113 7.113 0 0 0-2.55-.41.735.735 0 0 0-.581.29c-.03.03-.051.07-.07.1a.778.778 0 0 0-.071.538 9.51 9.51 0 0 0 2.993 4.842c.14.12.32.179.49.179a.742.742 0 0 0 .49-1.307 7.98 7.98 0 0 1-2.182-3.074c.96.17 1.903.569 2.672 1.158a.76.76 0 0 0 1.051-.131.765.765 0 0 0-.13-1.057zm-1.361-5.602a4.053 4.053 0 0 0-.31 3.346c.11.308.401.499.71.499a.77.77 0 0 0 .25-.05.732.732 0 0 0 .45-.949 2.628 2.628 0 0 1-.048-1.497c.57.35 1 .938 1.12 1.587.07.41.471.68.871.6a.737.737 0 0 0 .601-.86c-.25-1.447-1.381-2.665-2.813-3.024a.754.754 0 0 0-.831.348zm6.096 10.822c-1.612-.26-3.354.28-4.535 1.388a.754.754 0 0 0-.04 1.058c.151.16.351.239.55.239a.71.71 0 0 0 .511-.21c.86-.797 2.112-1.187 3.273-.998.42.07.8-.209.862-.618a.742.742 0 0 0-.621-.859zm-3.354-10.832c.131.08.271.12.41.12a.77.77 0 0 0 .632-.338c.19-.29.34-.61.46-.929.23.13.45.28.66.45.311.26.79.23 1.052-.09.27-.32.23-.79-.08-1.058a5.478 5.478 0 0 0-1.933-1.038.749.749 0 0 0-.62.08.792.792 0 0 0-.34.528c-.06.44-.22.868-.461 1.238-.22.34-.13.809.22 1.037zm4.775 8.985c.22-.798.23-1.527.02-2.146-.281-.868-1-1.508-1.821-1.627-1.662-.24-2.683 1.527-3.024 2.106-.2.36-.08.82.281 1.029.36.2.821.08 1.02-.28.562-.978 1.081-1.437 1.502-1.367.25.03.51.288.62.609.05.15.071.32.071.508a.746.746 0 0 0-.22.73l.099.409c.081.34.371.568.71.579h.022c.33 0 .63-.23.72-.55zm-2.273-6.718a.775.775 0 0 0-.58.738c0 .061.01.11.02.17.1.4.501.64.912.55.73-.17 1.13-.759 1.45-1.229.171-.24.391-.569.52-.579h.01c.08 0 .271.1.382.16.99.499 1.53.958 1.681 1.408l.05.37c.04.379.36.659.74.659h.05c.39-.03.701-.35.701-.75 0-.199-.02-.4-.07-.578l-.01-.05-.02-.19a.717.717 0 0 0-.301-.499c-.58-.91-1.64-1.457-2.14-1.707-.272-.14-.692-.31-1.122-.32-.89.03-1.362.73-1.702 1.229-.19.268-.4.579-.57.618zm6.357 5.34a.755.755 0 0 1-.64.85c-.03.01-.071.01-.102.01-.37 0-.69-.27-.75-.65-.03-.219-.29-.428-.521-.4-.41.041-.79-.25-.83-.657a.744.744 0 0 1 .65-.829c1.032-.13 2.042.648 2.193 1.676z" fill="#1C496F" fill-rule="evenodd"/></svg>