<svg width="15px" height="14px" viewBox="0 0 15 14" version="1.1" xmlns="http://www.w3.org/2000/svg" xmlns:xlink="http://www.w3.org/1999/xlink">
    <!-- Generator: Sketch 46.2 (44496) - http://www.bohemiancoding.com/sketch -->
    <desc>Created with Sketch.</desc>
    <defs></defs>
    <g id="Page-1" stroke="none" stroke-width="1" fill="none" fill-rule="evenodd">
        <g id="icon-linkedin" fill-rule="nonzero" fill="#000000">
            <path d="M15,8.58346512 L15,14 L11.785,14 L11.785,8.94616279 C11.785,7.67655814 11.32,6.81018605 10.1561667,6.81018605 C9.26783333,6.81018605 8.73916667,7.39411628 8.50666667,7.95883721 C8.42183333,8.16086047 8.4,8.44183721 8.4,8.72460465 L8.4,14 L5.184,14 C5.184,14 5.22733333,5.44046512 5.184,4.5535814 L8.39983333,4.5535814 L8.39983333,5.89253488 C8.39333333,5.90262791 8.38483333,5.91337209 8.37866667,5.92313953 L8.39983333,5.92313953 L8.39983333,5.89253488 C8.827,5.24983721 9.59,4.33169767 11.2978333,4.33169767 C13.4138333,4.33169767 15,5.68188372 15,8.58346512 Z M1.81983333,0 C0.719666667,0 0,0.704883721 0,1.63181395 C0,2.53855814 0.698833333,3.26476744 1.77716667,3.26476744 L1.79866667,3.26476744 C2.92016667,3.26476744 3.61766667,2.53872093 3.61766667,1.63181395 C3.5965,0.704883721 2.92016667,0 1.81983333,0 Z M0.191,14 L3.40583333,14 L3.40583333,4.5535814 L0.191,4.5535814 L0.191,14 Z" id="LinkedIn"></path>
        </g>
    </g>
</svg>