<?xml version="1.0" encoding="utf-8"?>
<!-- Generator: Adobe Illustrator 21.1.0, SVG Export Plug-In . SVG Version: 6.00 Build 0)  -->
<svg version="1.1" id="Layer_1" xmlns="http://www.w3.org/2000/svg" xmlns:xlink="http://www.w3.org/1999/xlink" x="0px" y="0px"
	 viewBox="0 0 140 125" style="enable-background:new 0 0 140 125;" xml:space="preserve">
<style type="text/css">
	.st0{fill:#143753;}
</style>
<g>
	<g>
		<path class="st0" d="M37.5,122.5c-0.5,0-1-0.1-1.4-0.4L2.8,102.9c-0.9-0.5-1.4-1.4-1.4-2.5V24.5c0-1,0.5-1.9,1.4-2.5
			c0.9-0.5,2-0.5,2.8,0l65.8,38c0.9,0.5,1.4,1.4,1.4,2.5v36.8c0,1-0.5,1.9-1.4,2.5c-0.9,0.5-2,0.5-2.8,0L40.3,85.5v34.2
			c0,1-0.5,1.9-1.4,2.5C38.5,122.4,38,122.5,37.5,122.5z M7.1,98.8l27.6,15.9V80.6c0-1,0.5-1.9,1.4-2.5c0.9-0.5,2-0.5,2.8,0
			l28.3,16.2V64.1L7.1,29.4V98.8z"/>
	</g>
	<path class="st0" d="M70,102.1c-0.5,0-1-0.1-1.4-0.4c-0.9-0.5-1.4-1.4-1.4-2.5V62.5c0-1,0.5-1.9,1.4-2.4l32.5-19.2
		c0.9-0.5,2-0.5,2.8,0c0.9,0.5,1.4,1.4,1.4,2.5v37.3c0,1-0.5,2-1.4,2.5l-32.5,18.7C71,102,70.5,102.1,70,102.1z M72.8,64.1v30.3
		l26.9-15.4V48.2L72.8,64.1z"/>
	<g>
		<path class="st0" d="M70,65.3c-0.5,0-1-0.1-1.4-0.4L2.8,27c-0.9-0.5-1.4-1.4-1.4-2.5s0.5-1.9,1.4-2.5L36.1,2.9
			c0.9-0.5,2-0.5,2.8,0l65,37.9c0.9,0.5,1.4,1.4,1.4,2.4c0,1-0.5,1.9-1.4,2.4L71.4,64.9C71,65.2,70.5,65.3,70,65.3z M9.9,24.5
			L70,59.2l26.9-15.9L37.5,8.6L9.9,24.5z"/>
	</g>
	<path class="st0" d="M102.5,46.1c-0.5,0-1-0.1-1.4-0.4L67.7,26.2c-0.9-0.5-1.4-1.5-1.4-2.5c0-1,0.6-2,1.4-2.4l33-18.5
		c0.9-0.5,1.9-0.5,2.8,0l33.6,19.2c0.9,0.5,1.4,1.4,1.4,2.5c0,1-0.6,2-1.4,2.5l-33.2,18.7C103.5,46,103,46.1,102.5,46.1z M74.8,23.9
		L102.5,40L130,24.5L102.1,8.6L74.8,23.9z"/>
	<g>
		<path class="st0" d="M102.5,122.5c-0.5,0-1-0.1-1.4-0.4c-0.9-0.5-1.4-1.4-1.4-2.5l0.1-76.4c0-1,0.6-2,1.4-2.5l33.2-18.7
			c0.9-0.5,2-0.5,2.8,0c0.9,0.5,1.4,1.4,1.4,2.4v75.9c0,1-0.5,1.9-1.4,2.5l-33.3,19.2C103.4,122.4,102.9,122.5,102.5,122.5z
			 M105.4,44.9l-0.1,69.8l27.6-15.9V29.4L105.4,44.9z"/>
	</g>
	<g>
		<path class="st0" d="M102.5,122.5c-0.5,0-1-0.1-1.5-0.4l-32.5-20.4c-0.8-0.5-1.3-1.5-1.3-2.5c0-1,0.6-1.9,1.4-2.4l32.5-18.7
			c0.9-0.5,2-0.5,2.8,0c0.9,0.5,1.4,1.4,1.4,2.5l-0.1,39.1c0,1-0.6,2-1.5,2.5C103.4,122.4,102.9,122.5,102.5,122.5z M75.5,99.4
			l24.1,15.2l0.1-29.1"/>
	</g>
	<g>
		<path class="st0" d="M37.5,122.5c-0.5,0-0.9-0.1-1.4-0.4c-0.9-0.5-1.5-1.4-1.5-2.5V80.6c0-1,0.5-1.9,1.4-2.5c0.9-0.5,2-0.5,2.8,0
			l32.5,18.7c0.9,0.5,1.4,1.4,1.4,2.4c0,1-0.5,1.9-1.3,2.5L39,122.1C38.5,122.4,38,122.5,37.5,122.5z M40.3,85.5v29.1l24.2-15.2
			L40.3,85.5z"/>
	</g>
</g>
</svg>
