<?xml version="1.0" encoding="utf-8"?>
<!-- Generator: Adobe Illustrator 21.1.0, SVG Export Plug-In . SVG Version: 6.00 Build 0)  -->
<svg version="1.1" id="Layer_1" xmlns="http://www.w3.org/2000/svg" xmlns:xlink="http://www.w3.org/1999/xlink" x="0px" y="0px"
	 viewBox="0 0 210 40" style="enable-background:new 0 0 210 40;" xml:space="preserve">
<style type="text/css">
	.st0{fill:#143753;}
</style>
<g>
	<g>
		<g>
			<g>
				<path class="st0" d="M13.6,33.9c-0.1,0-0.2,0-0.3-0.1l-7.7-4.4c-0.2-0.1-0.3-0.3-0.3-0.6V11.2c0-0.2,0.1-0.4,0.3-0.6
					c0.2-0.1,0.5-0.1,0.7,0l15.2,8.8c0.2,0.1,0.3,0.3,0.3,0.6v8.5c0,0.2-0.1,0.4-0.3,0.6c-0.2,0.1-0.5,0.1-0.7,0l-6.5-3.8v7.9
					c0,0.2-0.1,0.4-0.3,0.6C13.8,33.8,13.7,33.9,13.6,33.9z M6.6,28.4l6.4,3.7v-7.9c0-0.2,0.1-0.4,0.3-0.6c0.2-0.1,0.5-0.1,0.7,0
					l6.5,3.8v-7l-13.9-8V28.4z"/>
			</g>
			<path class="st0" d="M21.1,29.1c-0.1,0-0.2,0-0.3-0.1c-0.2-0.1-0.3-0.3-0.3-0.6V20c0-0.2,0.1-0.4,0.3-0.6l7.5-4.4
				c0.2-0.1,0.5-0.1,0.7,0c0.2,0.1,0.3,0.3,0.3,0.6v8.6c0,0.2-0.1,0.5-0.3,0.6l-7.5,4.3C21.3,29.1,21.2,29.1,21.1,29.1z M21.7,20.4
				v7l6.2-3.6v-7.1L21.7,20.4z"/>
			<g>
				<path class="st0" d="M21.1,20.7c-0.1,0-0.2,0-0.3-0.1L5.6,11.8c-0.2-0.1-0.3-0.3-0.3-0.6s0.1-0.4,0.3-0.6l7.7-4.4
					c0.2-0.1,0.5-0.1,0.7,0l15,8.8c0.2,0.1,0.3,0.3,0.3,0.6s-0.1,0.4-0.3,0.6l-7.5,4.4C21.3,20.6,21.2,20.7,21.1,20.7z M7.2,11.2
					l13.9,8l6.2-3.7l-13.7-8L7.2,11.2z"/>
			</g>
			<path class="st0" d="M28.6,16.2c-0.1,0-0.2,0-0.3-0.1l-7.7-4.5c-0.2-0.1-0.3-0.3-0.3-0.6c0-0.2,0.1-0.5,0.3-0.6l7.6-4.3
				c0.2-0.1,0.4-0.1,0.6,0l7.8,4.4c0.2,0.1,0.3,0.3,0.3,0.6c0,0.2-0.1,0.5-0.3,0.6l-7.7,4.3C28.8,16.2,28.7,16.2,28.6,16.2z
				 M22.2,11.1l6.4,3.7l6.3-3.6l-6.4-3.7L22.2,11.1z"/>
			<g>
				<path class="st0" d="M28.6,33.9c-0.1,0-0.2,0-0.3-0.1c-0.2-0.1-0.3-0.3-0.3-0.6l0-17.6c0-0.2,0.1-0.5,0.3-0.6l7.7-4.3
					c0.2-0.1,0.5-0.1,0.7,0c0.2,0.1,0.3,0.3,0.3,0.6v17.5c0,0.2-0.1,0.5-0.3,0.6l-7.7,4.4C28.8,33.8,28.7,33.9,28.6,33.9z
					 M29.3,15.9l0,16.1l6.4-3.7v-16L29.3,15.9z"/>
			</g>
			<g>
				<path class="st0" d="M28.6,33.9c-0.1,0-0.2,0-0.3-0.1L20.7,29c-0.2-0.1-0.3-0.3-0.3-0.6c0-0.2,0.1-0.4,0.3-0.6l7.5-4.3
					c0.2-0.1,0.5-0.1,0.7,0c0.2,0.1,0.3,0.3,0.3,0.6l0,9c0,0.2-0.1,0.5-0.3,0.6C28.8,33.8,28.7,33.9,28.6,33.9z M22.4,28.5l5.6,3.5
					l0-6.7"/>
			</g>
			<g>
				<path class="st0" d="M13.6,33.9c-0.1,0-0.2,0-0.3-0.1c-0.2-0.1-0.3-0.3-0.3-0.6v-9c0-0.2,0.1-0.4,0.3-0.6c0.2-0.1,0.5-0.1,0.7,0
					l7.5,4.3c0.2,0.1,0.3,0.3,0.3,0.6c0,0.2-0.1,0.4-0.3,0.6l-7.5,4.7C13.8,33.8,13.7,33.9,13.6,33.9z M14.2,25.3V32l5.6-3.5
					L14.2,25.3z"/>
			</g>
		</g>
		<g>
			<path class="st0" d="M58.9,29.9l3.3-20.7h4l5.2,12.4l5.2-12.4h4l3.3,20.7h-4.8l-1.6-12.4l-5.2,12.4h-1.7l-5.2-12.4l-1.6,12.4
				H58.9z"/>
			<path class="st0" d="M110.4,11.7c2,1.9,3.2,4.6,3.2,7.8c0,2.8-1,5.6-3.2,7.8c-1.9,1.9-4.5,3-8,3c-3.9,0-6.5-1.6-8.1-3
				c-2-1.9-3.2-4.7-3.2-7.7c0-3,1.3-6,3.2-7.9c1.4-1.4,4-3,8.1-3C105.6,8.7,108.3,9.7,110.4,11.7z M97.8,14.9
				c-0.9,0.9-1.8,2.4-1.8,4.7c0,1.9,0.6,3.4,1.9,4.7c1.3,1.3,2.8,1.7,4.4,1.7c2.1,0,3.6-0.8,4.6-1.8c0.8-0.8,1.8-2.2,1.8-4.6
				c0-2.1-0.9-3.7-1.8-4.7c-1-1-2.7-1.8-4.6-1.8C100.6,13.1,99,13.8,97.8,14.9z"/>
			<path class="st0" d="M128.4,9.2c2.7,0,5.6,0.4,8.2,2.9c1.8,1.8,3,4.2,3,7.4c0,3.3-1.1,5.6-2.8,7.3c-2.9,2.9-6.4,3.1-8.2,3.1h-6.7
				V9.2H128.4z M126.6,25.8h1.3c1,0,3.2-0.1,4.7-1.4c1.1-0.9,2-2.7,2-5c0-2.2-0.9-3.7-1.7-4.5c-1.6-1.6-3.6-1.8-5-1.8h-1.3V25.8z"/>
			<path class="st0" d="M165.3,21.4c0,2-0.2,4.4-2.3,6.6c-2,2-4.3,2.4-6.5,2.4c-2.2,0-4.5-0.3-6.5-2.4c-2-2.1-2.3-4.6-2.3-6.6V9.2
				h4.8v12.1c0,0.9,0.1,2.4,1.1,3.5c0.8,0.9,2,1.1,2.9,1.1c0.9,0,2-0.2,2.9-1.1c1-1.1,1.1-2.6,1.1-3.5V9.2h4.8V21.4z"/>
			<path class="st0" d="M179.3,9.2v16.7h6.4v4h-11.2V9.2H179.3z"/>
			<path class="st0" d="M204.8,13.2h-6.9v4h6.6v4h-6.6v4.6h6.9v4H193V9.2h11.7V13.2z"/>
		</g>
	</g>
</g>
</svg>
